/* XPM */
static char *cd4ef14642fa4145f63ceeb956ab1471xbYKqZVonBCt3Rvc[] = {
/* columns rows colors chars-per-pixel */
"32 32 117 2 ",
"   c #3A7554",
".  c #4F5B46",
"X  c #505240",
"o  c #545542",
"O  c #545644",
"+  c #5C5344",
"@  c #535B46",
"#  c #5F5848",
"$  c #634F44",
"%  c #476347",
"&  c #496448",
"*  c #5D694F",
"=  c #46724F",
"-  c #407750",
";  c #417852",
":  c #457953",
">  c #427C53",
",  c #437D54",
"<  c #477E55",
"1  c #4C7A54",
"2  c #487D55",
"3  c #557B56",
"4  c #7F6055",
"5  c #607754",
"6  c #804647",
"7  c #8C444A",
"8  c #9F414E",
"9  c #8B5F58",
"0  c #AA4E56",
"q  c #AF4D57",
"w  c #B15058",
"e  c #B5525A",
"r  c #A56B5E",
"t  c #BB5760",
"y  c #C15660",
"u  c #C85A64",
"i  c #D1606A",
"p  c #DB636E",
"a  c #5C8E4D",
"s  c #4B8252",
"d  c #4F8753",
"f  c #4D8756",
"g  c #468358",
"h  c #47865B",
"j  c #41835D",
"k  c #42845D",
"l  c #46875D",
"z  c #48835A",
"x  c #488459",
"c  c #47885E",
"v  c #4E8A58",
"b  c #498A5C",
"n  c #4A8C5E",
"m  c #44935F",
"M  c #46945F",
"N  c #4B915F",
"B  c #4D925E",
"V  c #5C9454",
"C  c #52965D",
"Z  c #5A9B5E",
"A  c #5C9B5E",
"S  c #5C9C5D",
"D  c #63944D",
"F  c #629F5C",
"G  c #58A05A",
"H  c #65A957",
"J  c #64A25B",
"K  c #63A15C",
"L  c #64A15C",
"P  c #66A45C",
"I  c #68A35A",
"U  c #6BA559",
"Y  c #6DA758",
"T  c #6EA858",
"R  c #76A850",
"E  c #73AB57",
"W  c #79AE55",
"Q  c #71A958",
"!  c #72AC59",
"~  c #7EB253",
"^  c #7CB155",
"/  c #7DB658",
"(  c #478E64",
")  c #488E63",
"_  c #4C8F60",
"`  c #488F64",
"'  c #428C68",
"]  c #419161",
"[  c #449262",
"{  c #469463",
"}  c #4B9162",
"|  c #4D9262",
" . c #4D9463",
".. c #489066",
"X. c #4C9365",
"o. c #4F9665",
"O. c #509462",
"+. c #549660",
"@. c #509766",
"#. c #569860",
"$. c #529A68",
"%. c #519C68",
"&. c #4A8F72",
"*. c #439270",
"=. c #4B9071",
"-. c #4F9270",
";. c #529773",
":. c #798A64",
">. c #629F6B",
",. c #72AA66",
"<. c #81B756",
"1. c #8ABA50",
"2. c #8D8764",
"3. c #9E8F6C",
"4. c #A49971",
"5. c #FE7F8B",
"6. c #FFF8C2",
/* pixels */
"o.o.o.o.o.o.o.o.o.o.o.o.o.o.o.o.o.o.o.o.$.b g %.o.o.o.o.o.o. .;.",
"| | | | | | | | | | | | | | | | | | | o.g < h , o.| | | | | B -.",
"| | | | | | | | | | | | | | | | | | | | | < > ) | | | | | | B -.",
"| | | | | | | | | | | | | | | | | | | | | n b o.| | | | | | B -.",
"| | | | | | | | | | | | | | | | ) } | | | | | | | | | | | | B -.",
"| | | | | | | | | | | | | | | ` L Z ( | | | | | | | | | | | B -.",
"| | | | | ` | | | | | | | | | ( Y ^ Z } } ) | | | | | | | | B -.",
"| | | | | I O.| | | | | | | | ( U 1.P ' Z F ) | | | | | | | B -.",
"| | | | | ^ O.( } | | | | | | } +./ V g <.! ( | | | | | | | B -.",
"| | | | | W O.L O.| | | | | | | ..v a ~ R f X.| | | | | | | B -.",
"| | | | | ~ O.^ #.} | | | | | |  .j d D s k  .| | | | | | | B -.",
"| | | | | K | ^ #.} | | | | | | | o.c   l @.| | | | | | | | B -.",
"| | | | | ) | J O.| | | | | 2 9 * | | o. .| | | | | | | | | B -.",
"| | | | | | | ) | | | | | | 1 5.t % | | | | | | | | | | | | B -.",
"` | | | | | | | | | | | x # 4 u e 0 & | | | | | | | | | | | B =.",
"S | | | | | | | | | | : 6 i p w e 0 0 @ | | | | | | | | | | B >.",
"T | | | | | | | | | | = + $ y q 8 7 . O | | | | | | | | | | C ,.",
"( | | | | | | | | | | | | z X o r & | | | | | | | | | | | | N &.",
"| | | | | | | | | | | | | | | :.4.| | | | | | | | | | | | | B -.",
"| | | | | | | | | | | | | | 3 6.3.| | | | | | | | | | | | | B -.",
"| | | | | | | | | n | | | | < 2.5 | | | | | | | | | | | | | B -.",
"| | | | | | | | _ ; h | | | | | | | | | | | | | | | | | | | B -.",
"| | | | | | |  .- n ; b | | | | | | | | | | | | | | | | | | B -.",
"| | | | | | | | o.- b | | | | | | | | | | | | } | O.| | | | B -.",
"| | | | | | | | | | | | | | | | | | | | | | | | S E ( | | | B -.",
"| | | | | | | | | | | | | | | | | | | | | ` K Y Z E ( | | | B -.",
"| | | | | | | | | | | | | | | | | | | | | ` K Y Z E ` | | | B -.",
"| | | | | | | | | | | | | | | | | | | | | ) K Q ` | | | | | B -.",
"| | | | | | | | | | | | } | | | | | | | | | |  .| | | | | | B -.",
"| | | | | | | | | | | ( Q A ) | | | | | | | | | | | | | | | B -.",
"| | | | | | | | | | ) Q Z T S ) | | | | | | | | | | | | | | B -.",
"] [ [ [ [ [ [ [ [ { ] M H G [ [ ] ] ] ] [ ] ] [ [ ] ] ] ] [ m *."
};
