/* XPM */
static char *_752e928fe674bcb9b4e2830143435950O47HEk06xnkU4SU[] = {
/* columns rows colors chars-per-pixel */
"32 32 162 2 ",
"   c #3D2316",
".  c #6E060B",
"X  c #6C0E0B",
"o  c #790D0B",
"O  c #611A0F",
"+  c #74100D",
"@  c #78120F",
"#  c #671510",
"$  c #6B1712",
"%  c #621C13",
"&  c #731410",
"*  c #7B1411",
"=  c #60221A",
"-  c #7D261C",
";  c #43392A",
":  c #533F2B",
">  c #732D21",
",  c #613C2D",
"<  c #7A3C2D",
"1  c #2C4116",
"2  c #3E543A",
"3  c #3E5C3E",
"4  c #376F36",
"5  c #3A7437",
"6  c #534516",
"7  c #41452F",
"8  c #534C24",
"9  c #50442F",
"0  c #414F34",
"q  c #574B34",
"w  c #60412E",
"e  c #6F442F",
"r  c #3F6B48",
"t  c #3D6F4E",
"y  c #42734D",
"u  c #43764F",
"i  c #407750",
"p  c #417951",
"a  c #457C53",
"s  c #437F56",
"d  c #467C54",
"f  c #8A0108",
"g  c #850F0F",
"h  c #910E0E",
"j  c #940F0E",
"k  c #9F0E0E",
"l  c #A30C0B",
"z  c #A60E10",
"x  c #AD1113",
"c  c #AC1114",
"v  c #AD1919",
"b  c #B41211",
"n  c #BB1313",
"m  c #BD1314",
"M  c #BC1616",
"N  c #AE312A",
"B  c #C61215",
"V  c #C01A1A",
"C  c #C41A1D",
"Z  c #C31E1D",
"A  c #CF1E1E",
"S  c #D21E1E",
"D  c #C62020",
"F  c #C82020",
"G  c #CD2323",
"H  c #D12525",
"J  c #D62424",
"K  c #DA2525",
"L  c #DC2427",
"P  c #D72828",
"I  c #DB2A2A",
"U  c #DF292A",
"Y  c #DF2C2B",
"T  c #EA2428",
"R  c #E62D2D",
"E  c #EA3030",
"W  c #FE3133",
"Q  c #FF3134",
"!  c #FB3737",
"~  c #FF3536",
"^  c #FF3738",
"/  c #F63A39",
"(  c #FE3A39",
")  c #FE3F3D",
"_  c #C14439",
"`  c #FF403D",
"'  c #EF584E",
"]  c #FF504A",
"[  c #FB544D",
"{  c #F16B5A",
"}  c #FE6B5C",
"|  c #FE7061",
" . c #FF7F6C",
".. c #418930",
"X. c #419C36",
"o. c #4B8251",
"O. c #4D8856",
"+. c #468359",
"@. c #47875B",
"#. c #41835C",
"$. c #44855C",
"%. c #498A5D",
"&. c #4A8C5E",
"*. c #46955F",
"=. c #4B915F",
"-. c #4D925F",
";. c #5C9554",
":. c #52965D",
">. c #54965F",
",. c #55985F",
"<. c #5B9B5E",
"1. c #5C9C5E",
"2. c #63954D",
"3. c #619F5C",
"4. c #58A15A",
"5. c #70A04B",
"6. c #64A957",
"7. c #67A35A",
"8. c #63A05C",
"9. c #64A15C",
"0. c #66A45C",
"q. c #6BA559",
"w. c #6EA758",
"e. c #6EA958",
"r. c #76A850",
"t. c #71A957",
"y. c #73AC57",
"u. c #78AE55",
"i. c #70AA58",
"p. c #72AD59",
"a. c #7BB155",
"s. c #7CB255",
"d. c #7DB658",
"f. c #428C67",
"g. c #478E64",
"h. c #488F63",
"j. c #4C8F60",
"k. c #488F64",
"l. c #419161",
"z. c #449361",
"x. c #459463",
"c. c #4B9163",
"v. c #4D9262",
"b. c #4F9461",
"n. c #4B9365",
"m. c #4F9665",
"M. c #509361",
"N. c #519561",
"B. c #559860",
"V. c #519866",
"C. c #529A68",
"Z. c #529C68",
"A. c #439271",
"S. c #4A9072",
"D. c #4F9370",
"F. c #529773",
"G. c #619F6B",
"H. c #72AA66",
"J. c #8ABA4F",
"K. c #81B856",
"L. c #FF8472",
"P. c #FD8B75",
/* pixels */
"m.m.m.m.m.m.m.m.m.m.m.m.m.m.m.m.m.m.m.m.C.%.+.Z.m.m.m.m.m.m.b.F.",
"v.v.v.v.v.v.v.v.v.v.v.v.v.v.v.v.v.v.v.m.+.d @.s m.v.v.v.v.v.-.D.",
"v.v.v.v.v.v.v.v.v.v.v.v.v.v.v.v.v.v.v.v.v.s s h.v.v.v.v.v.v.-.D.",
"v.v.v.v.v.v.v.v.v.v.v.v.v.v.v.v.v.v.v.v.b.&.&.m.v.v.v.v.v.v.-.D.",
"v.v.v.v.v.v.v.v.v.v.v.v.v.v.v.v.h.c.v.v.v.v.b.v.v.v.v.v.v.v.-.D.",
"v.v.v.v.v.v.v.v.v.v.v.v.v.v.v.h.7.<.g.v.v.v.v.v.v.v.v.v.v.v.-.D.",
"v.v.v.v.v.h.v.v.v.v.v.v.v.v.v.g.w.a.<.c.c.h.v.v.v.v.v.v.v.v.-.D.",
"v.v.v.v.v.7.b.v.v.v.v.v.v.v.v.g.q.J.0.f.<.3.c.v.v.v.v.v.v.v.-.D.",
"v.v.v.v.v.s.N.g.v.v.v.v.v.v.v.c.>.d.;.+.K.p.g.v.v.v.v.v.v.v.-.D.",
"v.v.v.v.v.u.N.9.N.v.v.v.v.v.0 e t 5 ..5.r.O.n.v.v.v.v.v.v.v.-.D.",
"v.v.v.v.v.s.N.s.,.c.v.v.v.v.p , 8 X.4 2.o.#.m.v.v.v.v.v.v.v.-.D.",
"v.v.v.v.v.9.v.s.B.c.v.v.9 > w   1 6 % ; $.V.v.v.v.v.v.v.v.v.-.D.",
"v.v.v.v.v.g.v.7.N.v.v.q { L.} - O C B b : v.v.v.v.v.v.v.v.v.-.D.",
"v.v.v.v.v.v.v.g.v.v.r _ L.P. ./ T L H M l d v.v.v.v.v.v.v.v.-.D.",
"k.v.v.v.v.v.v.v.v.v.< ' ) | L.] Q R J Z z = v.v.v.v.v.v.v.v.=.S.",
"1.v.v.v.v.v.v.v.v.v.N [ W ) ` ( ( ( R D c f v.v.v.v.v.v.v.v.:.G.",
"e.c.v.v.v.v.v.v.v.v.g U ( ~ ~ ^ ( ! U F x . v.v.v.v.v.v.v.v.:.H.",
"g.v.v.v.v.v.v.v.v.v.7 v R E ! ( ! P H V k 2 v.v.v.v.v.v.v.v.=.S.",
"v.v.v.v.v.v.v.v.v.v.@.$ S I Y K J I G n & &.v.v.v.v.v.v.v.v.-.D.",
"v.v.v.v.v.v.v.v.v.v.v.i * S A h j A m @ u v.v.v.v.v.v.v.v.v.-.D.",
"v.v.v.v.v.v.v.v.v.&.v.v.y # + 3 3 o X a v.v.v.v.v.v.v.v.v.v.-.D.",
"v.v.v.v.v.v.v.v.j.p @.v.v.v.v.v.v.v.v.v.v.v.v.v.v.v.v.v.v.v.-.D.",
"v.v.v.v.v.v.v.b.i &.p %.v.v.v.v.v.v.v.v.v.v.v.v.v.v.v.v.v.v.-.D.",
"v.v.v.v.v.v.v.v.m.i %.v.v.v.v.v.v.v.v.v.v.v.v.v.v.N.v.v.v.v.-.D.",
"v.v.v.v.v.v.v.v.v.v.v.v.v.v.v.v.v.v.v.v.v.v.v.c.1.t.h.v.v.v.-.D.",
"v.v.v.v.v.v.v.v.v.v.v.v.v.v.v.v.v.v.v.v.v.h.8.w.<.y.k.v.v.v.-.D.",
"v.v.v.v.v.v.v.v.v.v.v.v.v.v.v.v.v.v.v.v.v.h.8.w.<.i.g.v.v.v.-.D.",
"v.v.v.v.v.v.v.v.v.v.v.v.v.v.v.v.v.v.v.v.v.h.8.i.h.M.v.v.v.v.-.D.",
"v.v.v.v.v.v.v.v.v.v.v.v.c.v.v.v.v.v.v.v.v.v.b.N.v.v.v.v.v.v.-.D.",
"v.v.v.v.v.v.v.v.v.v.v.g.i.<.h.v.v.v.v.v.v.v.v.v.v.v.v.v.v.v.-.D.",
"v.v.v.v.v.v.v.v.v.v.h.t.<.e.1.c.v.v.v.v.v.v.v.v.v.v.v.v.v.v.-.D.",
"l.l.x.x.x.x.l.x.x.x.l.*.6.4.z.x.l.l.l.l.x.l.l.x.x.l.l.l.l.l.*.A."
};
