/* XPM */
static char *bc0a92dc8d3c4eb1a459905e62807d3aROpiVhXa9nVfLcyY[] = {
/* columns rows colors chars-per-pixel */
"64 64 189 2 ",
"   c #0F1202",
".  c #101001",
"X  c #280000",
"o  c #3C0F00",
"O  c #2D1409",
"+  c #1D2301",
"@  c #003C00",
"#  c #322B00",
"$  c #2C3D11",
"%  c #392412",
"&  c #410000",
"*  c #4C0100",
"=  c #530100",
"-  c #5D0705",
";  c #461809",
":  c #620000",
">  c #6E0101",
",  c #6C0904",
"<  c #750303",
"1  c #7D0101",
"2  c #6A150C",
"3  c #611E1A",
"4  c #701A12",
"5  c #4F230E",
"6  c #542211",
"7  c #6F2617",
"8  c #642521",
"9  c #6C352F",
"0  c #2F5C1F",
"q  c #196D04",
"w  c #247817",
"e  c #287C21",
"r  c #3C712C",
"t  c #4D501A",
"y  c #5C422C",
"u  c #6F483D",
"i  c #7E433A",
"p  c #76553E",
"a  c #3F754F",
"s  c #3C7552",
"d  c #3E7A56",
"f  c #6A5D47",
"g  c #7B5D4E",
"h  c #4E7E4B",
"j  c #507E43",
"k  c #437C53",
"l  c #407651",
"z  c #7B654F",
"x  c #796656",
"c  c #746959",
"v  c #7C6B5A",
"b  c #7B6758",
"n  c #567D65",
"m  c #7C7F69",
"M  c #797662",
"N  c #840102",
"B  c #8B0302",
"V  c #8A090C",
"C  c #910303",
"Z  c #9D0707",
"A  c #9D0808",
"S  c #930609",
"D  c #85120D",
"F  c #A20707",
"G  c #A30B0B",
"H  c #AC1212",
"J  c #B31616",
"K  c #BC1A1A",
"L  c #B71918",
"P  c #88201E",
"I  c #A7261F",
"U  c #B91E20",
"Y  c #A72A24",
"T  c #C21D1D",
"R  c #CE1E1F",
"E  c #EE1F28",
"W  c #CC2222",
"Q  c #C22C22",
"!  c #D32625",
"~  c #DB2929",
"^  c #D72828",
"/  c #C53933",
"(  c #E32C2C",
")  c #EB2B2C",
"_  c #E42527",
"`  c #FB282C",
"'  c #FF2E31",
"]  c #ED3131",
"[  c #F43333",
"{  c #FD3536",
"}  c #FF3939",
"|  c #844638",
" . c #BC4438",
".. c #CA4237",
"X. c #FF423F",
"o. c #90574E",
"O. c #85584D",
"+. c #876859",
"@. c #91715F",
"#. c #837F69",
"$. c #967160",
"%. c #DD5441",
"&. c #FF4642",
"*. c #FF4945",
"=. c #FD554D",
"-. c #F55B50",
";. c #EB6957",
":. c #FF695C",
">. c #E6715C",
",. c #FF7464",
"<. c #FF7C69",
"1. c #FA7664",
"2. c #398C29",
"3. c #3B914E",
"4. c #3E9354",
"5. c #3E9261",
"6. c #57884A",
"7. c #5F9E4F",
"8. c #458157",
"9. c #468359",
"0. c #48875B",
"q. c #4A8C5E",
"w. c #488855",
"e. c #4B9154",
"r. c #4B9A5D",
"t. c #509253",
"y. c #5E9554",
"u. c #55965F",
"i. c #569A5E",
"p. c #5B9C5E",
"a. c #589A52",
"s. c #609F5D",
"d. c #68965C",
"f. c #59A458",
"g. c #56A25A",
"h. c #5DAD4A",
"j. c #66A34A",
"k. c #64A15C",
"l. c #6AA55A",
"z. c #6EA959",
"x. c #6FA857",
"c. c #75AC56",
"v. c #7AAE55",
"b. c #71AA58",
"n. c #71A657",
"m. c #7CB255",
"M. c #7AB258",
"N. c #74AD45",
"B. c #468D64",
"V. c #498F63",
"C. c #528E66",
"Z. c #429463",
"A. c #4D9262",
"S. c #529362",
"D. c #529864",
"F. c #57976A",
"G. c #59976B",
"H. c #549E6A",
"J. c #5D9A6D",
"K. c #5B9D61",
"L. c #78846D",
"P. c #719E64",
"I. c #768B71",
"U. c #7C8D72",
"Y. c #669C74",
"T. c #6A9C79",
"R. c #759275",
"E. c #7C9276",
"W. c #54A06B",
"Q. c #58A770",
"!. c #6CA272",
"~. c #6BCA53",
"^. c #81B554",
"/. c #88BA52",
"(. c #83B956",
"). c #809276",
"_. c #89B866",
"`. c #FF8A74",
"'. c #FE927B",
"]. c #FE997E",
"[. c #8AC056",
"{. c #4A9399",
"}. c #549595",
"|. c #549595",
" X c #599794",
".X c #6BA58F",
"XX c #78AD8B",
"oX c #5CA3A3",
"OX c #FDA187",
/* pixels */
"W.W.W.W.W.W.W.W.W.W.W.W.W.W.W.W.W.W.W.W.W.W.W.W.W.W.W.W.W.W.W.W.W.W.W.W.W.W.W.H.W.Q.H.V.q.D.W.W.H.H.W.W.W.W.W.W.W.W.W.W.W.i.i.oX",
"A.A.A.A.A.A.A.A.A.A.A.A.A.A.A.A.A.A.A.A.A.A.A.A.A.A.A.A.A.A.A.A.A.A.A.A.A.A.A.A.A.A.q.k a 9.A.A.A.A.A.A.A.A.A.A.A.A.A.A.A.e.e.}.",
"A.A.A.A.A.A.A.A.A.A.A.A.A.A.A.A.A.A.A.A.A.A.A.A.A.A.A.A.A.A.A.A.A.A.A.A.A.A.A.A.q.9.k 9.9.k k q.A.A.A.A.A.A.A.A.A.A.A.A.A.e.e.}.",
"A.A.A.A.A.A.A.A.A.A.A.A.A.A.A.A.A.A.A.A.A.A.A.A.A.A.A.A.A.A.A.A.A.A.A.A.A.A.A.A.q.k l q.V.k a 9.A.A.A.A.A.A.A.A.A.A.A.A.A.e.e.}.",
"A.A.A.A.A.A.A.A.A.A.A.A.A.A.A.A.A.A.A.A.A.A.A.A.A.A.A.A.A.A.A.A.A.A.A.A.A.A.A.A.q.9.k 8.8.k 9.q.A.A.A.A.A.A.A.A.A.A.A.A.A.e.e.}.",
"A.A.A.A.A.A.A.A.A.A.A.A.A.A.A.A.A.A.A.A.A.A.A.A.A.A.A.A.A.A.A.A.A.A.A.A.A.A.A.A.A.A.q.k a 9.A.A.A.A.A.A.A.A.A.A.A.A.A.A.A.e.e.}.",
"A.A.A.A.A.A.A.A.A.A.A.A.A.A.A.A.A.A.A.A.A.A.A.A.A.A.A.A.A.A.A.A.A.A.A.A.A.A.A.A.A.D.A.9.8.q.D.A.A.A.A.A.A.A.A.A.A.A.A.A.A.e.e.}.",
"A.A.A.A.A.A.A.A.A.A.A.A.A.A.A.A.A.A.A.A.A.A.A.A.A.A.A.A.A.A.A.A.A.A.A.A.A.A.A.A.A.A.A.A.A.A.A.A.A.A.A.A.A.A.A.A.A.A.A.A.A.e.e.}.",
"A.A.A.A.A.A.A.A.A.A.A.A.A.A.A.A.A.A.A.A.A.A.A.A.A.A.A.A.A.A.A.A.A.V.A.A.A.A.A.A.A.A.A.A.A.A.A.A.A.A.A.A.A.A.A.A.A.A.A.A.A.e.e.}.",
"A.A.A.A.A.A.A.A.A.A.A.A.A.A.A.A.A.A.A.A.A.A.A.A.A.A.A.A.A.A.A.A.A.A.A.A.A.A.A.A.A.A.A.A.A.A.A.A.A.A.A.A.A.A.A.A.A.A.A.A.A.e.e.}.",
"A.A.A.A.A.A.A.A.A.A.A.A.A.A.A.A.A.A.A.A.A.A.A.A.A.A.A.A.A.A.A.A.D.s.i.A.V.A.A.A.A.A.A.A.A.A.A.A.A.A.A.A.A.A.A.A.A.A.A.A.A.e.e.}.",
"A.A.A.A.A.A.A.A.A.A.A.A.A.A.A.A.A.A.A.A.A.A.A.A.A.A.A.A.A.A.A.A.p.c.z.S.V.A.A.A.A.A.A.A.A.A.A.A.A.A.A.A.A.A.A.A.A.A.A.A.A.e.e.}.",
"A.A.A.A.A.A.A.A.A.A.A.A.A.A.A.A.A.A.A.A.A.A.A.A.A.A.A.A.A.A.V.V.k.m.m.l.i.S.A.A.A.A.A.A.A.A.A.A.A.A.A.A.A.A.A.A.A.A.A.A.A.e.e.}.",
"A.A.A.A.A.A.A.A.A.A.A.A.A.A.A.A.A.A.A.A.A.A.A.A.A.A.A.A.A.A.V.V.p.c.^.m.l.i.V.A.A.A.A.A.A.A.A.A.A.A.A.A.A.A.A.A.A.A.A.A.A.e.e.}.",
"A.A.A.A.A.A.A.A.A.S.p.p.S.A.A.A.A.A.A.A.A.A.A.A.A.A.A.A.A.A.V.V.p.c././.b.K.V.V.A.i.p.S.A.A.A.A.A.A.A.A.A.A.A.A.A.A.A.A.A.e.e.}.",
"A.A.A.A.A.A.A.A.V.i.z.b.p.V.A.A.A.A.A.A.A.A.A.A.A.A.A.A.A.A.V.V.p.c./.^.z.K.V.B.S.l.b.p.A.A.A.A.A.A.A.A.A.A.A.A.A.A.A.A.A.e.e.}.",
"A.A.A.A.A.A.A.A.V.p.v.m.s.V.V.A.A.A.A.A.A.A.A.A.A.A.A.A.A.A.A.A.i.k.m.(.x.q.9.q.l.(.(.k.B.V.A.A.A.A.A.A.A.A.A.A.A.A.A.A.A.e.e.}.",
"A.A.A.A.A.A.A.A.V.i.c.v.s.V.V.V.A.A.A.A.A.A.A.A.A.A.A.A.A.A.A.A.A.A.l.(.n.k s y.m./.M.k.V.V.A.A.A.A.A.A.A.A.A.A.A.A.A.A.A.e.e.}.",
"A.A.A.A.A.A.A.A.V.i.c.c.p.A.S.i.S.A.A.A.A.A.A.A.A.A.A.A.Y.f X f F.V.J.j @ 6.P.v.(.c.y.u.A.A.A.A.A.A.A.A.A.A.A.A.A.A.A.A.A.e.e.}.",
"A.A.A.A.A.A.A.A.V.i.c.c.i.A.k.z.p.A.A.A.A.A.A.A.A.A.A.A.Y.y o z ).T.!.z.q r _.[.v.6.k 9.A.A.A.A.A.A.A.A.A.A.A.A.A.A.A.A.A.e.e.}.",
"A.A.A.A.A.A.A.A.V.i.c.c.i.S.b.m.k.A.V.A.A.A.A.A.A.A.A.A.J.M p p 6 + w ~.h.d._.c.y.k s 9.A.A.A.A.A.A.A.A.A.A.A.A.A.A.A.A.A.e.e.}.",
"A.A.A.A.A.A.A.A.V.p.v.m.i.S.z.m.k.A.V.A.A.A.A.A.A.A.A.A.A.A.E.5 ; t 2.w !.w.h h w.8.q.V.A.A.A.A.A.A.A.A.A.A.A.A.A.A.A.A.A.e.e.}.",
"A.A.A.A.A.A.A.A.V.i.l.l.S.S.b.v.k.A.V.A.A.A.A.A.Y.M m L.L.I.v ; ; 0 e # x L.M n d V.H.A.A.A.A.A.A.A.A.A.A.A.A.A.A.A.A.A.A.e.e.}.",
"A.A.A.A.A.A.A.A.A.S.i.i.A.u.c.m.k.A.V.A.A.A.A.F.$.1 N B B C 2 % O $ t D B < > +.C.A.A.A.A.A.A.A.A.A.A.A.A.A.A.A.A.A.A.A.A.e.e.}.",
"A.A.A.A.A.A.A.A.A.A.V.B.V.S.l.b.p.A.V.A.A.A.F.g Y ;.;.;.;.1.| .   7 Q H Z Z F B +.F.A.D.A.A.A.A.A.A.A.A.A.A.A.A.A.A.A.A.A.e.e.}.",
"A.A.A.A.A.A.A.A.A.A.A.A.A.S.i.i.S.A.A.A.A.Y.@.I %.OX'.'.`.,./ 2 4 U E R T T L C B +.Y.A.A.A.A.A.A.A.A.A.A.A.A.A.A.A.A.A.A.e.e.}.",
"A.A.A.A.A.A.A.A.A.A.A.A.A.A.V.V.A.A.A.A.A.L.1 ;.'.,.<.`.,.*.` ) ) ~ ! ! ~ ! J H F > #.A.A.A.A.A.A.A.A.A.A.A.A.A.A.A.A.A.A.e.e.}.",
"A.A.A.A.A.A.A.A.A.A.A.A.A.A.A.A.A.A.A.A.A.I.1 >.,.&.,.`.<.<.=.{ { ( W ! ~ W H H F < U.A.A.A.A.A.A.A.A.A.A.A.A.A.A.A.A.A.A.e.e.}.",
"A.A.A.A.A.A.A.A.A.A.A.A.A.A.A.A.A.A.A.A.U.$...-.} } ,.'.`.].:.{ } { ( ! ! ! T J G C o.).A.A.A.A.A.A.A.A.A.A.A.A.A.A.A.A.A.e.e.|.",
"A.B.A.A.A.A.A.A.A.A.A.A.A.A.A.A.A.A.A.A.:  .'.&.` X.:.<.,.<.=.{ { } { ( ! ! ~ T H J C > A.A.A.A.A.A.A.A.A.A.A.A.A.A.A.A.A.e.w.{.",
"i.A.A.A.A.A.A.A.A.A.A.A.A.A.A.A.A.A.A.A.>  .`.*.' } X.&.&.&.} { { } } { ( ! ~ T H H S 1 A.A.A.A.A.A.A.A.A.A.A.A.A.A.A.A.A.e.t. X",
"z.k.S.V.A.A.A.A.A.A.A.A.A.A.A.A.A.A.A.A.: Y =.X.{ { { ' ' ' { } } } } } [ ! ^ T H H V , A.A.A.A.A.A.A.A.A.A.A.A.A.A.A.A.A.a.j..X",
"c.z.S.V.A.A.A.A.A.A.A.A.A.A.A.A.A.A.A.A.* V _ [ } } } } } } } } } } } { ( ! ~ T H J V = A.A.A.A.A.A.A.A.A.A.A.A.A.A.A.V.A.7.N.XX",
"l.p.S.V.A.A.A.A.A.A.A.A.A.A.A.A.A.A.A.A.& S ) ~ ] } } } } } } } } } { ( ! ! ~ T H L N * A.A.A.A.A.A.A.A.A.A.A.A.A.A.A.A.A.a.j..X",
"S.V.A.A.A.A.A.A.A.A.A.A.A.A.A.A.A.A.A.A.I.+.G W ( ] ( [ } } } } } { ( ! ! ! T J G B O.E.A.A.A.A.A.A.A.A.A.A.A.A.A.A.A.A.A.e.e.}.",
"A.V.A.A.A.A.A.A.A.A.A.A.A.A.A.A.A.A.A.A.A.R.= J ~ ! W ( { { { { } ( W ! ~ W H H A = I.A.A.A.A.A.A.A.A.A.A.A.A.A.A.A.A.A.A.e.w.|.",
"A.A.A.A.A.A.A.A.A.A.A.A.A.A.A.A.A.A.A.A.A.I.* F ! ~ ! ! ~ ~ ~ ( ( ~ ! ! ~ ! J J A = m A.A.A.A.A.A.A.A.A.A.A.A.A.A.A.A.A.A.e.e.}.",
"A.A.A.A.A.A.A.A.A.A.A.A.A.A.A.A.A.A.A.A.A.Y.v > C ! ~ ~ ! ! W T T W ~ ~ W K K B < +.Y.A.A.A.A.A.A.A.A.A.A.A.A.A.A.A.A.A.A.e.e.}.",
"A.A.A.A.A.A.A.A.A.A.A.A.A.A.A.A.A.A.A.A.A.A.F.c > G T ! ! ! J S S J ! ! K G F < c F.A.A.A.A.A.A.A.A.A.A.A.A.A.A.A.A.A.A.A.e.e.}.",
"A.A.A.A.A.A.A.A.A.A.A.A.A.A.A.A.A.A.A.A.A.A.A.G.x : G T K T B = = B T K K A - b F.A.A.A.A.A.A.A.A.A.A.A.A.A.A.A.A.A.A.A.A.e.e.}.",
"A.A.A.A.A.A.A.A.A.A.A.A.A.A.A.A.A.A.A.A.A.A.A.A.J.b < > > > | R.R.i > 1 N P v J.A.A.D.A.A.A.A.A.A.A.A.A.A.A.A.A.A.A.A.A.A.e.e.}.",
"A.A.A.A.A.A.A.A.A.A.A.A.A.A.A.A.A.A.0.9.q.A.A.A.A.F.x 3 9 8 R.A.A.R.3 - & u G.A.A.A.A.A.A.A.A.A.A.A.A.A.A.A.A.A.A.A.A.A.A.e.e.}.",
"A.A.A.A.A.A.A.A.A.A.A.A.A.A.A.A.D.A.k a 9.A.D.A.A.A.A.A.A.A.A.A.A.A.A.A.A.A.A.A.A.A.A.A.A.A.A.A.A.A.A.A.A.A.A.A.A.A.A.A.A.e.e.}.",
"A.A.A.A.A.A.A.A.A.A.A.A.A.A.A.A.q.9.k k k 9.q.A.A.A.A.A.A.A.A.A.A.A.A.A.A.A.A.A.A.A.A.A.A.A.A.A.A.A.A.A.A.A.A.A.A.A.A.A.A.e.e.}.",
"A.A.A.A.A.A.A.A.A.A.A.A.A.A.A.q.k a 9.V.8.a 8.A.A.A.A.A.A.A.A.A.A.A.A.A.A.A.A.A.A.A.A.A.A.A.A.A.A.A.A.A.A.A.A.A.A.A.A.A.A.e.e.}.",
"A.A.A.A.A.A.A.A.A.A.A.A.A.A.A.q.8.k 9.q.k k 9.A.A.A.A.A.A.A.A.A.A.A.A.A.A.A.A.A.A.A.A.A.A.A.A.A.A.A.A.A.A.A.A.A.A.A.A.A.A.e.e.}.",
"A.A.A.A.A.A.A.A.A.A.A.A.A.A.A.A.A.q.k s k q.A.A.A.A.A.A.A.A.A.A.A.A.A.A.A.A.A.A.A.A.A.A.A.A.A.A.A.A.V.A.A.A.A.A.A.A.A.A.A.e.e.}.",
"A.A.A.A.A.A.A.A.A.A.A.A.A.A.A.A.D.A.8.k 0.A.D.A.A.A.A.A.A.A.A.A.A.A.A.A.A.A.A.A.A.A.A.A.A.A.A.A.A.i.i.S.A.A.A.A.A.A.A.A.A.e.e.}.",
"A.A.A.A.A.A.A.A.A.A.A.A.A.A.A.A.A.A.q.q.q.A.A.A.A.A.A.A.A.A.A.A.A.A.A.A.A.A.A.A.A.A.A.A.A.V.V.V.S.k.b.k.A.V.A.A.A.A.A.A.A.e.e.}.",
"A.A.A.A.A.A.A.A.A.A.A.A.A.A.A.A.A.A.A.A.A.A.A.A.A.A.A.A.A.A.A.A.A.A.A.A.A.A.A.A.A.A.A.A.A.i.i.A.S.z.^.l.A.V.A.A.A.A.A.A.A.e.e.}.",
"A.A.A.A.A.A.A.A.A.A.A.A.A.A.A.A.A.A.A.A.A.A.A.A.A.A.A.A.A.A.A.A.A.A.A.A.A.A.A.A.A.A.A.V.S.l.z.i.A.l.m.l.A.V.A.A.A.A.A.A.A.e.e.}.",
"A.A.A.A.A.A.A.A.A.A.A.A.A.A.A.A.A.A.A.A.A.A.A.A.A.A.A.A.A.A.A.A.A.A.A.A.A.A.A.A.A.A.A.V.u.c.m.s.A.l.m.l.A.V.A.A.A.A.A.A.A.e.e.}.",
"A.A.A.A.A.A.A.A.A.A.A.A.A.A.A.A.A.A.A.A.A.A.A.A.A.A.A.A.A.A.A.A.A.A.A.A.A.A.A.A.A.A.A.V.u.b.m.p.A.z.^.l.A.V.A.A.A.A.A.A.A.e.e.}.",
"A.A.A.A.A.A.A.A.A.A.A.A.A.A.A.A.A.A.A.A.A.A.A.A.A.A.A.A.A.A.A.A.A.A.A.A.A.A.A.A.A.A.A.V.u.b.v.s.A.s.z.k.A.V.A.A.A.A.A.A.A.e.e.}.",
"A.A.A.A.A.A.A.A.A.A.A.A.A.A.A.A.A.A.A.A.A.A.A.A.A.A.A.A.A.A.A.A.A.A.A.A.A.A.A.A.A.A.A.V.i.c.m.k.A.S.i.S.A.A.A.A.A.A.A.A.A.e.e.}.",
"A.A.A.A.A.A.A.A.A.A.A.A.A.A.A.A.A.A.A.A.A.A.A.A.A.A.A.A.A.A.A.A.A.A.A.A.A.A.A.A.A.A.A.V.S.l.b.s.A.V.V.A.A.A.A.A.A.A.A.A.A.e.e.}.",
"A.A.A.A.A.A.A.A.A.A.A.A.A.A.A.A.A.A.A.A.A.A.A.A.A.V.V.A.A.A.A.A.A.A.A.A.A.A.A.A.A.A.A.A.S.i.p.u.A.V.A.A.A.A.A.A.A.A.A.A.A.e.e.}.",
"A.A.A.A.A.A.A.A.A.A.A.A.A.A.A.A.A.A.A.A.A.A.A.A.S.S.S.A.A.A.A.A.A.A.A.A.A.A.A.A.A.A.A.A.A.A.V.A.A.A.A.A.A.A.A.A.A.A.A.A.A.e.e.}.",
"A.A.A.A.A.A.A.A.A.A.A.A.A.A.A.A.A.A.A.A.A.A.V.V.p.z.k.A.V.A.A.A.A.A.A.A.A.A.A.A.A.A.A.A.A.A.V.A.A.A.A.A.A.A.A.A.A.A.A.A.A.e.e.}.",
"A.A.A.A.A.A.A.A.A.A.A.A.A.A.A.A.A.A.A.A.A.A.A.S.l.v.z.D.A.A.A.A.A.A.A.A.A.A.A.A.A.A.A.A.A.A.A.A.A.A.A.A.A.A.A.A.A.A.A.A.A.e.e.}.",
"A.A.A.A.A.A.A.A.A.A.A.A.A.A.A.A.A.A.A.A.V.A.s.z.l.p.k.z.k.S.V.A.A.A.A.A.A.A.A.A.A.A.A.A.A.A.A.A.A.A.A.A.A.A.A.A.A.A.A.A.A.e.e.}.",
"A.A.A.A.A.A.A.A.A.A.A.A.A.A.A.A.A.A.A.A.V.A.l.c.k.A.p.c.z.S.V.A.A.A.A.A.A.A.A.A.A.A.A.A.A.A.A.A.A.A.A.A.A.A.A.A.A.A.A.A.A.e.e.|.",
"5.5.5.Z.Z.Z.Z.Z.Z.Z.Z.Z.Z.Z.Z.Z.Z.Z.Z.Z.5.5.r.g.f.f.f.g.r.Z.5.Z.Z.5.5.5.5.5.5.Z.Z.Z.5.5.5.5.Z.Z.Z.Z.Z.5.5.5.5.5.5.5.5.Z.Z.4.3.{.",
"S.S.S.S.S.S.S.S.S.S.S.S.S.S.S.S.S.S.S.S.S.S.V.S.l.v.b.S.V.S.S.S.S.S.S.S.S.S.S.S.S.S.S.S.S.S.S.S.S.S.S.S.S.S.S.S.S.S.S.S.S.t.t. X"
};
