/* XPM */
static char *_2108171f1bc4e218de95fdf9d932d5esN9ZbBoH2jRUxvWt[] = {
/* columns rows colors chars-per-pixel */
"32 32 150 2 ",
"   c #1E2733",
".  c #283B3E",
"X  c #264339",
"o  c #2C493D",
"O  c #2D543F",
"+  c #527B3F",
"@  c #252E41",
"#  c #2A374A",
"$  c #263250",
"%  c #2A3F55",
"&  c #313653",
"*  c #2B4345",
"=  c #2F4C4E",
"-  c #2E5341",
";  c #345342",
":  c #385444",
">  c #325C43",
",  c #3B5A48",
"<  c #2F4D50",
"1  c #364F5A",
"2  c #3F6B42",
"3  c #346A4B",
"4  c #3A6E4C",
"5  c #3D754E",
"6  c #3E7650",
"7  c #3F7952",
"8  c #3B4161",
"9  c #374B6E",
"0  c #3F4F6E",
"q  c #365A68",
"w  c #3E5574",
"e  c #3F5B7B",
"r  c #3D6462",
"t  c #407750",
"y  c #427C53",
"u  c #497E50",
"i  c #444C64",
"p  c #41486A",
"a  c #495A6E",
"s  c #435978",
"d  c #485978",
"f  c #4A6A60",
"g  c #4C606F",
"h  c #4C6476",
"j  c #4E6B7C",
"k  c #4D7B72",
"l  c #5C8E4D",
"z  c #4D8756",
"x  c #46845A",
"c  c #48875A",
"v  c #498A5D",
"b  c #45945F",
"n  c #4D925E",
"m  c #5C9454",
"M  c #54975E",
"N  c #5B9B5E",
"B  c #629F5C",
"V  c #58A05A",
"C  c #65A957",
"Z  c #64A15C",
"A  c #6BA659",
"S  c #6EA858",
"D  c #74AA55",
"F  c #79AE55",
"G  c #71AA58",
"H  c #7DB154",
"J  c #7DB658",
"K  c #468D64",
"L  c #498F63",
"P  c #428C68",
"I  c #439262",
"U  c #4D9262",
"Y  c #519561",
"T  c #569860",
"R  c #529B68",
"E  c #4A8F72",
"W  c #439270",
"Q  c #4F9270",
"!  c #529773",
"~  c #629F6B",
"^  c #72AA66",
"/  c #81B756",
"(  c #8ABA50",
")  c #395B81",
"_  c #3C6887",
"`  c #3D7D99",
"'  c #476584",
"]  c #446B88",
"[  c #4B6D8B",
"{  c #506C85",
"}  c #4F7382",
"|  c #4C718C",
" . c #507782",
".. c #5A7E83",
"X. c #527C8F",
"o. c #5B7C88",
"O. c #447790",
"+. c #487C94",
"@. c #497F9B",
"#. c #63798F",
"$. c #727C82",
"%. c #5D8381",
"&. c #5A938B",
"*. c #4D849E",
"=. c #578C9C",
"-. c #70808C",
";. c #60829A",
":. c #70879C",
">. c #659295",
",. c #6A9F98",
"<. c #7CB39B",
"1. c #4585A0",
"2. c #4F8DA5",
"3. c #448FAB",
"4. c #4B8DA9",
"5. c #5694A5",
"6. c #5698A5",
"7. c #5E9FA2",
"8. c #4D9BB0",
"9. c #5EA3A7",
"0. c #5DA7AD",
"q. c #57ABB8",
"w. c #59B3BF",
"e. c #66ACA8",
"r. c #6BAFA9",
"t. c #75BBAB",
"y. c #65A4B3",
"u. c #65B7B5",
"i. c #6FB9B1",
"p. c #64BABB",
"a. c #7BCFBB",
"s. c #48A7C1",
"d. c #5EBAC8",
"f. c #67C7C7",
"g. c #63C7CC",
"h. c #838A8C",
"j. c #959A95",
"k. c #8297A7",
"l. c #949EA1",
"z. c #89A2AF",
"x. c #A1A8A1",
"c. c #B1B6AA",
"v. c #A3B4BA",
"b. c #84CAAC",
"n. c #A3BBC1",
"m. c #B3C3C3",
"M. c #C9D9D6",
"N. c #C2E1D7",
"B. c #D5E3DB",
"V. c #F2FBE8",
/* pixels */
"U U U U U U U U U U U U U U U U U U U U R c x R U U U U U U U ! ",
"U U U U U U U U U U U U U U U U U U U U x y x y U U U U U U n Q ",
"U U U U U U U U U U U U U U U U U U U U U y y U U U U U U U n Q ",
"U U U U U U U U U U U U U U U U U U U U U v v U U U U U U U n Q ",
"U U U U U U U U U U U U U U U U L U U U U U U U U U U U U U n Q ",
"U U U U U U U U U U U U U U U L Z N K U U U U U U U U U U U n Q ",
"U U U U U L U U U U U U U U U K S H N U U L U U U U U U U U n Q ",
"U U U U U A Y U U U U U U U U K A ( Z P N B L U U U U U U U n Q ",
"U U U U U H Y K U U U U U U U U T J m x / G K U U U U U U U n Q ",
"U U U U U F Y Z Y U U U U U U U I z l H D z U U U U U U U U n Q ",
"U U U U U H Y H T L U U c 5 5 6 7 3 2 + u x U U U U U U U U n Q ",
"U U U U U Z U H M U U c o = = .   * < * O U U U U U U U U U n Q ",
"U U U U U L U Z Y U c - &.p.7.g 8  .0.u.k > U U U U U U U U n Q ",
"U U U U U U U L U x : %.f.w.X.{ *.=.5.d.i.f > L U U U U U U n Q ",
"L U U U U U U U U ; j.N.y._ e 4.g.a.,.+.5.r.r 4 U U U U U U n Q ",
"N U U U U U U U U X l.M.:.w ' 1.9.b.<.h ) 2.q > U U U U U U n ~ ",
"S U U U U U U U U X -.n.#.9 e } %...j i h | $ > U U U U U U M ^ ",
"K U U U U U U U U O $.B.v.' O.e.t.6.) s >.o.@ 4 U U U U U U n E ",
"U U U U U U U U U x , c.V.z.` w.g.q.] | =.1 > U U U U U U U n Q ",
"U U U U U U U U U U c ; x.m.;.3.s.@.d s % > U U U U U U U U n Q ",
"U U U U U U U U U v U c ; h.k.2.8.[ p # > U U U U U U U U U n Q ",
"U U U U U U U U L t x U c ; a [ | 0 @ > U U U U U U U U U U n Q ",
"U U U U U U U U t v t c U c X & 8 @ > U U U U U U U U U U U n Q ",
"U U U U U U U U U t c U U U c X   > U U U U U U U Y U U U U n Q ",
"U U U U U U U U U U U U U U U c t L U U U U U U N D K U U U n Q ",
"U U U U U U U U U U U U U U U U U U U U U L Z S N D K U U U n Q ",
"U U U U U U U U U U U U U U U U U U U U U L Z S N D L U U U n Q ",
"U U U U U U U U U U U U U U U U U U U U U L Z G L U U U U U n Q ",
"U U U U U U U U U U U U U U U U U U U U U U U U U U U U U U n Q ",
"U U U U U U U U U U U K G N L U U U U U U U U U U U U U U U n Q ",
"U U U U U U U U U U L G N S N L U U U U U U U U U U U U U U n Q ",
"I I I I I I I I I I I b C V I I I I I I I I I I I I I I I I b W "
};
