/* XPM */
static char *_95de47385794be7b28b6d729e0090a1Y5ch5rSOKHDlGifT[] = {
/* columns rows colors chars-per-pixel */
"32 32 77 1 ",
"  c #3A7554",
". c #407750",
"X c #417852",
"o c #427C53",
"O c #437D54",
"+ c #447F56",
"@ c #5C8E4D",
"# c #4B8252",
"$ c #4F8753",
"% c #4D8756",
"& c #468358",
"* c #47865B",
"= c #41835D",
"- c #42845D",
"; c #46875D",
": c #47885E",
"> c #4E8A58",
", c #498A5C",
"< c #4A8C5E",
"1 c #44935F",
"2 c #46945F",
"3 c #4B915F",
"4 c #4D925E",
"5 c #5C9454",
"6 c #52965D",
"7 c #5A9B5E",
"8 c #5C9B5E",
"9 c #5C9C5D",
"0 c #63944D",
"q c #629F5C",
"w c #58A05A",
"e c #65A957",
"r c #64A25B",
"t c #63A15C",
"y c #64A15C",
"u c #66A45C",
"i c #68A35A",
"p c #6BA559",
"a c #6DA758",
"s c #6EA858",
"d c #76A850",
"f c #73AB57",
"g c #79AE55",
"h c #71A958",
"j c #72AC59",
"k c #7EB253",
"l c #7CB155",
"z c #7DB658",
"x c #478E64",
"c c #488E63",
"v c #4C8F60",
"b c #488F64",
"n c #428C68",
"m c #419161",
"M c #449262",
"N c #469463",
"B c #4B9162",
"V c #4D9262",
"C c #4D9463",
"Z c #489066",
"A c #4C9365",
"S c #4F9665",
"D c #509462",
"F c #549660",
"G c #509765",
"H c #569860",
"J c #529A68",
"K c #519C68",
"L c #4A8F72",
"P c #439270",
"I c #4B9071",
"U c #4F9270",
"Y c #529773",
"T c #629F6B",
"R c #72AA66",
"E c #81B756",
"W c #8ABA50",
/* pixels */
"SSSSSSSSSSSSSSSSSSSSJ,&KSSSSSSCY",
"VVVVVVVVVVVVVVVVVVVS&+*OSVVVVV4U",
"VVVVVVVVVVVVVVVVVVVVV+ocVVVVVV4U",
"VVVVVVVVVVVVVVVVVVVVV<,SVVVVVV4U",
"VVVVVVVVVVVVVVVVcBVVVVVVVVVVVV4U",
"VVVVVVVVVVVVVVVby7xVVVVVVVVVVV4U",
"VVVVVbVVVVVVVVVxal7BBcVVVVVVVV4U",
"VVVVViDVVVVVVVVxpWun7qcVVVVVVV4U",
"VVVVVlDxBVVVVVVBFz5&EjxVVVVVVV4U",
"VVVVVgDyDVVVVVVVZ>@kd%AVVVVVVV4U",
"VVVVVkDlHBVVVVVVC=$0#-CVVVVVVV4U",
"VVVVVtVlHBVVVVVVVG: ;GVVVVVVVV4U",
"VVVVVcVrDVVVVVVVVVCSCVVVVVVVVV4U",
"VVVVVVVcVVVVVVVVVVVVVVVVVVVVVV4U",
"bVVVVVVVVVVVVVVVVVVVVVVVVVVVVV4I",
"9VVVVVVVVVVVVVVVVVVVVVVVVVVVVV4T",
"sVVVVVVVVVVVVVVVVVVVVVVVVVVVVV6R",
"xVVVVVVVVVVVVVVVVVVVVVVVVVVVVV3L",
"VVVVVVVVVVVVVVVVVVVVVVVVVVVVVV4U",
"VVVVVVVVVVVVVVVVVVVVVVVVVVVVVV4U",
"VVVVVVVVV<VVVVVVVVVVVVVVVVVVVV4U",
"VVVVVVVVvX*VVVVVVVVVVVVVVVVVVV4U",
"VVVVVVVC.<X,VVVVVVVVVVVVVVVVVV4U",
"VVVVVVVVS.,VVVVVVVVVVVVBVDVVVV4U",
"VVVVVVVVVVVVVVVVVVVVVVVV9fxVVV4U",
"VVVVVVVVVVVVVVVVVVVVVbta7fxVVV4U",
"VVVVVVVVVVVVVVVVVVVVVbta7fbVVV4U",
"VVVVVVVVVVVVVVVVVVVVVcthbVVVVV4U",
"VVVVVVVVVVVVBVVVVVVVVVVCVVVVVV4U",
"VVVVVVVVVVVxh8cVVVVVVVVVVVVVVV4U",
"VVVVVVVVVVch7s9cVVVVVVVVVVVVVV4U",
"mMMMMMMMMNm2ewMMmmmmMmmMMmmmmM1P"
};
