/* XPM */
static char *caa5d5c51e7341a2cf2b2fd0643bdb36YdZcfzbNfuH5ivTz[] = {
/* columns rows colors chars-per-pixel */
"64 64 193 2 ",
"   c #020201",
".  c #0B0603",
"X  c #050A07",
"o  c #0E0804",
"O  c #060C08",
"+  c #080F09",
"@  c #130B05",
"#  c #190D06",
"$  c #180F08",
"%  c #0A140D",
"&  c #17100B",
"*  c #1D120A",
"=  c #111B0E",
"-  c #0D1710",
";  c #0E1B12",
":  c #111F14",
">  c #210F04",
",  c #251306",
"<  c #24160C",
"1  c #29170B",
"2  c #26190F",
"3  c #2C1A0D",
"4  c #331C0D",
"5  c #3A1F0D",
"6  c #271B10",
"7  c #2D1D11",
"8  c #311E10",
"9  c #122115",
"0  c #1E2C16",
"q  c #142519",
"w  c #162B1D",
"e  c #192818",
"r  c #3C210E",
"t  c #362111",
"y  c #3B2312",
"u  c #193020",
"i  c #223F2B",
"p  c #432611",
"a  c #442814",
"s  c #4B2A14",
"d  c #462F1E",
"f  c #542E13",
"g  c #4B301B",
"h  c #563016",
"j  c #5B3317",
"k  c #53331B",
"l  c #5E3518",
"z  c #623719",
"x  c #65391A",
"c  c #6A3B1B",
"v  c #503A29",
"b  c #663F21",
"n  c #6A3F21",
"m  c #25452E",
"M  c #2C482A",
"N  c #3C5A2F",
"B  c #274730",
"V  c #274A31",
"C  c #294D34",
"Z  c #2C5237",
"A  c #2F583B",
"S  c #315C3D",
"D  c #5E412A",
"F  c #674022",
"G  c #6D4223",
"H  c #66442C",
"J  c #6D482D",
"K  c #724423",
"L  c #7A4D2B",
"P  c #694A31",
"I  c #754F31",
"U  c #7D5334",
"Y  c #7E583A",
"T  c #325F40",
"R  c #356544",
"E  c #376846",
"W  c #386A46",
"Q  c #366B4B",
"!  c #396D49",
"~  c #3D744E",
"^  c #367154",
"/  c #3D7651",
"(  c #3F7953",
")  c #497949",
"_  c #547F43",
"`  c #457B51",
"'  c #427C53",
"]  c #824F29",
"[  c #8A542C",
"{  c #835432",
"}  c #845938",
"|  c #8B5D39",
" . c #955C32",
".. c #9A5D31",
"X. c #A05F30",
"o. c #8E603D",
"O. c #9E6032",
"+. c #97643D",
"@. c #A26233",
"#. c #A96635",
"$. c #A3683D",
"%. c #AE6D3C",
"&. c #B56C36",
"*. c #B26D39",
"=. c #B7703B",
"-. c #BA713B",
";. c #C4773E",
":. c #C6793F",
">. c #C97A3F",
",. c #976641",
"<. c #9B6842",
"1. c #A56E44",
"2. c #AB6E41",
"3. c #AB7146",
"4. c #B77441",
"5. c #BA7440",
"6. c #BB7846",
"7. c #C07740",
"8. c #C57942",
"9. c #C97B42",
"0. c #D27F43",
"q. c #3B914E",
"w. c #3E9354",
"e. c #3E9261",
"r. c #588749",
"t. c #5E974F",
"y. c #448157",
"u. c #478952",
"i. c #46845A",
"p. c #48875B",
"a. c #47895E",
"s. c #4A8B5D",
"d. c #4B9154",
"f. c #4B9A5D",
"g. c #509253",
"h. c #5C9454",
"j. c #589A52",
"k. c #54965F",
"l. c #549B5D",
"z. c #5C9C5D",
"x. c #679548",
"c. c #659B53",
"v. c #609F5D",
"b. c #56A25A",
"n. c #59A458",
"m. c #66A34A",
"M. c #74AD45",
"N. c #6FA857",
"B. c #63A15C",
"V. c #6AA55A",
"C. c #6EA859",
"Z. c #72A957",
"A. c #75AC55",
"S. c #7AAE54",
"D. c #7CB255",
"F. c #7AB258",
"G. c #468D64",
"H. c #498F62",
"J. c #429463",
"K. c #4D9262",
"L. c #529362",
"P. c #529965",
"I. c #5B9D61",
"U. c #549F6B",
"Y. c #54A06B",
"T. c #56A46E",
"R. c #58A770",
"E. c #82B654",
"W. c #83B956",
"Q. c #88BA52",
"!. c #C7814D",
"~. c #D68244",
"^. c #DB8445",
"/. c #DB8648",
"(. c #DC884A",
"). c #E08746",
"_. c #E38946",
"`. c #E88A47",
"'. c #E58A49",
"]. c #EB8D4A",
"[. c #EF904B",
"{. c #F4944D",
"}. c #F9964E",
"|. c #FC994F",
" X c #FD9C51",
".X c #FFA355",
"XX c #8AC056",
"oX c #4A9399",
"OX c #549595",
"+X c #599794",
"@X c #6BA58F",
"#X c #78AD8B",
"$X c #5CA3A3",
/* pixels */
"Y.Y.Y.Y.Y.Y.Y.Y.Y.Y.Y.Y.Y.Y.Y.Y.Y.Y.Y.Y.Y.Y.Y.Y.Y.Y.Y.Y.Y.Y.Y.Y.Y.Y.Y.Y.Y.Y.Y.U.T.R.U.H.s.P.T.T.U.U.Y.Y.Y.Y.Y.Y.Y.Y.Y.Y.Y.l.l.$X",
"K.K.K.K.K.K.K.K.K.K.K.K.K.K.K.K.K.K.K.K.K.K.K.K.K.K.K.K.K.K.K.K.K.K.K.K.K.K.K.K.K.K.s.' ~ i.K.K.K.K.K.K.K.K.K.K.K.K.K.K.K.d.d.OX",
"K.K.K.K.K.K.K.K.K.K.K.K.K.K.K.K.K.K.K.K.K.K.K.K.K.K.K.K.K.K.K.K.K.K.K.K.K.K.K.K.s.i.' i.p.' ' s.K.K.K.K.K.K.K.K.K.K.K.K.K.d.d.OX",
"K.K.K.K.K.K.K.K.K.K.K.K.K.K.K.K.K.K.K.K.K.K.K.K.K.K.K.K.K.K.K.K.K.K.K.K.K.K.K.K.s.' ` s.H.' ~ i.K.K.K.K.K.K.K.K.K.K.K.K.K.d.d.OX",
"K.K.K.K.K.K.K.K.K.K.K.K.K.K.K.K.K.K.K.K.K.K.K.K.K.K.K.K.K.K.K.K.K.K.K.K.K.K.K.K.s.p.' y.y.' i.s.K.K.K.K.K.K.K.K.K.K.K.K.K.d.d.OX",
"K.K.K.K.K.K.K.K.K.K.K.K.K.K.K.K.K.K.K.K.K.K.K.K.K.K.K.K.K.K.K.K.K.K.K.K.K.K.K.K.K.K.s.' ~ p.K.K.K.K.K.K.K.K.K.K.K.K.K.K.K.d.d.OX",
"K.K.K.K.K.K.K.K.K.K.K.K.K.K.K.K.K.K.K.K.K.K.K.K.K.K.K.K.K.K.K.K.K.K.K.K.K.K.K.K.K.P.K.p.y.s.P.K.K.K.K.K.K.K.K.K.K.K.K.K.K.d.d.OX",
"K.K.K.K.K.K.K.K.K.K.K.K.K.K.K.K.K.K.K.K.K.K.K.K.K.K.K.K.K.K.K.K.K.K.K.K.K.K.K.K.K.K.K.K.K.K.K.K.K.K.K.K.K.K.K.K.K.K.K.K.K.d.d.OX",
"K.K.K.K.K.K.K.K.K.K.K.K.K.K.K.K.K.K.K.K.K.K.K.K.K.K.K.K.K.K.K.K.K.H.K.K.K.K.K.K.K.K.K.K.K.K.K.K.K.K.K.K.K.K.K.K.K.K.K.K.K.d.d.OX",
"K.K.K.K.K.K.K.K.K.K.K.K.K.K.K.K.K.K.K.K.K.K.K.K.K.K.K.K.K.K.K.K.K.K.K.K.K.K.K.K.K.K.K.K.K.K.K.K.K.K.K.K.K.K.K.K.K.K.K.K.K.d.d.OX",
"K.K.K.K.K.K.K.K.K.K.K.K.K.K.K.K.K.K.K.K.K.K.K.K.K.K.K.K.K.K.K.K.P.v.l.K.G.K.K.K.K.K.K.K.K.K.K.K.K.K.K.K.K.K.K.K.K.K.K.K.K.d.d.OX",
"K.K.K.K.K.K.K.K.K.K.K.K.K.K.K.K.K.K.K.K.K.K.K.K.K.K.K.K.K.K.K.K.z.A.C.L.G.K.K.K.K.K.K.K.K.K.K.K.K.K.K.K.K.K.K.K.K.K.K.K.K.d.d.OX",
"K.K.K.K.K.K.K.K.K.K.K.K.K.K.K.K.K.K.K./ m % 9 q q 9 % m / K.H.H.B.D.D.V.k.L.K.K.K.K.K.K.K.K.K.K.K.K.K.K.K.K.K.K.K.K.K.K.K.d.d.OX",
"K.K.K.K.K.K.K.K.K.K.K.K.K.K.K.K.K.K.K.! %   o @ @ .   % E K.H.H.z.A.E.D.V.k.H.K.K.K.K.K.K.K.K.K.K.K.K.K.K.K.K.K.K.K.K.K.K.d.d.OX",
"K.K.K.K.H.K.K.K.K.L.z.z.L.K.K.K.K.K.K.' q o 3 p r , . 9 ! K.H.H.z.A.Q.Q.A.I.G.G.K.l.z.L.K.K.K.K.K.K.K.K.K.K.K.K.K.K.K.K.K.d.d.OX",
"K.K.K.K.K.H.' E Q ) _ _ ) Q Q ! ! ~ ' Z ; . 5 c K k * q ~ K.H.G.z.A.Q.E.C.I.G.G.L.V.Z.z.K.K.K.K.K.K.K.K.K.K.K.K.K.K.K.K.K.d.d.OX",
"K.K.K.K.K.p.m % ; q 0 0 e q q q q q w ; X   > x { H < w ' K.K.H.k.B.D.W.N.s.i.s.V.E.D.B.G.H.K.K.K.K.K.K.K.K.K.K.K.K.K.K.K.d.d.OX",
"K.K.K.K.p.V X   & 6 < 2 8 y t y y a a y 8 a l [ <.P * ; C p.K.K.K.K.V.W.N.` / h.D.Q.F.B.H.H.K.K.K.K.K.K.K.K.K.K.K.K.K.K.K.d.d.OX",
"K.K.K.K.m X   . d I H I  .#.@.#.&.;.;.&.#.@.&.*.1.v X   X C s.K.H.G.k.c.x.r.h.S.W.A.h.k.K.K.K.K.K.K.K.K.K.K.K.K.K.K.K.K.K.d.d.OX",
"K.K.K.K.%   . d U 1.,.3.(. X X'.;.#.#.;.'.|.}./.6.U k @   X m s.K.K.p.' r.c.E.XXS.r.' p.K.K.K.K.K.K.K.K.K.K.K.K.K.K.K.K.K.d.d.OX",
"K.K.K.K.: & d U | o.Y +.9.{. X*.k . . k *. X].^.9.7.;.G o   X C s.K.i.^ ` c.S.A.h.` ^ i.K.K.K.K.K.K.K.K.K.K.K.K.K.K.K.K.K.d.d.OX",
"K.K.K.K.q 6 I 3.o.} | %.9.].{.#.s     s #.{.^.~.^.{..X9.G o   X m s.H.a.p.u.) ) ` y.a.H.K.K.K.K.K.K.K.K.K.K.K.K.K.K.K.K.K.d.d.OX",
"K.K.K.K.q 2 J <.Y | %.0.~.^.).:.#.[ [ #.:.).^.~.~.).].^.9.b o   X C s.P.H.( Q Q ( H.P.K.K.K.K.K.K.K.K.K.K.K.K.K.K.K.K.K.K.d.d.OX",
"K.K.K.K.q < H <.+.*.~.`.^.~.~.^.].}.}.].^.~.~.~.~.~.~.]. X9.G o   O C y.~ E R R E ! ~ ! E ( H.K.K.K.K.K.K.K.K.K.K.K.K.K.K.d.d.OX",
"K.K.K.K.q * D 1.4.0.~.^.~.~.~.^.^.'.'.^.^.~.~.~.~.~.~.^.].^.9.n @   ; w q q q q q q q : % B p.K.K.H.K.K.K.K.K.K.K.K.K.K.K.d.d.OX",
"K.K.K.K.q * D 6./.{.`.).).).).).).).'.^.^.~.~.~.~.~.~.~.~.]. X:.b * 3 t t t t t t y y 1   O V p.H.K.K.K.K.K.K.K.K.K.K.K.K.d.d.OX",
"K.K.K.K.q < H !.]. X}.{.{.{.{.{.{.{.}.].^.0.~.~.~.~.~.~.~.^.].~.*.....@.@.@.@.@.@.#.-.K @   O m ' K.K.K.K.K.K.K.K.K.K.K.K.d.d.OX",
"K.K.K.K.: & d {  .#.@.@.@.@.@.@.@.O...*.~.'.^.~.~.~.~.~.~.~.~.^.].}.{.{.{.}.}.{.{. X.X:.G o   % E K.K.K.K.K.K.K.K.K.K.K.K.d.d.OX",
"K.K.K.K.% X & 7 8 y t t t t t t t 3 * F :. X'.0.~.~.~.~.~.~.~.^.^.'.).'.].].].].'.'.].~.:.K 1 : ! K.K.K.K.K.K.K.K.K.K.K.K.d.d.OX",
"K.G.K.K.m % : q q q q q q q q q w ;   @ G >.~.^.^.~.~.~.~.~.~.~.~.~.~.0.8.5.5.8.0.~.~.]..X-.y q ! K.K.K.K.K.K.K.K.K.K.K.K.d.u.oX",
"l.K.K.K.~ E ! ! ! ! ! ! ! ! ! ~ ' C X   @ F *.].^.~.~.~.~.~.~.~.~.^.).8.$.} } $.8.).~.'. X#.y q ! K.K.K.K.K.K.K.K.K.K.K.K.d.g.+X",
"C.B.L.H.K.K.K.K.K.K.K.K.K.K.K.K.K.p.V X   * ..}.'.~.~.~.~.~.~.~.~.^._.9.$.} } $.9._.^.'.{.@.t q ! K.K.K.K.K.K.K.K.K.K.K.K.j.m.@X",
"A.C.L.G.K.K.K.K.K.K.K.K.K.K.K.K.K.K.p.C ; 3 ..{.).~.~.~.~.~.~.~.)._._.~.9.5.5.9.^._._.].{.@.t q ! K.K.K.K.K.K.K.K.K.K.H.K.t.M.#X",
"V.z.L.H.K.K.K.K.K.K.K.K.K.K.K.K.K.K.K.y.w y #. X'.~.~.~.~.~.~.0.8.5.5.9.~.`._.~.9.5.5.~.[.@.t q ~ K.K.K.K.K.K.K.K.K.K.K.K.j.m.@X",
"L.G.K.K.K.K.K.K.K.K.K.K.K.K.K.K.K.K.K.~ q y -..X].0.~.~.~.^.).8.$.} } $.9.`.`.9.$.} } 2.'.#.y w ' K.K.H.K.K.K.K.K.K.K.K.K.d.d.OX",
"K.G.K.K.K.K.K.K.K.K.K.K.K.K.K.K.K.K.K.! : 1 K :.0.^.^.~.~.^.).8.$.} } $.8._._.8.$.} } 2.'.#.4 ; C p.s.K.K.K.K.K.K.K.K.K.K.d.u.OX",
"K.K.K.K.K.K.K.K.K.K.K.K.K.K.K.K.K.K.K.E % . @ b *.].^.~.~.~.^.0.8.5.5.8.0.^.^.0.8.5.5.~.{...*   O m ' K.K.K.K.K.K.K.K.K.K.d.d.OX",
"K.K.K.K.K.K.K.K.K.K.K.K.K.K.K.K.K.K.K.( m O   * O. X'.~.~.~.^.'.].].].].'.^.~.~.^.)._.'.[.*.G $ . % ! K.K.K.K.K.K.K.K.K.K.d.d.OX",
"K.K.K.K.K.K.K.K.K.K.K.K.K.K.K.K.K.K.K.s.p.C ; 8 %. X'.~.0.^.].}.}.}.}.}.}.].^.~.~.^.^.^.^.~.~.] 1 q ' K.K.K.K.K.K.K.K.K.K.d.d.OX",
"K.K.K.K.K.K.K.K.K.K.K.K.K.K.K.K.K.K.K.K.K.p.w 1 ] ~.^.'.].0.*...O.@.@.O...*.0.].'.^.~.~.^.'.{...8 ; C p.K.K.K.K.K.K.K.K.K.d.d.OX",
"K.K.K.K.K.K.K.K.K.K.K.K.K.K.K.K.K.K.K.K.K.p.w @ a ..0. X.X;.b * 7 t t 3 * b ;..X X].^.^.{.~.#.s @   O m K.K.K.K.K.K.K.K.K.d.d.OX",
"K.K.K.K.K.K.K.K.K.K.K.K.K.K.K.K.K.K.p.' ' C ;   # x ..>.;.G @     O 9 :   @ K =.@.&.~.'.0. .l , * .   % K.K.K.K.K.K.K.K.K.d.d.OX",
"K.K.K.K.K.K.K.K.K.K.K.K.K.K.K.K.P.K.' R i O   . 3 z K n g *       9 R S % . 1 t < G ~.{.X.h s p p 1 o : K.K.K.K.K.K.K.K.K.d.d.OX",
"K.K.K.K.K.K.K.K.K.K.K.K.K.K.K.K.s.i.' S %   . 1 p h f ,           u s.K.A %       $ L @.l 4 a h x s # q K.K.K.K.K.K.K.K.K.d.d.OX",
"K.K.K.K.K.K.K.K.K.K.K.K.K.K.K.s.' ~ p.W ; o 1 s s h l r .         q / K.K.S 9       < a a s s h x s # q K.K.K.K.K.K.K.K.K.d.d.OX",
"K.K.K.K.K.K.K.K.K.K.K.K.K.K.K.s.y.' i.E 9 @ a x j s s 1 o         q ~ K.K.T 9           4 l h s s 1 o : K.K.K.K.K.K.K.K.K.d.d.OX",
"K.K.K.K.K.K.K.K.K.K.K.K.K.K.K.K.K.s.' A 9 @ r x x s 1             w ' s.Z % X         o r l h p 1 .   % K.K.K.K.K.K.K.K.K.d.d.OX",
"K.K.K.K.K.K.K.K.K.K.K.K.K.K.K.K.P.K.y.S 9 @ p l s 1   . : 9 X     q i.' %     X : 9 O @ y z z r .   + B K.K.K.K.K.K.K.K.K.d.d.OX",
"K.K.K.K.K.K.K.K.K.K.K.K.K.K.K.K.K.K.s.E q # s h 3     % S T %     : y.' -     % S R 9 @ p c c p @ : N h.K.H.K.K.K.K.K.K.K.d.d.OX",
"K.K.K.K.K.K.K.K.K.K.K.K.K.K.K.K.K.K.K.! 9 @ 5 4 .   X Z K.K.V O % m p.p.m + + C K.s.w o 3 a a 3 o 0 x.V.K.G.K.K.K.K.K.K.K.d.d.OX",
"K.K.K.K.K.K.K.K.K.K.K.K.K.K.K.K.K.K.K.E % . @ @   X B s.K.K.' E E ( H.s.( E E y.K.~ ;   o # # o   = r.V.K.G.K.K.K.K.K.K.K.d.d.OX",
"K.K.K.K.K.K.K.K.K.K.K.K.K.K.K.K.K.K.K.~ m % : ; % m p.K.K.K.K.K.K.K.K.K.K.K.K.K.K.~ i % 9 0 0 9 % M x.V.K.G.K.K.K.K.K.K.K.d.d.OX",
"K.K.K.K.K.K.K.K.K.K.K.K.K.K.K.K.K.K.K.K.K.K.K.K.K.K.K.K.K.K.K.K.K.K.K.K.K.K.K.K.K.K.K.G.k.Z.D.z.K.C.E.V.K.G.K.K.K.K.K.K.K.d.d.OX",
"K.K.K.K.K.K.K.K.K.K.K.K.K.K.K.K.K.K.K.K.K.K.K.K.K.K.K.K.K.K.K.K.K.K.K.K.K.K.K.K.K.K.K.G.k.Z.S.v.K.v.C.B.K.H.K.K.K.K.K.K.K.d.d.OX",
"K.K.K.K.K.K.K.K.K.K.K.K.K.K.K.K.K.K.K.K.K.K.K.K.K.K.K.K.K.K.K.K.K.K.K.K.K.K.K.K.K.K.K.G.k.A.D.B.K.L.l.L.K.K.K.K.K.K.K.K.K.d.d.OX",
"K.K.K.K.K.K.K.K.K.K.K.K.K.K.K.K.K.K.K.K.K.K.K.K.K.K.K.K.K.K.K.K.K.K.K.K.K.K.K.K.K.K.K.G.L.V.Z.v.K.G.H.K.K.K.K.K.K.K.K.K.K.d.d.OX",
"K.K.K.K.K.K.K.K.K.K.K.K.K.K.K.K.K.K.K.K.K.K.K.K.K.G.H.K.K.K.K.K.K.K.K.K.K.K.K.K.K.K.K.K.L.l.z.k.K.H.K.K.K.K.K.K.K.K.K.K.K.d.d.OX",
"K.K.K.K.K.K.K.K.K.K.K.K.K.K.K.K.K.K.K.K.K.K.K.K.L.L.L.K.K.K.K.K.K.K.K.K.K.K.K.K.K.K.K.K.K.K.H.K.K.K.K.K.K.K.K.K.K.K.K.K.K.d.d.OX",
"K.K.K.K.K.K.K.K.K.K.K.K.K.K.K.K.K.K.K.K.K.K.G.G.z.C.B.K.G.K.K.K.K.K.K.K.K.K.K.K.K.K.K.K.K.K.H.K.K.K.K.K.K.K.K.K.K.K.K.K.K.d.d.OX",
"K.K.K.K.K.K.K.K.K.K.K.K.K.K.K.K.K.K.K.K.K.K.K.L.V.S.C.P.K.K.K.K.K.K.K.K.K.K.K.K.K.K.K.K.K.K.K.K.K.K.K.K.K.K.K.K.K.K.K.K.K.d.d.OX",
"K.K.K.K.K.K.K.K.K.K.K.K.K.K.K.K.K.K.K.K.H.K.v.C.V.z.B.C.B.L.H.K.K.K.K.K.K.K.K.K.K.K.K.K.K.K.K.K.K.K.K.K.K.K.K.K.K.K.K.K.K.d.d.OX",
"K.K.K.K.K.K.K.K.K.K.K.K.K.K.K.K.K.K.K.K.G.K.V.A.B.K.z.A.C.L.G.K.K.K.K.K.K.K.K.K.K.K.K.K.K.K.K.K.K.K.K.K.K.K.K.K.K.K.K.K.K.d.d.OX",
"e.e.e.J.J.J.J.J.J.J.J.J.J.J.J.J.J.J.J.J.e.e.f.b.n.n.n.b.f.J.e.J.J.e.e.e.e.e.e.J.J.J.e.e.e.e.J.J.J.J.J.e.e.e.e.e.e.e.e.J.J.w.q.oX",
"L.L.L.L.L.L.L.L.L.L.L.L.L.L.L.L.L.L.L.L.L.L.H.L.V.S.Z.L.H.L.L.L.L.L.L.L.L.L.L.L.L.L.L.L.L.L.L.L.L.L.L.L.L.L.L.L.L.L.L.L.L.g.g.+X"
};
