/* XPM */
static char *_a32164620b94525dbb1bc76eddbf5b45yH6UKULSh2BDKrp[] = {
/* columns rows colors chars-per-pixel */
"32 32 142 2 ",
"   c #000611",
".  c #060A15",
"X  c #0B0D17",
"o  c #0C0D1A",
"O  c #251625",
"+  c #2A1727",
"@  c #2D1925",
"#  c #2A192D",
"$  c #341D2C",
"%  c #391F2B",
"&  c #391F32",
"*  c #341F38",
"=  c #132220",
"-  c #172823",
";  c #1B2F27",
":  c #27212D",
">  c #28212D",
",  c #2C2D2D",
"<  c #34232A",
"1  c #3C222D",
"2  c #2E322E",
"3  c #24392B",
"4  c #2A3B2E",
"5  c #2A2930",
"6  c #3B2234",
"7  c #343830",
"8  c #43242E",
"9  c #452631",
"0  c #482434",
"q  c #472A31",
"w  c #4C2B32",
"e  c #522E34",
"r  c #4C3334",
"t  c #473835",
"y  c #4F3B34",
"u  c #553236",
"i  c #5A3436",
"p  c #573139",
"a  c #5D353A",
"s  c #64393A",
"d  c #6A3D3C",
"f  c #713F3D",
"g  c #244432",
"h  c #2D4B39",
"j  c #3C4738",
"k  c #334F3A",
"l  c #384839",
"z  c #35543E",
"x  c #3F523C",
"c  c #305B3F",
"v  c #6E413D",
"b  c #73433E",
"n  c #355C42",
"m  c #385940",
"M  c #356344",
"N  c #386246",
"B  c #3C6949",
"V  c #3E7047",
"C  c #3D724E",
"Z  c #3F7451",
"A  c #744541",
"S  c #794641",
"D  c #754940",
"F  c #7C4942",
"G  c #4B6943",
"H  c #406E4C",
"J  c #526F4C",
"K  c #42724F",
"L  c #417751",
"P  c #4F7650",
"I  c #437C54",
"U  c #487F57",
"Y  c #776A4C",
"T  c #7C6B4C",
"R  c #824D44",
"E  c #855245",
"W  c #895246",
"Q  c #8A5648",
"!  c #8C5A4B",
"~  c #925D4D",
"^  c #886C4E",
"/  c #90604C",
"(  c #98644E",
")  c #996050",
"_  c #9E6950",
"`  c #957152",
"'  c #A16C53",
"]  c #AB6F58",
"[  c #A77255",
"{  c #AE7559",
"}  c #AF7B58",
"|  c #B0755A",
" . c #B37B5B",
".. c #5C8D4D",
"X. c #448056",
"o. c #4C8354",
"O. c #468459",
"+. c #49855A",
"@. c #468859",
"#. c #498A5C",
"$. c #45945F",
"%. c #4D925E",
"&. c #5C9454",
"*. c #52965D",
"=. c #5B9B5E",
"-. c #63944D",
";. c #629F5C",
":. c #58A05A",
">. c #65A957",
",. c #64A25C",
"<. c #6BA659",
"1. c #6EA858",
"2. c #74AB55",
"3. c #7BAF52",
"4. c #71AA58",
"5. c #7CB154",
"6. c #7DB658",
"7. c #468E64",
"8. c #4A8F62",
"9. c #428C68",
"0. c #439262",
"q. c #4D9262",
"w. c #4F9665",
"e. c #509362",
"r. c #529661",
"t. c #549660",
"y. c #529A68",
"u. c #519C68",
"i. c #4A8F72",
"p. c #439270",
"a. c #4B9071",
"s. c #4F9270",
"d. c #529773",
"f. c #629F6B",
"g. c #72AA66",
"h. c #80B755",
"j. c #8ABA50",
"k. c #BF8061",
"l. c #C28761",
"z. c #CD8C67",
"x. c #D09267",
"c. c #D19169",
/* pixels */
"w.w.w.w.w.w.w.w.w.w.w.w.w.w.w.w.w.w.w.w.y.#.O.u.w.w.w.w.w.w.q.d.",
"q.q.q.q.q.q.q.q.q.q.q.q.q.q.q.q.q.q.q.w.O.I O.I w.q.q.q.q.q.#.s.",
"q.q.q.q.q.q.q.q.q.q.q.q.q.q.q.q.q.q.q.q.q.I I 8.q.q.q.q.q.q.#.s.",
"q.q.q.q.q.q.q.q.q.q.q.q.q.q.q.q.q.q.q.q.q.#.#.w.q.q.q.q.q.q.#.s.",
"q.q.q.q.q.q.q.q.q.q.q.q.q.q.q.q.8.q.q.q.q.q.q.q.q.q.q.q.q.q.#.s.",
"q.q.q.q.q.q.q.q.q.q.q.q.q.q.q.7.,.=.7.q.q.q.q.q.q.q.q.q.q.q.#.s.",
"q.q.q.q.q.7.q.q.q.q.q.q.q.q.q.7.1.5.=.q.q.8.q.q.q.q.q.q.q.q.#.s.",
"q.q.q.q.q.<.e.q.q.q.q.q.q.q.q.7.<.j.,.9.=.;.8.q.q.q.q.q.q.q.#.s.",
"q.q.q.q.q.5.r.O.O.O.#.q.q.q.q.q.t.6.&.O.h.4.7.q.q.q.q.q.q.q.#.s.",
"q.q.q.8.q.2.x u w w r j L +.q.q.q.#...3.2.o.U +.+.o.q.q.q.q.#.s.",
"q.q.8.q.I y a w d s 9 0 ! x.Y Y J Z o.-.G ` | ' ' k.Y #.q.q.#.s.",
"q.#.q.I p e w v v S v e w i ) ] { c.^ T z.l. .r D b ~ { P q.#.s.",
"q.q.q.t p e 9 i R i F b 8 8 8 F ( F  .| } [ [ / s a u b A , C s.",
"q.q.H a 9 i R b b A F b A w i d b R R ( _ b ' Q S R s w @ O 3 s.",
"7.q.t p w s s i S v a R d w d R F S d ~ ! f S E R F d 1 @ & 4 a.",
"=.K p 1 e 8 e F F S S F F u a b F F F S S F R b A p w 8 1 $ V f.",
"1.7 9 8 w w b d F i d F s i u F F F F F F F v s < 2 N n z I *.g.",
"7.I 1 % 8 w 1 s W d R R v w s F F F F F b b s 1 O.q.q.q.q.q.@.i.",
"q.q.I 1 % 8 v F i b d b u e s d F F b d d d w #.q.q.q.q.q.q.#.s.",
"q.8.q.m % w s w w b e w 1 % w s a A v a S l 8.q.8.q.q.q.q.q.#.s.",
"q.q.q.#.+ 8 8 9 8 w $ < k < 1 1 w w a q B q.q.8.q.q.q.q.q.q.#.s.",
"q.q.q.c   O 8 6 h L L #.q.#.O.#.= + 8 w C q.q.q.q.q.q.q.q.q.#.s.",
"q.q.q.- . o $ $ C #.L #.q.q.q.q.M . o 1 6 O.q.8.q.q.q.q.q.q.#.s.",
"q.q.I X X Z n & , L #.q.q.q.q.q.M X g q.: # n q.q.r.q.q.q.q.#.s.",
"q.q.+.X X +.q.z * > q.q.q.q.q.q.; o #.q.#.5 > #.=.2.7.q.q.q.#.s.",
"q.q.q.X.n O.q.q.C B q.q.q.q.q.q.L C q.#.q.7.;.1.=.2.7.q.q.q.#.s.",
"q.q.8.q.q.q.q.q.q.q.q.q.q.q.q.8.q.q.q.q.q.7.,.1.=.2.7.q.q.q.#.s.",
"q.q.q.q.q.q.q.q.q.q.q.q.q.q.q.q.q.q.q.q.q.8.,.4.7.q.q.q.q.q.#.s.",
"q.q.q.q.q.q.q.q.q.q.q.q.q.q.q.q.q.q.q.q.q.q.q.q.q.q.q.q.q.q.#.s.",
"q.q.q.q.q.q.q.q.q.q.q.7.4.=.8.q.q.q.q.q.q.q.q.q.q.q.q.q.q.q.%.s.",
"q.q.q.q.q.q.q.q.q.q.8.4.=.1.=.8.q.q.q.q.q.q.q.q.q.q.q.q.q.q.%.s.",
"0.0.0.0.0.0.0.0.0.0.0.$.>.:.0.0.0.0.0.0.0.0.0.0.0.0.0.0.0.0.$.p."
};
