/* XPM */
static char *_ce4f2cf639d452eda5b9b262c587a0b1PCpNmfCGlPhk4r7[] = {
/* columns rows colors chars-per-pixel */
"32 32 77 1 ",
"  c #020101",
". c #090503",
"X c #050906",
"o c #0A0A06",
"O c #070E0A",
"+ c #0A0E09",
"@ c #140C07",
"# c #140E08",
"$ c #09100A",
"% c #12110A",
"& c #4D2B13",
"* c #522E15",
"= c #553017",
"- c #366D4E",
"; c #3D704C",
": c #407750",
"> c #437E55",
", c #417F58",
"< c #845737",
"1 c #845837",
"2 c #875B38",
"3 c #8B5C39",
"4 c #CE7D41",
"5 c #D27E42",
"6 c #5C8E4D",
"7 c #4B8251",
"8 c #4E8855",
"9 c #468459",
"0 c #48875A",
"q c #498A5C",
"w c #45955F",
"e c #4D925F",
"r c #5C9554",
"t c #52955E",
"y c #5A9B5E",
"u c #63954D",
"i c #689B4F",
"p c #619A55",
"a c #619F5C",
"s c #58A15A",
"d c #6CA252",
"f c #64A957",
"g c #64A25C",
"h c #6CA659",
"j c #6EA958",
"k c #74A954",
"l c #71AB58",
"z c #7CB154",
"x c #7DB658",
"c c #428C67",
"v c #478E64",
"b c #488F63",
"n c #4C8F60",
"m c #488F64",
"M c #439362",
"N c #4A9063",
"B c #4D9262",
"V c #4E9463",
"C c #489066",
"Z c #4F9665",
"A c #509361",
"S c #509461",
"D c #529A68",
"F c #529C68",
"G c #439271",
"H c #4A9072",
"J c #4F9370",
"K c #529773",
"L c #619F6B",
"P c #72AA66",
"I c #8ABA4F",
"U c #81B856",
"Y c #D38042",
"T c #D58143",
"R c #D78244",
"E c #DB8345",
"W c #DA8445",
/* pixels */
"ZZZZZZZZZZZZZZZZZZZZDq9FZZZZZZVK",
"BBBBBBBBBBBBBBBBBBBZ9>9>ZBBBBBeJ",
"BBBBBBBBBBBBBBBBBBBBB>>bBBBBBBeJ",
"BBBBBBBBBBBBBBBBBBBBVqqZBBBBBBeJ",
"BBBBBBBBBBBBBBBBbNBBBBVBBBBBBBeJ",
"BBBBBBBBBBBBBBBbgyvBBBBBBBBBBBeJ",
"BBBBBbBBBqOooOqvjzyNNbBBBBBBBBeJ",
"BBBqqpqqq9o&&oqvhIgcyaNBBBBBBBeJ",
"BB9O+%%%%%.*1+9Ntxr9UlvBBBBBBBeJ",
"BBOo1255445T3@O9C86zk8CBBBBBBBeJ",
"BB+<33ER@@TER4@O098u79ZBBBBBBBeJ",
"BB+23RRR55RREW5@Oq9-,qqBBBBBBBeJ",
"BB+3REEEWWRRRRW4@%%%%%O9BBBBBBeJ",
"BB+1TTTTTTERRRREYYTTT4@OqBBBBBeJ",
"mBO+%%%%##5ERRRREERREW4%qBBBBBeH",
"yBqqqqqq9O@YERRRER33RWT%qBBBBBtL",
"jNBBBBBBB9%TERRRRRRRRR5%qBBBBBtP",
"vBBBBBBBBq%5ERET33RR335%9BBBBBeH",
"BBBBBBBBBqO@TERERRERTR5@OqBBBBeJ",
"BBBBBBBBBB9%5EEYTTYEEEW4%9BBBBeJ",
"BBBBBBBBBq9o*T5@o%#5TEY*.OBBBBeJ",
"BBBBBBBBn;O.&*o X9$o@4=&&oBBBBeJ",
"BBBBBBBV:9o&*&  Xq9X @&*&oBBBBeJ",
"BBBBBBBBZ;o&&.X Xq$ X &&.OBBBBeJ",
"BBBBBBBBBqO&.O9OOqOO9O&&oibBBBeJ",
"BBBBBBBBBqOoO9BqqBqqqOoo$dmBBBeJ",
"BBBBBBBBBBBBBBBBBBBBBbgjylvBBBeJ",
"BBBBBBBBBBBBBBBBBBBBBbglbABBBBeJ",
"BBBBBBBBBBBBNBBBBBBBBBVSBBBBBBeJ",
"BBBBBBBBBBBvlybBBBBBBBBBBBBBBBeJ",
"BBBBBBBBBBblyjyNBBBBBBBBBBBBBBeJ",
"MMMMMMMMMMMwfsMMMMMMMMMMMMMMMMwG"
};
