/* XPM */
static char *accedbbbd3fc4fc7c65148aa040dc981PFJqb1YH8p7HaUQE[] = {
/* columns rows colors chars-per-pixel */
"32 32 67 1 ",
"  c #030201",
". c #080502",
"X c #050906",
"o c #0B0B06",
"O c #070E0A",
"+ c #0A0E09",
"@ c #140C07",
"# c #140F09",
"$ c #09100A",
"% c #12110A",
"& c #4D2B13",
"* c #522E15",
"= c #563017",
"- c #437E55",
"; c #825737",
": c #845837",
"> c #875A39",
", c #8B5C39",
"< c #CE7D41",
"1 c #D17E42",
"2 c #468459",
"3 c #47885C",
"4 c #498A5C",
"5 c #45955F",
"6 c #4D925F",
"7 c #5F9856",
"8 c #52935B",
"9 c #55985F",
"0 c #5B9B5E",
"q c #619F5C",
"w c #58A15A",
"e c #75A64E",
"r c #6CA455",
"t c #64A957",
"y c #64A15C",
"u c #6DA759",
"i c #6EA958",
"p c #72AB57",
"a c #78AE55",
"s c #71AA58",
"d c #7CB254",
"f c #478E64",
"g c #488F63",
"h c #488F64",
"j c #419161",
"k c #449361",
"l c #459463",
"z c #4B9163",
"x c #4D9262",
"c c #4F9461",
"v c #4F9665",
"b c #509361",
"n c #519561",
"m c #559860",
"M c #529A68",
"N c #529C68",
"B c #439271",
"V c #4A9072",
"C c #4F9370",
"Z c #529773",
"A c #619F6B",
"S c #72AA66",
"D c #D38042",
"F c #D48043",
"G c #D78244",
"H c #D98345",
"J c #DA8446",
/* pixels */
"vvvvvvvvvvvvvvvvvvvvM42NvvvvvvcZ",
"xxxxxxxxxxxxxxxxxxxv2-2-vxxxxx6C",
"xxxxxxxxxxxxxxxxxxxxx--gxxxxxx6C",
"xxxxxxxxxxxxxxxxxxxxc44vxxxxxx6C",
"xxxxxxxxxxxxxxxxgzxxxxcxxxxxxx6C",
"xxxxxxxxxxxxxxxgy0fxxxxxxxxxxx6C",
"xxxxxgxxxxxxxxxfud0zzgxxxxxxxx6C",
"xxxxxycxxxxxxxx2$ooO8qzxxxxxxx6C",
"xxxxxdnfxxxxxxx3o&&oer24444xxx6C",
"xxxxxanynxxxxxx2+:*@%%%%++O2xx6C",
"xxxxxdnd9zxxxx2O@,FD<<F1>;oOxx6C",
"xxxxxyxdmzxxx2O@<GJF@@FJ,,:+xx6C",
"xxxxxfz744442O@1JHGH11HHG,>+xx6C",
"xxxxxx2O%%%%%@<JHGGGJJHHHG>+xx6C",
"hxxxx4O@<FFFDDHHGGGHDDFFFF:+xx6V",
"0xxxx4%<JHGGHHGGGGH<@%%%%%+Oxx8A",
"izxxx4%FJG,,GHGGGHF@O2444444xx8S",
"fxxxx4%1GGGGGGGGGHG%2xxxxxxxxx6V",
"xxxxx2%1,,GG,,GHGH1%4xxxxxxxxx6C",
"xxxx4O#1GGGHGGHGHF@O4xxxxxxxxx6C",
"xxxx2#<HHHHDFFFHH1%2xxxxxxxxxx6C",
"xxxxO.*FJG1@%o@1F*o2xxxxxxxxxx6C",
"xxxxo&&=<@o$3X @*&.O4xxxxxxxxx6C",
"xxxxO&*&o X34X  &*&o4xxxxnxxxx6C",
"xxxxO.&& X $4X X.&*o4xxz0sgxxx6C",
"xxxx2o&&o2OO4OO2O.&o4gyu0phxxx6C",
"xxxx4OooO444x44x2OoO4gyu0sfxxx6C",
"xxxxxxxxxxxxxxxxxxxxxgysgbxxxx6C",
"xxxxxxxxxxxxzxxxxxxxxxcnxxxxxx6C",
"xxxxxxxxxxxfs0gxxxxxxxxxxxxxxx6C",
"xxxxxxxxxxgs0i0zxxxxxxxxxxxxxx6C",
"jjlllljlllj5twkljjjjljjlljjjjj5B"
};
