/* XPM */
static char *_759ce4a18ef42659487aef1baecd038hJPJRX1spZybLDpA[] = {
/* columns rows colors chars-per-pixel */
"64 64 171 2 ",
"   c #020201",
".  c #090502",
"X  c #060B06",
"o  c #0D0805",
"O  c #060C08",
"+  c #080F0A",
"@  c #130B05",
"#  c #1B0E05",
"$  c #180F09",
"%  c #0B150E",
"&  c #1C130C",
"*  c #131B0E",
"=  c #0E1A12",
"-  c #111F14",
";  c #261509",
":  c #24140A",
">  c #24180E",
",  c #2B1A0D",
"<  c #331C0C",
"1  c #331F11",
"2  c #19230F",
"3  c #112116",
"4  c #1E2B15",
"5  c #132519",
"6  c #162A1D",
"7  c #192A19",
"8  c #3C210F",
"9  c #222E14",
"0  c #362112",
"q  c #3B2412",
"w  c #223016",
"e  c #193020",
"r  c #223F2B",
"t  c #442611",
"y  c #462915",
"u  c #4C2B14",
"i  c #472C1A",
"p  c #522D14",
"a  c #563116",
"s  c #5B3217",
"d  c #543319",
"f  c #5E3418",
"g  c #603619",
"h  c #663A1B",
"j  c #683D1E",
"k  c #543B26",
"l  c #593D27",
"z  c #5B3E29",
"x  c #683F21",
"c  c #24432D",
"v  c #394F24",
"b  c #274930",
"n  c #294D34",
"m  c #2A5237",
"M  c #345D3D",
"N  c #6C4323",
"B  c #64442C",
"V  c #724422",
"C  c #7A4925",
"Z  c #744B2C",
"A  c #7F5739",
"S  c #456837",
"D  c #2F5C40",
"F  c #356545",
"G  c #376846",
"H  c #386C49",
"J  c #396D49",
"K  c #3E754E",
"L  c #3D7551",
"P  c #3D7853",
"I  c #517D44",
"U  c #427C53",
"Y  c #417B55",
"T  c #824E28",
"R  c #9E5D2F",
"E  c #895833",
"W  c #805738",
"Q  c #855A3A",
"!  c #8B5D3A",
"~  c #965B30",
"^  c #9B5D30",
"/  c #905D39",
"(  c #8D613E",
")  c #9E6034",
"_  c #9B673F",
"`  c #A26233",
"'  c #AB6736",
"]  c #AD6937",
"[  c #A66738",
"{  c #B06A37",
"}  c #B26C39",
"|  c #BB713B",
" . c #C1753D",
".. c #C8773C",
"X. c #C6783F",
"o. c #CC7A3E",
"O. c #966540",
"+. c #9B6740",
"@. c #AE7244",
"#. c #B57545",
"$. c #BF7B48",
"%. c #C67840",
"&. c #C87C45",
"*. c #D17E43",
"=. c #5A813E",
"-. c #638B3F",
";. c #3B914E",
":. c #3E9354",
">. c #3E9261",
",. c #5B8845",
"<. c #5F9E4F",
"1. c #458157",
"2. c #458D54",
"3. c #468459",
"4. c #48875B",
"5. c #478A5F",
"6. c #4A8B5D",
"7. c #538B52",
"8. c #4B9154",
"9. c #4B9A5D",
"0. c #509253",
"q. c #5A9853",
"w. c #55965F",
"e. c #569A5E",
"r. c #5B9C5E",
"t. c #648F45",
"y. c #629148",
"u. c #609F5D",
"i. c #56A25A",
"p. c #59A458",
"a. c #66A34A",
"s. c #74AD45",
"d. c #64A15C",
"f. c #6AA55A",
"g. c #6EA858",
"h. c #74AC56",
"j. c #7AAF55",
"k. c #71A75A",
"l. c #71A958",
"z. c #7CB154",
"x. c #7AB258",
"c. c #468D64",
"v. c #498F63",
"b. c #429463",
"n. c #4D9262",
"m. c #529362",
"M. c #529865",
"N. c #549F6B",
"B. c #54A06B",
"V. c #56A46E",
"C. c #58A770",
"Z. c #81B554",
"A. c #88BD55",
"S. c #D78244",
"D. c #DA8445",
"F. c #D6864B",
"G. c #E28847",
"H. c #E88A47",
"J. c #E48A49",
"K. c #EA8D4A",
"L. c #F5944D",
"P. c #FA974F",
"I. c #FC994F",
"U. c #FD9B52",
"Y. c #FFA256",
"T. c #4A9399",
"R. c #549595",
"E. c #599794",
"W. c #6BA58F",
"Q. c #78AD8B",
"!. c #5CA3A3",
/* pixels */
"B.B.B.B.B.B.B.B.B.B.B.B.B.B.B.B.B.B.B.B.B.B.B.B.B.B.B.B.B.B.B.B.B.B.B.B.B.B.B.N.V.C.N.v.6.M.V.V.N.N.B.B.B.B.B.B.B.B.B.B.B.e.e.!.",
"n.n.n.n.n.n.n.n.n.n.n.n.n.n.n.n.n.n.n.n.n.n.n.n.n.n.n.n.n.n.n.n.n.n.n.n.n.n.n.n.n.n.6.Y K 3.n.n.n.n.n.n.n.n.n.n.n.n.n.n.n.8.8.R.",
"n.n.n.n.n.n.n.n.n.n.n.n.n.n.n.n.n.n.n.n.n.n.n.n.n.n.n.n.n.n.n.n.n.n.n.n.n.n.n.n.6.3.U 3.3.U U 6.n.n.n.n.n.n.n.n.n.n.n.n.n.8.8.R.",
"n.n.n.n.n.n.n.n.n.n.n.n.n.n.n.n.n.n.n.n.n.n.n.n.n.n.n.n.n.n.n.n.n.n.n.n.n.n.n.n.6.Y Y 6.v.U K 3.n.n.n.n.n.n.n.n.n.n.n.n.n.8.8.R.",
"n.n.n.n.n.n.n.n.n.n.n.n.n.n.n.n.n.n.n.n.n.n.n.n.n.n.n.n.n.n.n.n.n.n.n.n.n.n.n.n.6.3.U 1.1.U 3.6.n.n.n.n.n.n.n.n.n.n.n.n.n.8.8.R.",
"n.n.n.n.n.n.n.n.n.n.n.n.n.n.n.n.n.n.n.n.n.n.n.n.n.n.n.n.n.n.n.n.n.n.n.n.n.n.n.n.n.n.6.Y K 3.n.n.n.n.n.n.n.n.n.n.n.n.n.n.n.8.8.R.",
"n.n.n.n.n.n.n.n.n.n.n.n.n.n.n.n.n.n.n.n.n.n.n.n.n.n.n.n.n.n.n.n.n.n.n.n.n.n.n.n.n.M.n.3.1.6.M.n.n.n.n.n.n.n.n.n.n.n.n.n.n.8.8.R.",
"n.n.n.n.n.n.n.n.n.n.n.n.n.n.n.n.n.n.n.n.n.n.n.n.n.n.n.n.n.n.n.n.n.n.n.n.n.n.n.n.n.n.n.n.n.n.n.n.n.n.n.n.n.n.n.n.n.n.n.n.n.8.8.R.",
"n.n.n.n.n.n.n.n.n.n.n.n.n.n.n.n.n.n.n.n.n.n.n.n.n.n.n.n.n.n.n.n.n.v.n.n.n.n.n.n.n.n.n.n.n.n.n.n.n.n.n.n.n.n.n.n.n.n.n.n.n.8.8.R.",
"n.n.n.n.n.n.n.n.n.n.n.n.n.n.n.n.n.n.n.n.n.n.n.n.n.n.n.n.n.n.n.n.n.n.n.n.n.n.n.n.n.n.n.n.n.n.n.n.n.n.n.n.n.n.n.n.n.n.n.n.n.8.8.R.",
"n.n.n.n.n.n.n.n.n.n.n.n.n.n.n.n.n.n.n.n.n.n.n.n.n.n.n.n.n.n.n.n.M.u.e.n.c.n.n.n.n.n.n.n.n.n.n.n.n.n.n.n.n.n.n.n.n.n.n.n.n.8.8.R.",
"n.n.n.n.n.n.n.n.n.n.n.n.n.n.n.n.n.n.n.n.n.n.n.n.n.n.n.n.n.n.n.n.r.h.g.m.c.n.n.n.n.n.n.n.n.n.n.n.n.n.n.n.n.n.n.n.n.n.n.n.n.8.8.R.",
"n.n.n.n.n.n.n.n.n.n.n.n.n.n.n.n.n.n.n.n.n.n.n.L c % 3 3 % c L v.d.t.v * 3 3 % c L n.n.n.n.n.n.n.n.n.n.n.n.n.n.n.n.n.n.n.n.8.8.R.",
"n.n.n.n.n.n.n.n.n.n.n.n.n.n.n.n.n.n.n.n.n.n.n.G %   @ @   = H v.r.,.*   @ @   % G n.n.n.n.n.n.n.n.n.n.n.n.n.n.n.n.n.n.n.n.8.8.R.",
"n.n.n.n.n.n.n.n.n.m.r.r.m.n.n.n.n.n.n.n.n.n.n.H 3 @ < < @ 5 P v.r.y.9 @ < < @ = H e.r.m.n.n.n.n.n.n.n.n.n.n.n.n.n.n.n.n.n.8.8.R.",
"n.n.n.n.n.n.n.n.v.e.g.l.r.v.n.n.n.n.n.n.n.n.n.H 5 # u t @ = m Y 7.S 2 @ t u # 5 K f.l.r.n.n.n.n.n.n.n.n.n.n.n.n.n.n.n.n.n.8.8.R.",
"n.n.n.n.n.n.n.n.c.r.j.z.u.c.c.n.n.n.n.n.n.n.n.H 5 @ 8 <   X = 6 6 - X   < 8 @ 5 I Z.Z.d.c.v.n.n.n.n.n.n.n.n.n.n.n.n.n.n.n.8.8.R.",
"n.n.n.n.n.n.n.n.c.e.h.j.u.c.c.v.n.n.n.n.n.n.n.H 5 : h C d , > & & > , d C h : 7 ,.A.x.d.v.v.n.n.n.n.n.n.n.n.n.n.n.n.n.n.n.8.8.R.",
"n.n.n.n.n.n.n.n.c.e.h.h.r.n.m.e.m.n.n.n.n.n.n.H 5 0 ` H...~ Z z z Z ~ ..H.` 0 4 -.h.q.w.n.n.n.n.n.n.n.n.n.n.n.n.n.n.n.n.n.8.8.R.",
"n.n.n.n.n.n.n.n.c.e.h.h.e.n.d.g.r.n.n.n.n.n.n.H 5 , C *.J.F.@.( ( @.F.J.*.C , w =.,.Y 3.n.n.n.n.n.n.n.n.n.n.n.n.n.n.n.n.n.8.8.R.",
"n.n.n.n.n.n.n.n.c.e.h.h.e.m.l.z.d.n.v.n.n.n.n.H 5   . i E #._ ! ! _ #.E i .   4 S U L 3.M.n.n.n.n.n.n.n.n.n.n.n.n.n.n.n.n.8.8.R.",
"n.n.n.n.n.n.n.n.c.r.j.z.e.m.g.z.d.n.v.n.n.n.n.H 5   . 0 B ( ! ! ! ! ( B 0 .   - M 1.5.v.n.n.n.n.n.n.n.n.n.n.n.n.n.n.n.n.n.8.8.R.",
"n.n.n.n.n.n.n.n.v.e.f.f.m.m.l.j.d.n.v.n.n.n.n.H 5 : V [ ! Q Q ! ! Q Q / [ V : = D v.M.n.n.n.n.n.n.n.n.n.n.n.n.n.n.n.n.n.n.8.8.R.",
"n.n.n.n.n.n.n.n.n.m.e.e.n.w.h.z.d.n.v.n.n.n.n.H 5 y o.U.#.A ! ! ! ! W #.Y.o.y 3 F n.n.n.n.n.n.n.n.n.n.n.n.n.n.n.n.n.n.n.n.8.8.R.",
"n.n.n.n.n.n.n.n.n.n.v.c.c.m.f.l.r.n.v.n.n.n.n.H 5 y o.Y.$.( O.+.+.O.( &.Y.o.y 5 K n.n.n.n.n.n.n.n.n.n.n.n.n.n.n.n.n.n.n.n.8.8.R.",
"n.n.n.n.n.n.n.n.n.n.n.n.n.m.e.e.m.n.n.n.n.n.n.K 5 , C ) Z k l z z l k Z ) C , 5 K n.n.n.n.n.n.n.n.n.n.n.n.n.n.n.n.n.n.n.n.8.8.R.",
"n.n.n.n.n.n.n.n.n.n.n.n.n.n.v.v.n.n.n.n.n.n.n.U 6 . $ $ o . . . . . . o $ $ . 6 U n.n.n.n.n.n.n.n.n.n.n.n.n.n.n.n.n.n.n.n.8.8.R.",
"n.n.n.n.n.n.n.n.n.n.n.n.n.n.n.n.n.n.n.n.n.n.3.n =   o : : : : : : : : : : o   = n 3.n.n.n.n.n.n.n.n.n.n.n.n.n.n.n.n.n.n.n.8.8.R.",
"n.n.n.n.n.n.n.n.n.n.n.n.n.n.n.n.n.n.n.n.n.n.c O   o x { ` ^ ^ ^ ^ ^ ^ ` ] x o   O c n.n.n.n.n.n.n.n.n.n.n.n.n.n.n.n.n.n.n.8.8.R.",
"n.c.n.n.n.n.n.n.n.n.n.n.n.n.n.n.n.n.n.n.n.n.%   @ N %.Y.I.L.L.L.L.L.L.U.Y.X.N o   % n.n.n.n.n.n.n.n.n.n.n.n.n.n.n.n.n.n.n.2.2.T.",
"e.n.n.n.n.n.n.n.n.n.n.n.n.n.n.n.n.n.n.n.n.n.- : V X.S.K.J.G.G.G.G.G.G.J.K.S.X.V : - n.n.n.n.n.n.n.n.n.n.n.n.n.n.n.n.n.n.n.8.0.E.",
"g.d.m.v.n.n.n.n.n.n.n.n.n.n.n.n.n.n.n.n.n.n.5 q | Y.K.S.S.S.S.S.S.S.S.S.S.K.Y.| q 5 n.n.n.n.n.n.n.n.n.n.n.n.n.n.n.n.n.n.n.q.a.W.",
"h.g.m.c.n.n.n.n.n.n.n.n.n.n.n.n.n.n.n.n.n.n.5 0 ' U.J.S.S.S.S.S.S.S.S.S.S.J.U.' 0 5 n.n.n.n.n.n.n.n.n.n.n.n.n.n.n.n.n.v.n.<.s.Q.",
"f.r.m.v.n.n.n.n.n.n.n.n.n.n.n.n.n.n.n.n.n.n.5 0 ` L.G.S.S.S.S.S.S.S.S.S.S.G.L.` 0 5 n.n.n.n.n.n.n.n.n.n.n.n.n.n.n.n.n.n.n.q.a.W.",
"m.c.n.n.n.n.n.n.n.n.n.n.n.n.n.n.n.n.n.n.n.n.5 0 ` L.G.S.S.S.S.S.S.S.S.S.S.G.L.` 0 5 n.n.n.n.n.n.n.n.n.n.n.n.n.n.n.n.n.n.n.8.8.R.",
"n.c.n.n.n.n.n.n.n.n.n.n.n.n.n.n.n.n.n.n.n.n.5 0 [ P.G.S.S.S.S.S.S.S.S.S.S.G.P.[ 0 5 n.n.n.n.n.n.n.n.n.n.n.n.n.n.n.n.n.n.n.8.2.R.",
"n.n.n.n.n.n.n.n.n.n.n.n.n.n.n.n.n.n.n.n.n.n.5 q } U.H.S.S.S.S.S.S.S.S.S.S.H.U.} q 5 n.n.n.n.n.n.n.n.n.n.n.n.n.n.n.n.n.n.n.8.8.R.",
"n.n.n.n.n.n.n.n.n.n.n.n.n.n.n.n.n.n.n.n.n.n.5 , T S.D.G.G.G.G.G.G.G.G.G.J.D.S.T , 5 n.n.n.n.n.n.n.n.n.n.n.n.n.n.n.n.n.n.n.8.8.R.",
"n.n.n.n.n.n.n.n.n.n.n.n.n.n.n.n.n.n.n.n.n.n.5 $ t R *.U.L.L.L.L.L.L.L.L.U.*.R t $ 5 n.n.n.n.n.n.n.n.n.n.n.n.n.n.n.n.n.n.n.8.8.R.",
"n.n.n.n.n.n.n.n.n.n.n.n.n.n.n.n.n.n.n.n.n.n.5 . # h R  .] ) ` ` ` ` ) ]  .R h # . 5 n.n.n.n.n.n.n.n.n.n.n.n.n.n.n.n.n.n.n.8.8.R.",
"n.n.n.n.n.n.n.n.n.n.n.n.n.n.n.n.n.n.n.n.n.n.5 @ < f V j y , 1 0 0 1 , y j V f < @ 5 n.n.n.n.n.n.n.n.n.n.n.n.n.n.n.n.n.n.n.8.8.R.",
"n.n.n.n.n.n.n.n.n.n.n.n.n.n.n.n.n.n.4.3.6.n.5 $ t s p :                 : p s q @ 5 n.n.n.n.n.n.n.n.n.n.n.n.n.n.n.n.n.n.n.8.8.R.",
"n.n.n.n.n.n.n.n.n.n.n.n.n.n.n.n.M.n.U K 3.n.5 $ t h s < .             o < s s 8 @ 5 n.n.n.n.n.n.n.n.n.n.n.n.n.n.n.n.n.n.n.8.8.R.",
"n.n.n.n.n.n.n.n.n.n.n.n.n.n.n.n.6.3.U U U 3.- o , u s t $       - 3 O @ 8 f f 8 @ 5 n.n.n.n.n.n.n.n.n.n.n.n.n.n.n.n.n.n.n.8.8.R.",
"n.n.n.n.n.n.n.n.n.n.n.n.n.n.n.6.U K 3.v.1.K %     , a u &     + M F 3 @ 8 f f 8 @ 5 n.n.n.n.n.n.n.n.n.n.n.n.n.n.n.n.n.n.n.8.8.R.",
"n.n.n.n.n.n.n.n.n.n.n.n.n.n.n.6.1.Y 3.6.U Y r O   . < < @   X m n.6.e @ 8 f g q @ 5 n.n.n.n.n.n.n.n.n.n.n.n.n.n.n.n.n.n.n.8.8.R.",
"n.n.n.n.n.n.n.n.n.n.n.n.n.n.n.n.n.6.Y L U 6.3.n =   @ @   = n 6.n.Y 6 @ 8 g h t $ 5 n.n.n.n.n.n.n.n.v.n.n.n.n.n.n.n.n.n.n.8.8.R.",
"n.n.n.n.n.n.n.n.n.n.n.n.n.n.n.n.M.n.1.Y 4.n.M.U 5         5 U n.n.H 5 $ t s u : o - n.n.n.n.n.n.n.w.e.m.n.n.n.n.n.n.n.n.n.8.8.R.",
"n.n.n.n.n.n.n.n.n.n.n.n.n.n.n.n.n.n.6.6.6.n.n.H =         = H n.n.H 5 # u a ,     % n.n.n.v.c.c.m.d.l.d.n.v.n.n.n.n.n.n.n.8.8.R.",
"n.n.n.n.n.n.n.n.n.n.n.n.n.n.n.n.n.n.n.n.n.n.n.K r % - - % c K n.n.H - @ < < .   O c n.n.n.w.e.n.m.g.Z.f.n.c.n.n.n.n.n.n.n.8.8.R.",
"n.n.n.n.n.n.n.n.n.n.n.n.n.n.n.n.n.n.n.n.n.n.n.6.K G H H G K 6.n.n.G % . @ @   X b 4.n.v.m.f.g.w.n.f.z.f.n.c.n.n.n.n.n.n.n.8.8.R.",
"n.n.n.n.n.n.n.n.n.n.n.n.n.n.n.n.n.n.n.n.n.n.n.n.n.n.n.n.n.n.n.n.n.K c % - = % c 4.n.n.c.w.h.z.u.n.f.z.f.n.c.n.n.n.n.n.n.n.8.8.R.",
"n.n.n.n.n.n.n.n.n.n.n.n.n.n.n.n.n.n.n.n.n.n.n.n.n.n.n.n.n.n.n.n.n.n.n.n.n.n.n.n.n.n.n.c.w.l.z.r.n.g.Z.f.n.c.n.n.n.n.n.n.n.8.8.R.",
"n.n.n.n.n.n.n.n.n.n.n.n.n.n.n.n.n.n.n.n.n.n.n.n.n.n.n.n.n.n.n.n.n.n.n.n.n.n.n.n.n.n.n.c.w.l.j.u.n.u.g.d.n.v.n.n.n.n.n.n.n.8.8.R.",
"n.n.n.n.n.n.n.n.n.n.n.n.n.n.n.n.n.n.n.n.n.n.n.n.n.n.n.n.n.n.n.n.n.n.n.n.n.n.n.n.n.n.n.c.w.h.z.d.n.m.e.m.n.n.n.n.n.n.n.n.n.8.8.R.",
"n.n.n.n.n.n.n.n.n.n.n.n.n.n.n.n.n.n.n.n.n.n.n.n.n.n.n.n.n.n.n.n.n.n.n.n.n.n.n.n.n.n.n.c.m.f.l.u.n.c.v.n.n.n.n.n.n.n.n.n.n.8.8.R.",
"n.n.n.n.n.n.n.n.n.n.n.n.n.n.n.n.n.n.n.n.n.n.n.n.n.c.v.n.n.n.n.n.n.n.n.n.n.n.n.n.n.n.n.n.m.e.r.w.n.v.n.n.n.n.n.n.n.n.n.n.n.8.8.R.",
"n.n.n.n.n.n.n.n.n.n.n.n.n.n.n.n.n.n.n.n.n.n.n.n.m.m.m.n.n.n.n.n.n.n.n.n.n.n.n.n.n.n.n.n.n.n.v.n.n.n.n.n.n.n.n.n.n.n.n.n.n.8.8.R.",
"n.n.n.n.n.n.n.n.n.n.n.n.n.n.n.n.n.n.n.n.n.n.c.c.r.g.d.n.c.n.n.n.n.n.n.n.n.n.n.n.n.n.n.n.n.n.v.n.n.n.n.n.n.n.n.n.n.n.n.n.n.8.8.R.",
"n.n.n.n.n.n.n.n.n.n.n.n.n.n.n.n.n.n.n.n.n.n.n.m.f.j.g.M.n.n.n.n.n.n.n.n.n.n.n.n.n.n.n.n.n.n.n.n.n.n.n.n.n.n.n.n.n.n.n.n.n.8.8.R.",
"n.n.n.n.n.n.n.n.n.n.n.n.n.n.n.n.n.n.n.n.v.n.u.g.f.r.d.g.d.m.v.n.n.n.n.n.n.n.n.n.n.n.n.n.n.n.n.n.n.n.n.n.n.n.n.n.n.n.n.n.n.8.8.R.",
"n.n.n.n.n.n.n.n.n.n.n.n.n.n.n.n.n.n.n.n.c.n.f.h.d.n.r.h.g.m.c.n.n.n.n.n.n.n.n.n.n.n.n.n.n.n.n.n.n.n.n.n.n.n.n.n.n.n.n.n.n.8.8.R.",
">.>.>.b.b.b.b.b.b.b.b.b.b.b.b.b.b.b.b.b.>.>.9.i.p.p.p.i.9.b.>.b.b.>.>.>.>.>.>.b.b.b.>.>.>.>.b.b.b.b.b.>.>.>.>.>.>.>.>.b.b.:.;.T.",
"m.m.m.m.m.m.m.m.m.m.m.m.m.m.m.m.m.m.m.m.m.m.v.m.f.j.k.m.v.m.m.m.m.m.m.m.m.m.m.m.m.m.m.m.m.m.m.m.m.m.m.m.m.m.m.m.m.m.m.m.m.0.0.E."
};
