/* XPM */
static char *_b54f1dd95d34317e467957984ea3e45GITFnuEXHZqK3UE0[] = {
/* columns rows colors chars-per-pixel */
"32 32 113 2 ",
"   c #030302",
".  c #050906",
"X  c #0C0D07",
"o  c #070C08",
"O  c #100904",
"+  c #1B0F07",
"@  c #0E150E",
"#  c #1E1007",
"$  c #15160E",
"%  c #1F140B",
"&  c #191E0F",
"*  c #151E13",
"=  c #20140B",
"-  c #2E1A0C",
";  c #211F13",
":  c #331F10",
">  c #1B2216",
",  c #15271A",
"<  c #16291C",
"1  c #1F2818",
"2  c #3D210E",
"3  c #242517",
"4  c #282517",
"5  c #282A14",
"6  c #272919",
"7  c #292919",
"8  c #362111",
"9  c #3D2414",
"0  c #302F1C",
"q  c #2B3C1D",
"w  c #31301D",
"e  c #1B3121",
"r  c #432511",
"t  c #452C16",
"y  c #4B2A13",
"u  c #492D1A",
"i  c #5D361B",
"p  c #59381E",
"a  c #663B1E",
"s  c #543B27",
"d  c #543B28",
"f  c #2D5539",
"g  c #784825",
"h  c #775031",
"j  c #7B5031",
"k  c #366744",
"l  c #376846",
"z  c #3E6B43",
"x  c #356B4C",
"c  c #3A6C48",
"v  c #3D734E",
"b  c #3F7750",
"n  c #3F7B55",
"m  c #487C4C",
"M  c #507C43",
"N  c #407750",
"B  c #417B53",
"V  c #83512C",
"C  c #8C562E",
"Z  c #9D5E31",
"A  c #92623F",
"S  c #A46334",
"D  c #AE6936",
"F  c #A1683E",
"G  c #B36C38",
"H  c #B86E38",
"J  c #BC723C",
"K  c #9F6B43",
"L  c #A66D42",
"P  c #448156",
"I  c #4D8856",
"U  c #46855A",
"Y  c #4A8C5E",
"T  c #45955F",
"R  c #4D925F",
"E  c #51955D",
"W  c #55985F",
"Q  c #5B9B5E",
"!  c #618B42",
"~  c #6A9848",
"^  c #619F5C",
"/  c #58A15A",
"(  c #69A357",
")  c #64A957",
"_  c #64A15C",
"`  c #6DA759",
"'  c #6EA958",
"]  c #72AB57",
"[  c #78AE55",
"{  c #71AB58",
"}  c #7DB254",
"|  c #468D64",
" . c #498F63",
".. c #439362",
"X. c #4D9262",
"o. c #519561",
"O. c #559860",
"+. c #519866",
"@. c #529A68",
"#. c #529C68",
"$. c #439271",
"%. c #4A9072",
"&. c #4F9370",
"*. c #529773",
"=. c #619F6B",
"-. c #72AA66",
";. c #D78244",
":. c #D88244",
">. c #EB8E4A",
",. c #EC8E4A",
"<. c #EE904B",
"1. c #EF904C",
"2. c #F1924C",
/* pixels */
"X.X.X.X.X.X.X.X.X.X.X.X.X.X.X.X.X.X.X.X.@.Y U #.X.X.X.X.X.X.X.*.",
"X.X.X.X.X.X.X.X.X.X.X.X.X.X.X.X.X.X.X.X.U B U B X.X.X.X.X.X.R &.",
"X.X.X.X.X.X.X.X.X.X.X.X.X.X.X.X.X.X.X.X.X.B B X.X.X.X.X.X.X.R &.",
"X.X.X.X.X.X.X.X.X.X.X.X.X.X.X.X.X.X.X.X.X.Y Y X.X.X.X.X.X.X.R &.",
"X.X.X.X.X.X.X.X.X.X.X.X.X.X.X.X. .X.X.X.X.X.X.X.X.X.X.X.X.X.R &.",
"X.X.X.X.X.X.X.X.X.X.X.X.X.X.X. .( Q | X.X.X.X.X.X.X.X.X.X.X.R &.",
"X.X.X.X.X. .X.X.X.X.X.B e X e | ( q X e n  .X.X.X.X.X.X.X.X.R &.",
"X.X.X.X.X.( X.X.X.X.X.v $ # o x M X # $ m ^ X.X.X.X.X.X.X.X.R &.",
"X.X.X.X.X.} o.| X.X.X.N 6 i t > > t i 4 ~ { | X.X.X.X.X.X.X.R &.",
"X.X.X.X.X.[ o._ o.X.X.N 3 g S h h S g 5 ! I X.X.X.X.X.X.X.X.R &.",
"X.X.X.X.X.} o.} W X.X.N * p F K K F p & z U X.X.X.X.X.X.X.X.R &.",
"X.X.X.X.X._ X.} O.X.X.N 7 C L A A L C 4 v +.X.X.X.X.X.X.X.X.R &.",
"X.X.X.X.X.| X.( o.X.X.P w V j d s j V w U X.X.X.X.X.X.X.X.X.R &.",
"X.X.X.X.X.X.X.| X.X.X.l @ 8 u 9 9 u 8 @ l X.X.X.X.X.X.X.X.X.R &.",
" .X.X.X.X.X.X.X.X.X.X.< : C D S S D C : < X.X.X.X.X.X.X.X.X.R %.",
"Q X.X.X.X.X.X.X.X.X.X.; Z 2.2.>.>.2.2.Z ; X.X.X.X.X.X.X.X.X.E =.",
"' X.X.X.X.X.X.X.X.X.X.w J 2.;.:.:.;.2.J w X.X.X.X.X.X.X.X.X.E -.",
"| X.X.X.X.X.X.X.X.X.X.0 J 1.;.:.:.;.2.J 0 X.X.X.X.X.X.X.X.X.R %.",
"X.X.X.X.X.X.X.X.X.X.X.7 S 2.<.,.,.<.2.S 7 X.X.X.X.X.X.X.X.X.R &.",
"X.X.X.X.X.X.X.X.X.X.X.* a H J G G J H a * X.X.X.X.X.X.X.X.X.R &.",
"X.X.X.X.X.X.X.X.X.Y X.* y i 8 % = 8 i r * X.X.X.X.X.X.X.X.X.R &.",
"X.X.X.X.X.X.X.X. .N U $ r 9     o . 2 r > X.X.X.X.X.X.X.X.X.R &.",
"X.X.X.X.X.X.X.X.N Y N , + - O e f > y y > X.X.X.X.X.X.X.X.X.R &.",
"X.X.X.X.X.X.X.X.X.N Y k .   X b Y 1 y r $ X.X.X.X.o.X.X.X.X.R &.",
"X.X.X.X.X.X.X.X.X.X.X.U e   e  .U $ - + , X.X.X.Q ]  .X.X.X.R &.",
"X.X.X.X.X.X.X.X.X.X.X.Y B v B X.P e X , c  ._ ` Q ]  .X.X.X.R &.",
"X.X.X.X.X.X.X.X.X.X.X.X.X.X.X.X.X.X.X.X.X. ._ ` Q { | X.X.X.R &.",
"X.X.X.X.X.X.X.X.X.X.X.X.X.X.X.X.X.X.X.X.X. ._ {  .o.X.X.X.X.R &.",
"X.X.X.X.X.X.X.X.X.X.X.X.X.X.X.X.X.X.X.X.X.X.X.o.X.X.X.X.X.X.R &.",
"X.X.X.X.X.X.X.X.X.X.X.| { Q  .X.X.X.X.X.X.X.X.X.X.X.X.X.X.X.R &.",
"X.X.X.X.X.X.X.X.X.X. .] Q ' Q X.X.X.X.X.X.X.X.X.X.X.X.X.X.X.R &.",
"......................T ) / ................................T $."
};
