/* XPM */
static char *fdeca7c7dadd4e50ab9aaf5bc238ae1aI0eARJaExsnGNKPG[] = {
/* columns rows colors chars-per-pixel */
"32 32 159 2 ",
"   c #00000B",
".  c #030514",
"X  c #060914",
"o  c #0B0C16",
"O  c #0C0D1A",
"+  c #100C1A",
"@  c #220E1F",
"#  c #13221F",
"$  c #1E0920",
"%  c #280924",
"&  c #310B26",
"*  c #340E2A",
"=  c #241524",
"-  c #2F1B24",
";  c #29162D",
":  c #331526",
">  c #301926",
",  c #3D102C",
"<  c #351B2B",
"1  c #3B1E2C",
"2  c #311432",
"3  c #341F38",
"4  c #1B2E27",
"5  c #1E3628",
"6  c #222921",
"7  c #27222E",
"8  c #29222E",
"9  c #2A2A2F",
"0  c #37212E",
"q  c #3D212C",
"w  c #35292B",
"e  c #382D2E",
"r  c #24362C",
"t  c #392034",
"y  c #42132D",
"u  c #411C2F",
"i  c #4D1B32",
"p  c #43242E",
"a  c #48242F",
"s  c #462A2F",
"d  c #472730",
"f  c #4B2532",
"g  c #452A30",
"h  c #4C2B32",
"j  c #522433",
"k  c #5B2537",
"l  c #502E33",
"z  c #5B2D36",
"x  c #572F39",
"c  c #4B3134",
"v  c #543135",
"b  c #5A3337",
"n  c #513836",
"m  c #5E3638",
"M  c #68253B",
"N  c #642D3B",
"B  c #643739",
"V  c #643A3A",
"C  c #6B3E3C",
"Z  c #713F3E",
"A  c #244431",
"S  c #2E4B38",
"D  c #394434",
"F  c #325D3F",
"G  c #3D593C",
"H  c #4D413A",
"J  c #6E413D",
"K  c #72433E",
"L  c #5E703F",
"P  c #385D43",
"I  c #366544",
"U  c #3E6945",
"Y  c #396948",
"T  c #3E744D",
"R  c #3E7751",
"E  c #575741",
"W  c #764540",
"Q  c #794740",
"!  c #764840",
"~  c #7C4942",
"^  c #456143",
"/  c #436D46",
"(  c #4E6F49",
")  c #487043",
"_  c #46744B",
"`  c #467B4E",
"'  c #427D53",
"]  c #4B7F53",
"[  c #407F5B",
"{  c #824D44",
"}  c #8A4947",
"|  c #855246",
" . c #8A5247",
".. c #8A5648",
"X. c #8E5B4A",
"o. c #91514A",
"O. c #915E4B",
"+. c #A25C51",
"@. c #98634E",
"#. c #9E6551",
"$. c #9E6951",
"%. c #807E53",
"&. c #917E55",
"*. c #9C7F57",
"=. c #A66354",
"-. c #A46B53",
";. c #AA6955",
":. c #B26959",
">. c #A77154",
",. c #AC7256",
"<. c #B17D59",
"1. c #BC7A5D",
"2. c #C0745D",
"3. c #C57B60",
"4. c #568047",
"5. c #5F8F4C",
"6. c #448056",
"7. c #488455",
"8. c #4F8957",
"9. c #45835A",
"0. c #4A8C5D",
"q. c #518F5C",
"w. c #5A8D59",
"e. c #45955F",
"r. c #4D925F",
"t. c #5C9454",
"y. c #55945E",
"u. c #5A9A5E",
"i. c #608A56",
"p. c #639F5B",
"a. c #58A15A",
"s. c #75A44E",
"d. c #6DA455",
"f. c #64A957",
"g. c #65A25B",
"h. c #6CA659",
"j. c #6EA958",
"k. c #72AA57",
"l. c #78AE55",
"z. c #70AA58",
"x. c #7CB255",
"c. c #7DB558",
"v. c #468D64",
"b. c #498F62",
"n. c #439362",
"m. c #4D9262",
"M. c #519461",
"N. c #529B68",
"B. c #439271",
"V. c #4E9370",
"C. c #4F9370",
"Z. c #529773",
"A. c #619F6B",
"S. c #72AA66",
"D. c #858455",
"F. c #8E8553",
"G. c #8ABA4F",
"H. c #81B856",
"J. c #C98663",
/* pixels */
"m.m.m.m.m.m.m.m.m.m.m.m.m.m.m.m.m.m.m.m.N.0.9.N.m.m.m.m.m.m.m.Z.",
"m.0.m.m.m.m.m.m.m.m.m.m.m.m.m.m.m.m.m.m.9.' 9.' m.m.m.m.m.m.r.C.",
"m.0.m.m.m.m.m.m.m.m.m.m.m.m.m.m.m.m.m.m.m.' ' m.m.m.m.m.m.m.r.C.",
"m.0.m.m.m.m.m.m.m.m.m.m.m.m.m.m.m.m.m.m.m.0.0.m.m.m.m.m.m.m.r.C.",
"m.0.m.m.m.m.m.m.m.m.m.m.m.m.m.m.b.m.m.m.m.m.m.m.m.m.m.m.m.m.r.C.",
"m.0.m.m.m.m.m.m.m.m.m.m.m.m.m.b.g.u.v.m.m.m.m.m.m.m.m.m.m.m.r.C.",
"m.0.m.m.m.b.m.m.m.m.m.m.m.m.m.v.j.x.u.m.m.b.m.m.m.m.m.m.m.m.r.C.",
"m.0.m.m.m.g.m.m.m.m.m.m.m.m.m.v.h.G.g.v.u.p.m.m.m.m.m.m.m.m.r.C.",
"m.0.m.m.m.x.M.v.m.m.m.m.m.m.m.m.y.c.t.9.H.d.[ 9.0.m.m.m.m.m.r.C.",
"m.0.m.m.m.l.y.p.y.y.m.m.m.m.m.m.m.0.5.s.L n f h v ( m.m.m.m.r.C.",
"m.0.m.m.m.F.:.#.#.=.*.w.m.m.q.i.D.%.J.{ , p B C d i H 0.m.m.r.C.",
"m.0.m.w.;.} W ! h <.1.2.F.&.3.=.+.o.b h v J Q J J v i f 0.m.0.C.",
"m.' D N Z b m B O.>.>.<.;.,.~ @.Q p p p K Q b { b d v i H m.r.C.",
"m.r $ > h V { Q ..-.K $.@.{ { K C b h K K ~ W K K { b h i 8.r.C.",
"b.r < - q V Q { | Q Z X.O.C Q Q { C h C { b J W b V B h j E r.C.",
"u.T < % & y j K K { Q Q Q Q Q ~ K m v ~ ~ Q Q ~ ~ l p l p x _ A.",
"j.m.0._ ` ` D : z J ~ Q Q Q Q Q ~ v b B Q C b ~ C K h h s u 6 S.",
"v.0.m.m.m.m.m.0.< k ! W ~ ~ Q ~ Q V h J { { C  .V q h s : g ' C.",
"m.0.m.m.m.m.m.m.0.h k C J K ~ Q C B v b K C K b Q J p : : 0.r.C.",
"m.0.m.m.m.m.m.m.m.m.^ M z K W m V h : & f l C h h V h & _ m.0.C.",
"m.0.m.m.m.m.m.m.m.0.m.] c b h a 1 1 w / e : g p g p p @ 0.m.r.C.",
"m.0.m.m.m.m.m.m.b.' 9.7.f 1 % 5 m.0.m.m.r.0.m.U * p =   T m.r.C.",
"m.0.m.m.m.m.m.m.T 0.Y 2 0 + . I m.m.m.m.m.m.m.0.> < O X # m.r.C.",
"m.0.m.m.m.m.m.m.m.S ; 7 m.A O I m.m.m.m.m.m.m.9 t P R o o ' r.C.",
"m.0.m.m.m.m.m.m.0.8 9 0.m.0.O 4 m.m.m.m.m.m.8 3 G k.9.O O 9.r.C.",
"m.0.m.m.m.m.m.m.m.m.m.m.0.m.T ' m.m.m.m.m.v.) 4.u.k.9.F 6.m.r.C.",
"m.0.m.m.m.m.m.m.m.m.m.m.m.m.m.m.b.m.m.m.m.b.g.j.u.k.v.m.m.m.r.C.",
"m.0.m.m.m.m.m.m.m.m.m.m.m.m.m.m.m.m.m.m.m.b.g.z.b.M.m.m.m.m.r.C.",
"m.0.m.m.m.m.m.m.m.m.m.m.m.m.m.m.m.m.m.m.m.m.m.M.m.m.m.m.m.m.r.C.",
"m.m.m.m.m.m.m.m.m.m.m.v.z.u.b.m.m.m.m.m.m.m.m.m.m.m.m.m.m.m.r.C.",
"m.m.m.m.m.m.m.m.m.m.b.k.u.j.u.m.m.m.m.m.m.m.m.m.m.m.m.m.m.m.r.C.",
"n.n.n.n.n.n.n.n.n.n.n.e.f.a.n.n.n.n.n.n.n.n.n.n.n.n.n.n.n.n.e.B."
};
