/* XPM */
static char *c41c41e4334f4f36c0fa372e13365865zo9Pj3gRDlekAUdG[] = {
/* columns rows colors chars-per-pixel */
"32 32 123 2 ",
"   c #040402",
".  c #050A06",
"X  c #0A0B06",
"o  c #070D09",
"O  c #150C05",
"+  c #0C110B",
"@  c #1C1007",
"#  c #13120B",
"$  c #1D120A",
"%  c #161A0E",
"&  c #0D1710",
"*  c #151A11",
"=  c #1B1D11",
"-  c #2E190C",
";  c #301D0F",
":  c #391F0D",
">  c #142317",
",  c #1B2316",
"<  c #142519",
"1  c #1B2C1D",
"2  c #252416",
"3  c #282012",
"4  c #222518",
"5  c #232D1D",
"6  c #292D1C",
"7  c #352011",
"8  c #3C2412",
"9  c #372E17",
"0  c #342D1B",
"q  c #3A3219",
"w  c #192F20",
"e  c #1E3624",
"r  c #1E3826",
"t  c #2C3120",
"y  c #452611",
"u  c #472812",
"i  c #4A2912",
"p  c #412D1D",
"a  c #4B2E18",
"s  c #502C14",
"d  c #4A321C",
"f  c #53341C",
"g  c #5C3419",
"h  c #62391C",
"j  c #314421",
"k  c #2E573A",
"l  c #71411F",
"z  c #794927",
"x  c #724A2C",
"c  c #336344",
"v  c #3A6640",
"b  c #386946",
"n  c #376A49",
"m  c #3A6E49",
"M  c #3D734E",
"N  c #3C7651",
"B  c #447548",
"V  c #407750",
"C  c #427D54",
"Z  c #85512B",
"A  c #8B552D",
"S  c #93592F",
"D  c #995C2F",
"F  c #915B34",
"G  c #9C5E32",
"H  c #9F6033",
"J  c #AA6736",
"K  c #AE6A37",
"L  c #A16639",
"P  c #A86738",
"I  c #B36B37",
"U  c #B26C38",
"Y  c #B96F3A",
"T  c #BA713C",
"R  c #C4763D",
"E  c #CB7B40",
"W  c #5C833F",
"Q  c #538145",
"!  c #458257",
"~  c #4D8856",
"^  c #46845A",
"/  c #4A8B5E",
"(  c #45955F",
")  c #4D925F",
"_  c #51955D",
"`  c #55985F",
"'  c #5B9B5E",
"]  c #659044",
"[  c #619F5C",
"{  c #58A15A",
"}  c #64A957",
"|  c #64A15C",
" . c #6CA658",
".. c #6EA958",
"X. c #72AB57",
"o. c #78AE55",
"O. c #71AB58",
"+. c #7DB254",
"@. c #438760",
"#. c #478E64",
"$. c #498F63",
"%. c #439362",
"&. c #4D9262",
"*. c #519561",
"=. c #539863",
"-. c #529B68",
";. c #439271",
":. c #4F9370",
">. c #529773",
",. c #619F6B",
"<. c #72AA66",
"1. c #D98344",
"2. c #E28A4A",
"3. c #EA8E4A",
"4. c #ED8F4A",
"5. c #EC8F4C",
"6. c #EE914B",
"7. c #ED904C",
"8. c #F0914B",
"9. c #F0924C",
"0. c #F4954D",
"q. c #FE9950",
"w. c #FF9C52",
/* pixels */
"&.&.&.&.&.&.&.&.&.&.&.&.&.&.&.&.&.&.&.&.-./ ! -.&.&.&.&.&.&.&.>.",
"&.&.&.&.&.&.&.&.&.&.&.&.&.&.&.&.&.&.&.&.! C ^ C &.&.&.&.&.&.) :.",
"&.&.&.&.&.&.&.&.&.&.&.&.&.&.&.&.&.&.&.&.&.C C &.&.&.&.&.&.&.) :.",
"&.&.&.&.&.&.&.&.&.&.&.&.&.&.&.&.&.&.&.&.&./ / &.&.&.&.&.&.&.) :.",
"&.&.&.&.&.&.&.&.&.&.&.&.&.&.&.&.$.&.&.&.&.&.&.&.&.&.&.&.&.&.) :.",
"&.&.&.&.&.&.&.&.&.&.&.&.&.&.&.$.| ' #.&.&.&.&.&.&.&.&.&.&.&.) :.",
"&.&.&.&.&.$.&.&.&.&.&.! e # 1 @. .j # 1 N $.&.&.&.&.&.&.&.&.) :.",
"&.&.&.&.&.| &.&.&.&.&.C 4 p # c Q % p 2 B [ &.&.&.&.&.&.&.&.) :.",
"&.&.&.&.&.+.*.#.&.&.&.C t x f 2 2 d x 0 ] O.#.&.&.&.&.&.&.&.) :.",
"&.&.&.&.&.o.*.| *.&.&.C 6 G E U I E J q W ~ &.&.&.&.&.&.&.&.) :.",
"&.&.&.&.&.+.*.+.` &.&.C 6 I q.6.4.q.R 9 v ^ &.&.&.&.&.&.&.&.) :.",
"&.&.&.&.&.| &.+.=.&.&.C 6 Y w.6.4.w.E 0 n -.&.&.&.&.&.&.&.&.) :.",
"&.&.&.&.&.#.&.| *.&.&.^ 5 z J G G J Z 6 C &.&.&.&.&.&.&.&.&.) :.",
"&.&.&.&.&.&.&.#.&.&.&.m & 7 f a a f 8 + c &.&.&.&.&.&.&.&.&.) :.",
"$.&.&.&.&.&.&.&.&.&.&.w ; A J H H J S 8 < &.&.&.&.&.&.&.&.&.) :.",
"' &.&.&.&.&.&.&.&.&.&., D 9.9.3.3.9.0.J 3 &.&.&.&.&.&.&.&.&._ ,.",
"..&.&.&.&.&.&.&.&.&.&.6 P 5.1.1.1.1.4.T 0 &.&.&.&.&.&.&.&.&._ <.",
"#.&.&.&.&.&.&.&.&.&.&.5 F 2.1.1.1.1.2.L 6 &.&.&.&.&.&.&.&.&.) :.",
"&.&.&.&.&.&.&.&.&.&.&.1 A 3.9.4.4.8.7.H 2 &.&.&.&.&.&.&.&.&.) :.",
"&.&.&.&.&.&.&.&.&.&.&., h I T K K T Y l = &.&.&.&.&.&.&.&.&.) :.",
"&.&.&.&.&.&.&.&.&./ &.> y g 7 $ $ ; g y * &.&.&.&.&.&.&.&.&.) :.",
"&.&.&.&.&.&.&.&.$.V ^ * 8 y     o . : i = &.&.&.&.&.&.&.&.&.) :.",
"&.&.&.&.&.&.&.&.V / V 1 O - O 1 k 1 y s = &.&.&.&.&.&.&.&.&.) :.",
"&.&.&.&.&.&.&.&.&.V / m o   X M / 1 u y # &.&.&.&.*.&.&.&.&.) :.",
"&.&.&.&.&.&.&.&.&.&.&./ r . 1 / / * - @ > &.&.&.' X.$.&.&.&.) :.",
"&.&.&.&.&.&.&.&.&.&.&.$.C M C &.^ e X < b $.|  .' X.$.&.&.&.) :.",
"&.&.&.&.&.&.&.&.&.&.&.&.&.&.&.&.&.&.&.&.&.$.|  .' O.#.&.&.&.) :.",
"&.&.&.&.&.&.&.&.&.&.&.&.&.&.&.&.&.&.&.&.&.$.| O.$.*.&.&.&.&.) :.",
"&.&.&.&.&.&.&.&.&.&.&.&.&.&.&.&.&.&.&.&.&.&.&.*.&.&.&.&.&.&.) :.",
"&.&.&.&.&.&.&.&.&.&.&.#.O.' $.&.&.&.&.&.&.&.&.&.&.&.&.&.&.&.) :.",
"&.&.&.&.&.&.&.&.&.&.$.X.' ..' &.&.&.&.&.&.&.&.&.&.&.&.&.&.&.) :.",
"%.%.%.%.%.%.%.%.%.%.%.( } { %.%.%.%.%.%.%.%.%.%.%.%.%.%.%.%.( ;."
};
