/* XPM */
static char *_698cc61d5ae414fa9ef1862a638e1f4bUbsok4OkBJ82JuL[] = {
/* columns rows colors chars-per-pixel */
"64 64 254 2 ",
"   c #021B00",
".  c #1A0C01",
"X  c #361807",
"o  c #012400",
"O  c #002C00",
"+  c #092507",
"@  c #162604",
"#  c #013400",
"$  c #043C01",
"%  c #0A3C03",
"&  c #0C3A07",
"*  c #163802",
"=  c #0D3D11",
"-  c #273906",
";  c #2E2D04",
":  c #313E20",
">  c #4C100C",
",  c #721310",
"<  c #55280B",
"1  c #463709",
"2  c #4C3410",
"3  c #6E3110",
"4  c #4E3D21",
"5  c #034301",
"6  c #0B4301",
"7  c #034C00",
"8  c #0B4B01",
"9  c #0F440A",
"0  c #134C02",
"q  c #164705",
"w  c #055401",
"e  c #0C5302",
"r  c #0A5C03",
"t  c #145202",
"y  c #1A5403",
"u  c #1D5C03",
"i  c #1B540B",
"p  c #195807",
"a  c #164917",
"s  c #1D5214",
"d  c #264A04",
"f  c #225D02",
"g  c #255C06",
"h  c #265C13",
"j  c #375309",
"k  c #0A6B01",
"l  c #186702",
"z  c #1A7105",
"x  c #047203",
"c  c #256202",
"v  c #2A6403",
"b  c #2B6C03",
"n  c #2C6B0C",
"m  c #276708",
"M  c #316D05",
"N  c #336A0A",
"B  c #2B7507",
"V  c #337203",
"C  c #3C7B04",
"Z  c #33720B",
"A  c #3C7B0B",
"S  c #367906",
"D  c #296712",
"F  c #336A19",
"G  c #387715",
"H  c #267712",
"J  c #1C4C23",
"K  c #245527",
"L  c #2A5B33",
"P  c #204F26",
"I  c #2E6237",
"U  c #346839",
"Y  c #3D7339",
"T  c #346D26",
"R  c #45420A",
"E  c #46580A",
"W  c #545710",
"Q  c #6E5512",
"!  c #496B09",
"~  c #447B0B",
"^  c #437E17",
"/  c #597211",
"(  c #64761C",
")  c #6D6B17",
"_  c #725426",
"`  c #47722A",
"'  c #6C682A",
"]  c #366945",
"[  c #3C734A",
"{  c #3F7A50",
"}  c #437C4C",
"|  c #467C41",
" . c #427D53",
".. c #407651",
"X. c #842516",
"o. c #8E3515",
"O. c #AB3418",
"+. c #9B2321",
"@. c #C8332B",
"#. c #D83530",
"$. c #D33D29",
"%. c #8F4C18",
"&. c #B25912",
"*. c #846A1D",
"=. c #94502C",
"-. c #B14E2A",
";. c #B2722F",
":. c #8C682B",
">. c #C95814",
",. c #CC5A31",
"<. c #DA6E34",
"1. c #F86E38",
"2. c #EA6223",
"3. c #915644",
"4. c #A65D4F",
"5. c #AC6F51",
"6. c #CF5941",
"7. c #E55244",
"8. c #C8714E",
"9. c #F66F45",
"0. c #DA706A",
"q. c #1A8702",
"w. c #2B8605",
"e. c #3A8608",
"r. c #399608",
"t. c #3A8216",
"y. c #30920A",
"u. c #3AA30C",
"i. c #44850C",
"p. c #478A09",
"a. c #4E920B",
"s. c #47980A",
"d. c #54980D",
"f. c #478716",
"g. c #528C1A",
"h. c #499317",
"j. c #569816",
"k. c #5A860F",
"l. c #6D8E16",
"z. c #58A317",
"x. c #4BA915",
"c. c #64AA1C",
"v. c #6CB51C",
"b. c #71B71F",
"n. c #4A9325",
"m. c #579926",
"M. c #508B32",
"N. c #6D9428",
"B. c #58A524",
"V. c #54B22A",
"C. c #67AA29",
"Z. c #69B329",
"A. c #72B92A",
"S. c #68AA31",
"D. c #6CB532",
"F. c #74BB35",
"G. c #77AA29",
"H. c #7CC52B",
"J. c #7AC537",
"K. c #72D131",
"L. c #58C215",
"P. c #3E9261",
"I. c #3D9251",
"U. c #498349",
"Y. c #538B46",
"T. c #5B9446",
"R. c #458255",
"E. c #468459",
"W. c #47885C",
"Q. c #498B5D",
"!. c #478956",
"~. c #4B9154",
"^. c #4B9A5D",
"/. c #5B9C5E",
"(. c #54975B",
"). c #609F5D",
"_. c #629844",
"`. c #58A359",
"'. c #69A742",
"]. c #77B946",
"[. c #6AA55A",
"{. c #6EA859",
"}. c #64A25B",
"|. c #74AC56",
" X c #77AD57",
".X c #7CB254",
"XX c #73A34B",
"oX c #468D64",
"OX c #4A8F62",
"+X c #429463",
"@X c #4D9262",
"#X c #529262",
"$X c #539C68",
"%X c #54A06B",
"&X c #58A770",
"*X c #7EC642",
"=X c #A3AF15",
"-X c #8B8C31",
";X c #8DAF36",
":X c #838917",
">X c #EEA50F",
",X c #E19B1E",
"<X c #83CC3B",
"1X c #81C739",
"2X c #88D43A",
"3X c #8AD433",
"4X c #95E73E",
"5X c #8DE83B",
"6X c #AEF73A",
"7X c #EBCA01",
"8X c #F0E809",
"9X c #B19A47",
"0X c #8EB751",
"qX c #ACAA4A",
"wX c #FE8F4E",
"eX c #FAB146",
"rX c #DB8F68",
"tX c #F08D6E",
"yX c #D7A15C",
"uX c #84CD44",
"iX c #8DDA43",
"pX c #89D645",
"aX c #93DC44",
"sX c #99C648",
"dX c #B1D24E",
"fX c #94E244",
"gX c #9CEB4B",
"hX c #99E647",
"jX c #9AF549",
"kX c #9DFD55",
"lX c #8DF347",
"zX c #A2ED4B",
"xX c #A3F34D",
"cX c #A5F84B",
"vX c #A1EE51",
"bX c #ACFB53",
"nX c #A7F552",
"mX c #B2FE55",
"MX c #B4FE5A",
"NX c #BAFE5B",
"BX c #BAFF61",
"VX c #FFD44C",
"CX c #C4FD57",
"ZX c #FBD374",
"AX c #C8FE65",
"SX c #DFDB53",
"DX c #549595",
"FX c #5A9593",
"GX c #4A8D91",
"HX c #6FA88D",
"JX c #5CA3A3",
"KX c #FCB28E",
"LX c #FFD28B",
"PX c #FFDD99",
/* pixels */
"%X%X%X%X%X%X%X%X%X%X%X%X%X%X%X%X%X%X%X%X%X%X%X%X%X%X%X%X%X%X%X%X%X%X%X%X%X%X%X$X%X&X$XOXW.$X%X%X$X$X%X%X%X%X%X%X%X%X%X%X%X(.(.JX",
"@X@X@X@X@X@X@X@X@X@X@X@X@X@X@X@X@X@X@X@X@X@X@X@X@X@X@X@X@X@X@X@X@X@X@X@X@X@X@X@X@X@XW...[ E.@X@X@X@X@X@X@X@X@X@X@X@X@X@X@X~.~.DX",
"@X@X@X@X@X@X@X@X@X@X@X@X@X@X@X@X@X@X@X@X@X@X@X@X@X@X@X@X@X@X@X@X@X@X@X@X@X@X@X@XQ.E. .E.W. . .W.@X@X@X@X@X@X@X@X@X@X@X@X@X~.~.DX",
"@X@X@X@X@X@X@X@X@X@X@X@X@X@X@X@X@X@X@X@X@X@X@X@X@X@X@X@X@X@X@X@X@X@X@X@X@X@X@X@XQ.....W.OX .{ E.@X@X@X@X@X@X@X@X@X@X@X@X@X~.~.DX",
"@X@X@X@X@X@X@X@X@X@X@X@X@X@X@X@X@X@X@X@X@X@X@X@X@X@X@X@X@X@X@X@X@X@X@X@X@X@X@X@XQ.W. .R.R. .E.W.@X@X@X@X@X@X@X@X@X@X@X@X@X~.~.DX",
"@X@X@X@X@X@X@X@X@X@X@X@X@X@X@X@X@X@X@X@X@X@X@X@X@X@X@X@X@X@X@X@X@X@X@X@X@X@X@X@X@X@XQ...[ W.@X@X@X@X@X@X@X@X@X@X@X@X@X@X@X~.~.DX",
"@X@X@X@X@X@X@X@X@X@X@X@X@X@X@X@X@X@X@X@X@X@X@X@X@X@X@X@X@X@X@X@X@X@X@X@X@X@X@X@X@X$X@XW.R.Q.$X@X@X@X@X@X@X@X@X@X@X@X@X@X@X~.~.DX",
"@X@X@X@X@X@X@X@X@X@X@X@X@X@X@X@X@X@X@X@X@X@X@X@X@X@X@X@X@X@X@X@X@X@X@X@X@X@X@X@X@X@X@X@X@X@X@X@X@X@X@X@X@X@X@X@X@X@X@X@X@X~.~.DX",
"@X@X@X@X@X@X@X@X@X@X@X@X@X@X@X@X@X@X@X@X@XQ.W.W.W.W.W.W.W.W.W.W.W.R.'.bXhXhX| @X@XQ.Q.@X@X@X@X@X@X@X@X@X@X@X@X@X@X@X@X@X@X~.~.DX",
"@X@X@X@X@X@X@X@X@X@X@X@X@X@X@X@X@X@X@X@X@XU.F.f.K P ` '.m.n.].` F m.A.3XA.G 9 L @XT.Y.@X@X@XOX@X@X@X@X@X@X@X@X@X@X@X@X@X@X~.~.DX",
"@X@X@X@X@X@X@X@X@X@X@X@X@X@X@X@X@X@X@XW.Y.bXjXZ 8 D H.MX6Xb.D.e.B t.n n p o # 9 I J.hXY.T.} @X@X@X@X@X@X@X@X@X@X@X@X@X@X@X~.~.DX",
"@X@X@X@X@X@X@X@X@X@X@X@X@X@X@X@X@X@X@XR.].hXn.# o g m.J.H.t.t b b 6 $ $ 6 0 i y u G F.hXgXU.@X@X@X@X@X@X@X@X@X@X@X@X@X@X@X~.~.DX",
"@X@X@X@X@X@X@X@X@X@X@X@X@X@X@X@X@X@X@X@XQ.K 8 $ $ 6 0 i 8 e b d.z.f.f.i.p.a.A t 6 6 u n } @X@X@X@X@X@X@X@X@X@X@X@X@X@X@X@X~.~.DX",
"@X@X@X@X@X@X@X@X@X@X@X@XOX@X@X@X@X@X} _.Y.M.n.m 8 # # $ . X z w.n Z J.hX3X3XZ.D $ O 6 g T Y Y @X@X@X@X@X@X@X@X@X@X@X@X@X@X~.~.DX",
"@X@X@X@X@X@X@X@X@X#X/./.#X@X .} } R.'.NXjXxX3Xa.0 # 6 - =.8.Q j w u B.gXMXMXD.p 5 $ 0 m B z.m.U.Q.@X@X@X@X@X@X@X@X@X@X@X@X~.~.DX",
"@X@X@X@X@X@X@X@XOX/.{.{./.W.'.bXhXhXvX2Xc.a.a.p.t 5 d , yXLX#.Q w.V 0 n.nXvXf.O 0 y t 0 u b z.hXU.@X@X@X@X@X@X@X@X@X@X@X@X~.~.DX",
"@X@X@X@X@X@X@XOXoX/. X.X(.].mXbXjXbXNXzXH.d.b 8 6 u f * 6.9.Q N e.V c b f.^ k - +.( u.f.g.n l h.[ @X@X@X@X@X@X@X@X@X@X@X@X~.~.DX",
"@X@X@X@X@X@X@X@XE.T._.M.` D.x.G.qXD.V.m.f.b b t.Z C B 7 X 3 w.V.c.p.a.V 8 e R -.wX<.-XZ.A.G # $ J ] I U  .@X@X@X@X@X@X@X@X~.~.DX",
"@X@X@X@XW.E.W.OXM.nXcXH.V 6 O 3.tXW $ # $ e B.xXH.d.p.y # p D.vXfXb.A.c.s.s.%.1.VX1.=.B.z.Z 0 u p 6 6 r.T W.@X@X@X@X@X@X@X~.~.DX",
"@X@X@X@XY.aX].m.n D c.4XH.V 3.KXPX7.3 l f C.nXgXhXH.j.p.b e.F.gXxXaXaXfX2Xv.j.;.7.%.^ m.n t c S s.B $ Z x.G  .@X@X@X@X@X@X~.~.DX",
"@X@XR.T.nXCX5Xz.# $ A.bXgXJ.qXtXtX-.W l r w.<XnXMXbX3Xv.V y Z D.nXMXMXbXJ.G y.j.%.j q.g.V f z q.*.=.z l h Y W.@X@X@X@X@X@X~.~.DX",
"@X@XR.].iXZ.S $ + ` F.jXnXhXL.Q O.! q.M F % B <XJ.uXF.i.6 o o n Z.J.<XD.F # 0 e.y.e.p.p.a.e.V ! >.2.( p J W.@X@X@X@X@X@X@X~.~.DX",
"@X@X@XQ.K e $ # =.0.h V.zXc.d.~ ! p.r.N.0.' k V i 9 0 6 # # # 6 0 0 f i $ $ 6 l B j.C.a.d.u./ @.>X>XX.E w.F  .@X@X@X@X@X@X~.~.DX",
"@X@XQ.I + e S.3.KXLX@.2 H b b h.K.K.9XtXZX9.3 V l # # n.F.B.C 0 # 6 0 u c v z k t i g.A.v.c.N.*.&.o.; v r.Z W.@X@X@X@X@X@X~.~.DX",
"U [ Y K.B h.NXZXKXtX,.1 $ e b Z.gXkXyXtXeX1.=.a.e.y m hXAXcX3Xd.f 0 V p.e.w.l.' $ o i g.f.f.h.r._ _ r.z c n U [ [ @X@X@X@X~.~.DX",
"G Z m.iXA.A.gXlX;.@.l.x.e.S h.c.b.fXK.l.@.:.x.a.e.b e.<XxXgXgX3XZ 6 Z a.e.e.rX0.q $ $ $ # y C j.<XbXhXD # b f.n.T E.@X@X@X~.~.DX",
"[ [ } R.'.NXxXh.E :X3X5X2X2XG Z H.3Xz.f R j B C p.C b i.Z.gXmX3Xb $ v r.N.8.PXLX@.; $ # O m Z.<XgXMXnXF   p F.fXuX].R.@X@X~.~.DX",
"@X@X@X@XM.fXm.c r.5XnXBXmX4Xm $ f.Z f y k l M a.d.i.c 0 f f.m.e.e # 6 e h 3.tXwX-.j w 0 $ f A.bXgXF.C.Z o & iXAXmX4X` @X@X~.~.DX",
"@X@X@XOXU m u z.4XhXiXiXJ.a.y O # 6 Z j.d.S i.C.d.p.j.i.y O # d j 6 $ 6 8 5 3 O.l z V v 6 $ A J.Z.b u V v D F.gXJ.f.[ @X@X~.~.DX",
"@XoX@X@XQ.I p.4X4Xc.p.m i 0 6 O 6 S.fXfXaXa.C C.p.z.fXhXj.t e 4.5.z 8 m.J.Z - d f f c f 6 # 8 e m M b V Z.J.F m F R.@X@X@X~.!.DX",
"#XOX@X@X@X} z.B.^ u 7 # O # # # Z zXAXnXkXD.e.h.d.1XMXMXjX;X5.eX,Xo.l.lXnX1Xt.r f c v v f 7 O > j u.A.A.gXhXi   q I U K L ~.~.FX",
"{.}.(.} !.M.j.8 o # @ & $ # $ c a.C.iXcX6X;XE f A F.fXpXK.0XrX>X>X7.dXkXgXnXaXj.M f.c.j.e.q < >.&.G.vXnXmXiXD o 0 p.B l u T _.HX",
" X{.U.uXvX<Xg.t $ * , 1 $ $ v d.f.6 n.CX8X>.> 6 8 f.D.m.M b i.O.<.hXgXhXhXhXnXJ.e.A.nXiXx.3 $.7X2.,.hXjXnXiXn O t f.Z t i u ` HX",
"[.Y.gXmXD.D p 5 . o.eX,.o.C.z.a.A $ w ( >.X.@ # $ 7 w y q B K.qXdXkXn.m.vXbXJ.b f F.NXnX2X;X9X1.o.( nXNX<XG g 6 5 r < 3 r K Y.HX",
"#X} ].F.n o # w 1 -.eXwXyXbX5XZ.g.i O   > @ 7 0 5 - 4 6 $ f.nXkXK.C.0 0 S.<Xp.u h.iXgXpXgXkXaX-.; x Z.J.^ $ u t * ; >.>.1 U.~.DX",
"@XoX[ ^ h.g 6 M r.( @.9XlXhXxXaXm.i # $ 6 $ 0 c t 5.tX) # D pXA.b t v y 0 ~ d.A.gXnXF.m.<XbXfXv.M 0 f t y f b r - +.>X>X, U !.DX",
"@X} uXiXZ.y # V d.C.dXsXpXnXNXJ.v 6 O $ t u t g 4.KXLX7.> 5 D p t c M f y C H.mXbX2XZ p K.MXbXcXG 6 p.B l M V t # - o.&./ D U DX",
"@XT.AX<XG i G j.j.g.V.G F n.C.f.6 O q M C i.M d _ tXKX,.W r 6 o $ V C V f y f.S.n.Z $ % :.-Xm.C.h 5 B 1 E r.p.M 8 5 . 1 y.w.i ] ",
"W.T.J.n # i n.g.f.v $ # $ $ 6 f f 6 f.H.v.v.~ q k -XrXC.u.~ v t g C p.j.i.i # o @ O 5 * , > # $ 6 $ @ X.%.~ i.e.v 6 9 a s s i i ",
"pXD.n 6 $ 6 0 8 p c y f b B V f v f.J.gXhX3XV 6 B.zXdXgXH.M 6 G c.a.a.H.iXj.w @ +.; 5 % * * 0 y r ; , >X,X, j B v 6 L Q.R.U.U.GX",
"5Xh.# 5 K K # O 0 Z M q.! o.E k A <XNXbXiXf.# & *XAXcXfXc.c $ 0 B.fXhXzX<XH X -.eX,.> # # $ 6 0 V / Q =X=X_ ~ S g $ ] @X@X~.~.DX",
"T s % a OX{ 0 8 c A e.! ;.9.%.d i.A.pXC.G q # y C.2XS.f.f 0 $   D J.uXC.Z 7 < <.VX1.o.t p i 0 0 ^ c.x.h.m.B.z.a.Z p U @X@X~.~.DX",
"@XL K W.@X] h n S S w.o.9.VX-.< S b 0 $ $ M j.a.p.v % $ 6 $ $ $ % 6 6 $ 0 V w.) #.*.r.h.d.~ c y N m.c.z.j.j.j.a.h.j.[ @X@X~.~.DX",
"@X .[ @X@XW.] F p.S b E =.,.*.j 8 6 O % G A.fX2XC.y O 0 c b v B R > o w A p.s.k.) k.s.j.j.S f f k W -.N.L.d.g G Z.Z.Y @X@X~.~.DX",
"@X@X@X@XOX@XQ.h S g K r y > d z 0 $ # t f.fXMX2XZ.N 6 f V A A e./ 3 < j Z b m t.x.z.~ n m i 0 t - %.2.<.-Xj.6 t t.Y  .@X@X~.~.DX",
"@X@X@X@X@X@XW.P 0 a @XI 6 6 # y N 0 $ = 9 S.<Xi.A v 0 y f c m Z B N X.< $ $ O i g.g.f $ $ $ 5 $ > &.7X2.=.h.u $ J W.@X@X@X~.~.DX",
"@X@X@X@X@X@XOX .[  .@X@XL 6 $ 6 0 6 J ] [ K m t 0 q 6 6 6 6 8 w R X.1 % $ $ $ 6 t t 6 6 6 6 6 $ & 2 O.3 q t 8 P W.@X@X@X@X~.~.DX",
"@X@X@X@X@X@X@X@X@X@X@X@X[ 6 6 $ $ 8 K ..W.a # L = $ $ 6 8 % K ] : < q 7 6 6 6 $ # 5 & L L I J 6 7 & X % 5 # 8 L @X@X@X@X@X~.~.DX",
"@X@X@X@X@X@X@X@X@X@X@X@X[ a 6 6 6 9 U W.Q.K L @XJ 8 6 a 9 K @X@X{ a a a a a 9 6 6 6 I @X@XOXE.J 6 5 s s 9 $ 9 ] @X@X@X@X@X~.~.DX",
"@X@X@X@X@X@X@X@X@X@X@X@X@XW.a 8 9 [ @X@X@XW.Q.W.a 8 9 [ W.W.@X@XQ.W.W.W.W.W.K t 6 U @X@X@X(./.W.a q XX[.K 6 [ @X@X@X@X@X@X~.~.DX",
"@X@X@X@X@X@X@X@X@X@X@X@X@X@X@X@X@X@X@X@X@X@X@X@X@X@X@X@X@X@X@X@X@X@X@X@X@X@X@X@X@X@X@XOX#X[.{.#X@X[..X[.@XoX@X@X@X@X@X@X@X~.~.DX",
"@X@X@X@X@X@X@X@X@X@X@X@X@X@X@X@X@X@X@X@X@X@X@X@X@X@X@X@X@X@X@X@X@X@X@X@X@X@X@X@X@X@X@XoX(. X.X).@X[..X[.@XoX@X@X@X@X@X@X@X~.~.DX",
"@X@X@X@X@X@X@X@X@X@X@X@X@X@X@X@X@X@X@X@X@X@X@X@X@X@X@X@X@X@X@X@X@X@X@X@X@X@X@X@X@X@X@XoX(.|..X/.@X{.0X[.@XoX@X@X@X@X@X@X@X~.~.DX",
"@X@X@X@X@X@X@X@X@X@X@X@X@X@X@X@X@X@X@X@X@X@X@X@X@X@X@X@X@X@X@X@X@X@X@X@X@X@X@X@X@X@X@XoX(.|. X).@X).{.}.@XoX@X@X@X@X@X@X@X~.~.DX",
"@X@X@X@X@X@X@X@X@X@X@X@X@X@X@X@X@X@X@X@X@X@X@X@X@X@X@X@X@X@X@X@X@X@X@X@X@X@X@X@X@X@X@XoX(. X.X}.@X#X/.#X@X@X@X@X@X@X@X@X@X~.~.DX",
"@X@X@X@X@X@X@X@X@X@X@X@X@X@X@X@X@X@X@X@X@X@X@X@X@X@X@X@X@X@X@X@X@X@X@X@X@X@X@X@X@X@X@XoX#X[.|.).@XoXOX@X@X@X@X@X@X@X@X@X@X~.~.DX",
"@X@X@X@X@X@X@X@X@X@X@X@X@X@X@X@X@X@X@X@X@X@X@X@X@XoXOX@X@X@X@X@X@X@X@X@X@X@X@X@X@X@X@X@X#X/./.(.@XoX@X@X@X@X@X@X@X@X@X@X@X~.~.DX",
"@X@X@X@X@X@X@X@X@X@X@X@X@X@X@X@X@X@X@X@X@X@X@X@X#X#X#X@X@X@X@X@X@X@X@X@X@X@X@X@X@X@X@X@X@X@XOX@X@X@X@X@X@X@X@X@X@X@X@X@X@X~.~.DX",
"@X@X@X@X@X@X@X@X@X@X@X@X@X@X@X@X@X@X@X@X@X@XoXoX/.{.}.@XoX@X@X@X@X@X@X@X@X@X@X@X@X@X@X@X@X@XOX@X@X@X@X@X@X@X@X@X@X@X@X@X@X~.~.DX",
"@X@X@X@X@X@X@X@X@X@X@X@X@X@X@X@X@X@X@X@X@X@X@X#X[. X{.#X@X@X@X@X@X@X@X@X@X@X@X@X@X@X@X@X@X@X@X@X@X@X@X@X@X@X@X@X@X@X@X@X@X~.~.DX",
"@X@X@X@X@X@X@X@X@X@X@X@X@X@X@X@X@X@X@X@XOX@X).{.[./.}.{.}.#XOX@X@X@X@X@X@X@X@X@X@X@X@X@X@X@X@X@X@X@X@X@X@X@X@X@X@X@X@X@X@X~.~.DX",
"@X@X@X@X@X@X@X@X@X@X@X@X@X@X@X@X@X@X@X@XoX@X[. X}.@X/. X{.#XoX@X@X@X@X@X@X@X@X@X@X@X@X@X@X@X@X@X@X@X@X@X@X@X@X@X@X@X@X@X@X~.~.DX",
"P.P.P.+X+X+X+X+X+X+X+X+X+X+X+X+X+X+X+X+XP.P.^.`.`.`.`.`.^.+XP.+X+XP.P.P.P.P.P.+X+X+XP.P.P.P.+X+X+X+X+XP.P.P.P.P.P.P.P.+X+XI.I.GX",
"#X#X#X#X#X#X#X#X#X#X#X#X#X#X#X#X#X#X#X#X#X#XOX#X[..X{.#XOX#X#X#X#X#X#X#X#X#X#X#X#X#X#X#X#X#X#X#X#X#X#X#X#X#X#X#X#X#X#X#X#X~.~.FX"
};
