/* XPM */
static char *_ed8752057d14c8983eadb7ee96cba036fF7GlbF8p6mwfOA[] = {
/* columns rows colors chars-per-pixel */
"32 32 224 2 ",
"   c #001E00",
".  c #081A01",
"X  c #022D01",
"o  c #162C03",
"O  c #033200",
"+  c #023B00",
"@  c #0A3D00",
"#  c #0A3E0A",
"$  c #163702",
"%  c #292606",
"&  c #293C07",
"*  c #4E1F00",
"=  c #502B0C",
"-  c #4B360B",
";  c #044200",
":  c #0B4503",
">  c #024B00",
",  c #0C4A01",
"<  c #0D420C",
"1  c #134606",
"2  c #134B02",
"3  c #1C4D01",
"4  c #075100",
"5  c #0C5402",
"6  c #035A00",
"7  c #0D5902",
"8  c #145403",
"9  c #195503",
"0  c #135B04",
"q  c #1D5C00",
"w  c #1F560F",
"e  c #0F4511",
"r  c #144815",
"t  c #1B511F",
"y  c #274602",
"u  c #334107",
"i  c #295706",
"p  c #215C03",
"a  c #3F4614",
"s  c #1D6206",
"d  c #186806",
"f  c #1D7206",
"g  c #2A6500",
"h  c #246C03",
"j  c #266807",
"k  c #2C6D02",
"l  c #24650B",
"z  c #2A6308",
"x  c #346807",
"c  c #2B7506",
"v  c #347409",
"b  c #347B0D",
"n  c #397C0B",
"m  c #2C6B12",
"M  c #266218",
"N  c #2C7618",
"B  c #3A7416",
"V  c #317813",
"C  c #3B7D1B",
"Z  c #1C4B25",
"A  c #214E2A",
"S  c #275C2B",
"D  c #275C34",
"F  c #295B33",
"G  c #305D3D",
"H  c #2F6B29",
"J  c #396A2B",
"K  c #2E6534",
"L  c #2F623A",
"P  c #31643B",
"I  c #346938",
"U  c #3F7831",
"Y  c #5A4A09",
"T  c #495603",
"R  c #465A17",
"E  c #6E4D12",
"W  c #605210",
"Q  c #7C5A19",
"!  c #476E09",
"~  c #4B7A0B",
"^  c #426311",
"/  c #516510",
"(  c #477613",
")  c #7A6917",
"_  c #627D10",
"`  c #515A2B",
"'  c #624A28",
"]  c #43783A",
"[  c #687228",
"{  c #376D44",
"}  c #3C754B",
"|  c #3F7950",
" . c #417947",
".. c #437E54",
"X. c #864812",
"o. c #9A6510",
"O. c #827719",
"+. c #BA7417",
"@. c #9E4823",
"#. c #8D4630",
"$. c #A65826",
"%. c #997E21",
"&. c #897833",
"*. c #B27326",
"=. c #B57129",
"-. c #C84A0F",
";. c #DC691A",
":. c #F2701F",
">. c #D96C38",
",. c #DA7831",
"<. c #EE6D3A",
"1. c #9B7252",
"2. c #D3704D",
"3. c #CF7A68",
"4. c #DA7D60",
"5. c #3A8809",
"6. c #378313",
"7. c #3D9613",
"8. c #46870B",
"9. c #46940C",
"0. c #448314",
"q. c #478B13",
"w. c #48861D",
"e. c #5D8D1C",
"r. c #479616",
"t. c #4B941D",
"y. c #569514",
"u. c #599812",
"i. c #6C8015",
"p. c #4CA515",
"a. c #54A214",
"s. c #5AA81D",
"d. c #5AB514",
"f. c #60A817",
"g. c #62A51A",
"h. c #7DAA16",
"j. c #498926",
"k. c #4B9321",
"l. c #5B9829",
"z. c #5B9B2B",
"x. c #55903D",
"c. c #6A8121",
"v. c #749029",
"b. c #5AA526",
"n. c #62AB25",
"m. c #66B82B",
"M. c #72B924",
"N. c #63A637",
"B. c #76A430",
"V. c #63BA35",
"C. c #76BE32",
"Z. c #73D12D",
"A. c #6EC836",
"S. c #75C437",
"D. c #7DC33E",
"F. c #7ACB38",
"G. c #7DD63B",
"H. c #4A8246",
"J. c #538E4A",
"K. c #458354",
"L. c #498452",
"P. c #45855A",
"I. c #498759",
"U. c #4A8B5D",
"Y. c #45945F",
"T. c #4D925E",
"R. c #5B9B5E",
"E. c #699E46",
"W. c #669A5D",
"Q. c #5DA044",
"!. c #58A05A",
"~. c #72B246",
"^. c #69A656",
"/. c #62A05C",
"(. c #6BA659",
"). c #73AB57",
"_. c #70A958",
"`. c #478E64",
"'. c #498F62",
"]. c #439262",
"[. c #4D9262",
"{. c #569B68",
"}. c #4A8F72",
"|. c #439270",
" X c #4F9270",
".X c #529773",
"XX c #7DD142",
"oX c #81961C",
"OX c #8D923A",
"+X c #A29D2F",
"@X c #A9933D",
"#X c #89AF38",
"$X c #80C32E",
"%X c #83CD38",
"&X c #8FD834",
"*X c #86D639",
"=X c #A6DC3B",
"-X c #88E137",
";X c #94E43B",
":X c #A6AD4A",
">X c #BFB34D",
",X c #C2835F",
"<X c #F29253",
"1X c #F18668",
"2X c #FF907E",
"3X c #81C740",
"4X c #8BD843",
"5X c #98DD4A",
"6X c #B1CC4B",
"7X c #92E245",
"8X c #9CE84B",
"9X c #9AFA47",
"0X c #9DF34A",
"qX c #9FEA51",
"wX c #A2EF4B",
"eX c #A7F84D",
"rX c #A7EF52",
"tX c #A2FE53",
"yX c #ABFA56",
"uX c #AEFC5A",
"iX c #BDE560",
"pX c #C4C247",
"aX c #CAEE58",
"sX c #C9FF62",
/* pixels */
"[.[.[.[.[.[.[.[.[.[.[.[.[.[.[.[.[.[.[.[.{.U.P.{.[.[.[.[.[.[.[..X",
"[.[.[.[.[.[.[.[.[.[.[.[.[.[.[.[.[.[.[.[.P...I...[.[.[.[.[.[.T. X",
"[.[.[.[.[.[.[.[.[.[.[.[.[.[.[.[.[.[.[.[.[.K...[.[.[.[.[.[.[.T. X",
"[.[.[.[.[.[.[.[.[.[.[.[.[.[.[.[.[.[.[.[.[.U.U.[.[.[.[.[.[.[.T. X",
"[.[.[.[.[.[.[.[.[.[.I.] L  .H. .I %XS.P I.I.[.[.[.[.[.[.[.[.T. X",
"[.[.[.[.[.[.[.[.[.[.E.t.: F.Z.9.n p + O w.D.L.[.[.[.[.[.[.[.T. X",
"[.[.[.[.[.`.[.[.[.K.x.l + : $ k b l.M.0.+ l ] U.[.[.[.[.[.[.T. X",
"[.[.[.[.[.(.T.J.Q.8X;Xy.; % 2.Q 7 b.uXV O 5 n l.[.[.[.[.[.[.T. X",
"[.[.[.[.U.E.U 7XrXA.n h h y #.c.9.h h W =.v.6.l P ..'.[.[.[.T. X",
"[.[.J.H.j.*X6.1.4.o d 7X;X5.5 *XwX%Xa.*.<.c.V 0 0 f J [.[.[.T. X",
"[.L.0X7.O G.eX@X$.i s A.qXs.+ m 4X5XC x ~ 5.c ! *.^ S [.[.[.T. X",
"[.} 0 R 3.&.r.5.a.:X2.T 0 M C , , p 2 6 f g.d.O.-.T m '.[.[.T. X",
"K j.m.iX<X) 7 r.9X>X>._ d b.sX%X9 c u.OXo 2 v r.#Xk.8 J  .[.T. X",
"} K.3Xs.u.eX;Xm q.g 3 5.8.g l.m.5 4 [ 2XE O @ %XuXk.X 0X8XK.T. X",
"'.[.P a.-Xm.0.X w C.p.q.g.M.s a R 0 B - i q + N 6.k w.N.j.U.T. X",
"R.[.L.t.8     O n.sX=Xx n.yXC.,.,.5X0Xr.c q.2 * O.*XwX: r M S {.",
"^.~.S., % @.R 9.j e.+.o 5 c b +XpXXXyXn.y.tXB.;.*.uXF.: 8 R w W.",
"P.N.l + ) <XaX0Xm   . > ` ' 9 G.r.3 t.f.*X4XtX6Xi 7.j 4 - ;.` }.",
"U.D.V n g.l.V.C.1 ; h p ,X1Xy > 2 g 3 m.V.i OXA.d $ x c & E ! D ",
"N.0.; m j 4 , 8 z %X&Xq B.6X9.3 q.M.t.o % X % : @ X.o.v 5 A K F ",
"t.# F + s ~ *.Y s.8Xw.@ G.G.z O b.*XC X.<.u > 2 ( h.oX0.s I.T. X",
"{ } [.M 5./ >.Q 8 : B $X0.+ 9 9 & 1 h i.%.u.0.q ( v.p.q.s...T. X",
"[.[.[.I i S $ 3 , X l.7Xv 2 k 5.W = 8 l r.k 0 ; E :.[ 7 H [.T. X",
"[.[.[.U.I.[.t > , G P 1 < , : t a & + + , < Z # u Y 1 e [.[.T. X",
"[.[.[.[.[.[.} ; e [.I.| < e { [.} F L : < I.[.} < J e L [.[.T. X",
"[.[.[.[.[.[.[.[.[.[.[.[.[.[.[.[.[.[.[.[.[.'./.(.R.).`.[.[.[.T. X",
"[.[.[.[.[.[.[.[.[.[.[.[.[.[.[.[.[.[.[.[.[.'./.(.R.).'.[.[.[.T. X",
"[.[.[.[.[.[.[.[.[.[.[.[.[.[.[.[.[.[.[.[.[.'./._.'.[.[.[.[.[.T. X",
"[.[.[.[.[.[.[.[.[.[.[.[.[.[.[.[.[.[.[.[.[.[.[.[.[.[.[.[.[.[.T. X",
"[.[.[.[.[.[.[.[.[.[.[.`._.R.'.[.[.[.[.[.[.[.[.[.[.[.[.[.[.[.T. X",
"[.[.[.[.[.[.[.[.[.[.'._.R.(.R.'.[.[.[.[.[.[.[.[.[.[.[.[.[.[.T. X",
"].].].].].].].].].].].Y.^.!.].].].].].].].].].].].].].].].].Y.|."
};
