/* XPM */
static char *_f66f19793c24247fcad73cd5d768e99KJF1vSftiBKoJODo[] = {
/* columns rows colors chars-per-pixel */
"64 64 228 2 ",
"   c #0C101C",
".  c #090D22",
"X  c #0E1524",
"o  c #121A28",
"O  c #141D21",
"+  c #1B1C38",
"@  c #151236",
"#  c #142124",
"$  c #17232A",
"%  c #1A2B2D",
"&  c #182729",
"*  c #1D3827",
"=  c #1B3229",
"-  c #1C233C",
";  c #1C2B31",
":  c #1F3434",
">  c #223B2F",
",  c #213C34",
"<  c #223538",
"1  c #20243D",
"2  c #294838",
"3  c #2D553C",
"4  c #2F593F",
"5  c #355B3B",
"6  c #30453D",
"7  c #291D42",
"8  c #1F2D43",
"9  c #252A47",
"0  c #2A364A",
"q  c #353B4A",
"w  c #293451",
"e  c #2C3C57",
"r  c #34345B",
"t  c #363A5A",
"y  c #3A395A",
"u  c #302D50",
"i  c #343B64",
"p  c #2D4947",
"a  c #36444F",
"s  c #335D42",
"d  c #364559",
"f  c #3B5457",
"g  c #28445B",
"h  c #356345",
"j  c #366548",
"k  c #396B49",
"l  c #3B6B46",
"z  c #3E754F",
"x  c #3F7751",
"c  c #377355",
"v  c #1F416A",
"b  c #344164",
"n  c #3C4463",
"m  c #34446A",
"M  c #3D4B6A",
"N  c #374B66",
"B  c #375665",
"V  c #2D5678",
"C  c #3B5274",
"Z  c #3E5977",
"A  c #36577B",
"S  c #31496E",
"D  c #3E6064",
"F  c #474A55",
"G  c #54585C",
"H  c #437C54",
"J  c #407651",
"K  c #43794F",
"L  c #434C6B",
"P  c #444967",
"I  c #43546E",
"U  c #4A5668",
"Y  c #485768",
"T  c #435574",
"R  c #455B7A",
"E  c #495A76",
"W  c #575E62",
"Q  c #52646E",
"!  c #537B6D",
"~  c #47637A",
"^  c #536475",
"/  c #587478",
"(  c #4B7070",
")  c #656A6D",
"_  c #3D9251",
"`  c #3E9261",
"'  c #56874C",
"]  c #5E974F",
"[  c #458157",
"{  c #468359",
"}  c #4A8C5E",
"|  c #478A59",
" . c #4B9154",
".. c #4B9A5D",
"X. c #509253",
"o. c #54965F",
"O. c #569A5E",
"+. c #5B9C5E",
"@. c #5B9753",
"#. c #609F5D",
"$. c #659B53",
"%. c #62944E",
"&. c #58A359",
"*. c #64A15C",
"=. c #6AA55A",
"-. c #6EA859",
";. c #6FA857",
":. c #75AC56",
">. c #79AE54",
",. c #71AA58",
"<. c #71A657",
"1. c #7CB255",
"2. c #7AB258",
"3. c #6BA648",
"4. c #468D64",
"5. c #498F63",
"6. c #429463",
"7. c #4E9463",
"8. c #4F9564",
"9. c #4D9262",
"0. c #529560",
"q. c #529362",
"w. c #529865",
"e. c #549F6B",
"r. c #5B9D61",
"t. c #5A8C7A",
"y. c #54A06B",
"u. c #56A46E",
"i. c #58A770",
"p. c #81B554",
"a. c #88BA52",
"s. c #83B956",
"d. c #8AC056",
"f. c #38678A",
"g. c #3D7395",
"h. c #3D708F",
"j. c #4D6B86",
"k. c #486785",
"l. c #526A86",
"z. c #5A6D85",
"x. c #4A748D",
"c. c #467088",
"v. c #5A738B",
"b. c #547089",
"n. c #487894",
"m. c #577B95",
"M. c #677D93",
"N. c #6F7A85",
"B. c #3E8CA8",
"V. c #47869C",
"C. c #54829C",
"Z. c #4A9399",
"A. c #549595",
"S. c #549595",
"D. c #5A9696",
"F. c #59818F",
"G. c #688982",
"H. c #68988D",
"J. c #698398",
"K. c #659898",
"L. c #759F94",
"P. c #6BA58F",
"I. c #7AA898",
"U. c #77B499",
"Y. c #73AD93",
"T. c #478BA5",
"R. c #4F92AA",
"E. c #4D90A3",
"W. c #5297AB",
"Q. c #479CB7",
"!. c #509CB3",
"~. c #508CA4",
"^. c #669CA5",
"/. c #7A97A9",
"(. c #5DA7A8",
"). c #4CA5BC",
"_. c #4CAABE",
"`. c #56A5B9",
"'. c #75B7A5",
"]. c #62BBBE",
"[. c #62B7BA",
"{. c #67ACA8",
"}. c #7DC5AB",
"|. c #6BC2BA",
" X c #79C2B4",
".X c #4DACC3",
"XX c #51ADC1",
"oX c #51B4C6",
"OX c #53BACB",
"+X c #59BECC",
"@X c #51BFD0",
"#X c #60BBC2",
"$X c #5BC1CC",
"%X c #5BC3D4",
"&X c #6AC9C9",
"*X c #78D5C7",
"=X c #73DED8",
"-X c #69D4D3",
";X c #8C9293",
":X c #909DA9",
">X c #889EA8",
",X c #90ACA8",
"<X c #A7AEAA",
"1X c #A4B6B7",
"2X c #B5BCB3",
"3X c #83C7AA",
"4X c #87D7B9",
"5X c #8BCCAC",
"6X c #BDC2B8",
"7X c #ACC0BC",
"8X c #91E2BB",
"9X c #C3C6B7",
"0X c #8CDDC0",
"qX c #BBC7C4",
"wX c #8AE7CA",
"eX c #95F5CC",
"rX c #91F6D8",
"tX c #89EFD0",
"yX c #A2FFD4",
"uX c #A1FFCB",
"iX c #81EEE1",
"pX c #C7D5CF",
"aX c #D8E7DB",
"sX c #E1EDDE",
"dX c #E9F4E6",
"fX c #FEFFFC",
"gX c #F9FDF5",
"hX c #F5F9EA",
/* pixels */
"y.y.y.y.y.y.y.y.y.y.y.y.y.y.y.y.y.y.y.y.y.y.y.y.y.y.y.y.y.y.y.y.y.y.y.y.y.y.y.e.u.i.e.5.} w.u.u.e.e.y.y.y.y.y.y.y.y.y.y.y.O.O.(.",
"9.9.9.9.9.9.9.9.9.9.9.9.9.9.9.9.9.9.9.9.9.9.9.9.9.9.9.9.9.9.9.9.9.9.9.9.9.9.9.9.9.7.} H z { 9.9.9.9.9.9.9.9.9.9.9.9.9.9.9. . .A.",
"9.9.9.9.9.9.9.9.9.9.9.9.9.9.9.9.9.9.9.9.9.9.9.9.9.9.9.9.9.9.9.9.9.9.9.9.9.9.9.8.} { H { { H H } 9.7.9.9.9.9.9.9.9.9.9.9.9. . .A.",
"9.9.9.9.9.9.9.9.9.9.9.9.9.9.9.9.9.9.9.9.9.9.9.9.9.9.9.9.9.9.9.9.9.9.9.9.9.9.9.8.} H J } 5.H z { 7.8.9.9.9.9.9.9.9.9.9.9.9. . .A.",
"9.9.9.9.9.9.9.9.9.9.9.9.9.9.9.9.9.9.9.9.9.9.9.9.9.9.9.9.9.9.9.9.9.9.9.9.9.9.9.8.} { H [ [ H { } 9.8.9.9.9.9.9.9.9.9.9.9.9. . .A.",
"9.9.9.9.9.9.9.9.9.9.9.9.9.9.9.9.9.9.9.9.9.9.9.9.9.9.9.9.9.9.9.9.9.9.9.9.9.9.9.9.9.8.} H z { 8.8.9.9.9.9.9.9.9.9.9.9.9.9.9. . .A.",
"9.9.9.9.9.9.9.9.9.9.9.9.9.9.9.9.9.9.9.9.9.9.9.9.9.9.9.9.9.9.9.9.9.9.9.9.9.9.9.9.7.w.9.{ [ } w.8.9.9.9.9.9.9.9.9.9.9.9.9.9. . .A.",
"9.9.9.9.9.9.9.9.9.9.9.9.9.9.9.9.9.9.9.9.9.9.9.9.9.9.9.9.9.9.9.9.9.9.9.9.9.9.9.9.9.9.9.9.9.9.9.9.9.9.9.9.9.9.9.9.9.9.9.9.9. . .A.",
"9.9.9.9.9.9.9.9.9.9.9.9.9.9.9.9.9.9.9.9.9.9.9.9.9.9.9.9.9.9.9.9.9.5.9.9.9.9.9.9.9.9.9.8.8.7.9.9.9.9.9.9.9.9.9.9.9.9.9.9.9. . .A.",
"9.9.9.9.9.9.9.9.9.9.9.9.9.9.9.9.9.9.9.9.9.9.9.9.9.9.9.9.9.9.9.9.9.9.9.9.9.9.9.9.9.9.9.9.9.9.9.9.9.9.9.9.9.9.9.9.9.9.9.9.9. . .A.",
"9.9.9.9.9.9.9.9.9.9.9.9.9.9.9.9.9.9.9.9.9.9.9.9.9.9.9.9.9.9.9.9.0.#.O.9.4.9.9.9.9.9.9.9.9.9.9.9.9.9.9.9.9.9.9.9.9.9.9.9.9. . .A.",
"9.9.9.9.9.9.9.9.9.9.9.9.9.9.9.9.9.9.9.9.9.9.9.9.9.9.9.9.9.9.9.9.+.:.-.0.4.9.9.9.9.9.9.9.9.9.9.9.9.9.9.9.9.9.9.9.9.9.9.9.9. . .A.",
"9.9.9.9.9.9.9.9.9.9.9.9.9.9.9.9.9.9.9.9.9.9.9.9.9.9.9.9.9.9.5.5.*.1.1.=.O.0.9.9.9.9.9.9.9.9.9.9.9.9.9.9.9.9.9.9.9.9.9.9.9. . .A.",
"9.9.9.9.9.9.9.9.9.9.9.9.9.9.9.9.9.9.9.9.9.9.9.9.9.9.9.9.9.9.5.5.+.:.p.1.=.O.5.9.9.9.9.9.9.9.9.9.9.9.9.9.9.9.9.9.9.9.9.9.9. . .A.",
"9.9.9.9.9.9.9.9.9.0.+.+.0.9.9.9.9.9.9.9.9.9.9.9.9.9.9.9.9.9.5.5.+.:.a.a.,.r.4.4.9.O.+.0.9.9.9.9.9.9.9.9.9.9.9.9.9.9.9.9.9. . .A.",
"9.9.9.9.9.9.9.9.5.O.-.,.+.5.9.9.9.9.9.9.9.9.9.9.9.9.9.9.9.9.5.5.+.:.a.p.-.r.4.4.0.=.,.+.9.9.9.9.9.9.9.9.9.9.9.9.9.9.9.9.9. . .A.",
"9.9.9.9.9.9.9.9.4.+.>.1.#.4.4.9.9.9.9.9.9.9.9.9.9.9.9.9.9.9.9.9.O.*.2.s.;.} { } =.p.p.*.4.5.9.9.9.9.9.9.9.9.9.9.9.9.9.9.9. . .A.",
"9.9.9.9.9.9.9.9.4.O.:.>.#.4.4.5.9.9.9.9.9.9.9.9.9.9.9.9.9.9.9.9.9.9.=.s.<.H x @.1.a.2.*.5.5.9.9.9.9.9.9.9.9.9.9.9.9.9.9.9. . .A.",
"9.9.9.9.9.9.9.9.4.O.:.:.+.9.0.O.0.9.9.9.9.9.9.9.9.9.9.9.9.9.9.9.9.4.o.$.%.' ] >.s.:.@.o.9.9.9.9.9.9.9.9.9.9.9.9.9.9.9.9.9. . .A.",
"9.9.9.9.9.9.9.9.4.O.:.:.O.7.*.-.+.9.9.9.9.9.9.9.9.9.9.9.9.9.9.9.8.8.{ H ' $.p.d.>.' K { 8.8.9.9.9.9.9.9.9.9.9.9.9.9.9.9.9. . .A.",
"9.9.9.9.9.9.9.9.4.O.:.:.O.0.,.1.*.9.5.9.9.9.9.9.9.9.9.9.9.9.9.9.7.8.{ c H $.:.:.@.H c { 8.8.9.9.9.9.9.9.9.9.9.9.9.9.9.9.9. . .A.",
"9.9.9.9.9.9.9.9.4.+.>.1.O.0.-.1.*.9.5.9.9.9.9.9.| k h k k k k k k k j h s 5 5 5 l [ } 5.9.9.9.9.9.9.9.9.9.9.9.9.9.9.9.9.9. . .A.",
"9.9.9.9.9.9.9.9.5.O.=.=.0.0.,.>.*.9.5.9.9.9.9.9.z %   # # # # % % % $ # # O     2 } w.8.5.9.9.9.9.9.9.9.9.9.9.9.9.9.9.9.9. . .A.",
"9.9.9.9.9.9.9.9.9.0.O.O.9.o.:.1.*.9.5.9.9.9.9.x 6 f B g N D d 9 @ + q f B g N Y p s 9.7.9.9.9.9.9.9.9.9.9.9.9.9.9.9.9.9.9. . .A.",
"9.9.9.9.9.9.9.9.9.9.5.4.4.0.=.,.+.9.5.9.9.9.z = f U. XV.(.}.H.d @ 7 / }.|.V.(.3X! $ 4 9.9.9.5.9.9.9.9.9.9.9.9.9.9.9.9.9.9. . .A.",
"9.9.9.9.9.9.9.9.9.9.9.9.9.0.O.O.o.9.9.9.9.z , a Y.wXiX%X&X4XL.E i T K.3X*X+X=XrX}.( < s } 9.9.9.9.9.9.9.9.9.9.9.9.9.9.9.9. . .A.",
"9.9.9.9.9.9.9.9.9.9.9.9.9.9.5.5.5.9.9.9.z = p U.wX|.+X+XW./ U E x.T.x.I x.XX%X#X*X4X! $ 4 9.9.9.9.9.9.9.9.9.9.9.9.9.9.9.9. . .A.",
"9.9.9.9.9.9.9.9.9.9.9.9.9.9.9.9.9.9.} x 6 F I.4X*X).Q.T.Z r i x.`.oXE.E I x.B.Q.&X4XU.( < h } 9.9.9.9.9.9.9.9.9.9.9.9.9.9. . .A.",
"9.9.9.9.9.9.9.9.9.9.9.9.9.9.9.9.9.9.j = ) 6X7XF.B._.T.Z y L j.R.).Q.[.}.G.n f..XR.^ G.3Xt.< 3 { 9.9.9.9.9.9.9.9.9.9.9.9.9. . .S.",
"9.4.9.9.9.9.9.9.9.9.9.9.9.9.9.9.9.9.2 . :XfXgX:Xm.W.h.n L m.!..XoX].tXyX5X/ ~ V.f.m ^.rX'.0 & { 9.9.9.9.9.9.9.9.9.9.9.9.9. .| Z.",
"O.9.9.9.9.9.9.9.9.9.9.9.9.9.9.9.9.9.3 X ;XhXfXhX1XC.A R n.!..X.X&XwXyXyXuX8XH.E A T.$X-XZ.8 * { 9.9.9.9.9.9.9.9.9.9.9.9.9. . .D.",
"-.*.0.5.9.9.9.9.9.9.9.9.9.9.9.9.9.9.3 X ^ 1XdXaX1Xz.S R x.V.T.n.D.'.,XU.5X4XG.y b V.Q.T.V - > { 9.9.9.9.9.9.9.9.9.9.9.9.9.@.3.P.",
":.-.0.4.9.9.9.9.9.9.9.9.9.9.9.9.9.9.3 o d l.J.M.v.j.T n n M m i n L U U Q ^ U y r m C C e - , { 9.9.9.9.9.9.9.9.9.9.9.5.9.] 3.Y.",
"=.+.0.5.9.9.9.9.9.9.9.9.9.9.9.9.9.9.3 o M J./.J.b.k.C n n M I Q Q U I m i r r r P Q ^ P u + , { 9.9.9.9.9.9.9.9.9.9.9.9.9.@.3.P.",
"0.4.9.9.9.9.9.9.9.9.9.9.9.9.9.9.9.9.2 . N.aXgXaX>Xk.v T c.V.{.3X5X5X{.E.g.k.y u / 3X3Xv.i - = { 9.9.9.9.9.9.9.9.9.9.9.9.9. . .A.",
"9.4.9.9.9.9.9.9.9.9.9.9.9.9.9.9.9.9.k : W 2XfXfXdX:Xl.l.T..X-XwXeXeX=X$XT.j.M C K.0X Xj.9 : 4 | 9.9.9.9.9.9.9.9.9.9.9.9.9. . .S.",
"9.9.9.9.9.9.9.9.9.9.9.9.9.9.9.9.9.9.5.H 2 a 2XfXfXsX:Xb.g.).+X].].].$XOXn.L Z T.`.^.b.e ; j } 9.9.9.9.9.9.9.9.9.9.9.9.9.9. . .A.",
"9.9.9.9.9.9.9.9.9.9.9.9.9.9.9.9.} 9.9.9.H * q <XfXfXpXv.V T.!.Q.Q.Q.).!.~ t ~ `.R.C + $ h 9.9.9.9.9.9.9.9.9.9.9.9.9.9.9.9. . .A.",
"9.9.9.9.9.9.9.9.9.9.9.9.9.9.9.9.9.9.9.9.9.H , q 6XfXaXj.v j.~.!..X).!.C.T t T C.c.w & h 9.9.9.9.9.9.9.9.9.9.9.9.9.9.9.9.9. . .A.",
"9.9.9.9.9.9.9.9.9.9.9.9.9.9.9.9.9.9.9.9.7.9.H * F <XpX,XM.^ x.!.OXXXV.R P L T I 0 & h 9.9.9.5.9.9.9.9.9.9.9.9.9.9.9.9.9.9. . .A.",
"9.9.9.9.9.9.9.9.9.9.9.9.9.9.9.9.9.9.9.9.9.9.9.H , q <XdXpXv.f.).@XoXV.M L l.R w ; h 9.9.9.9.9.9.9.9.9.9.9.9.9.9.9.9.9.9.9. . .A.",
"9.9.9.9.9.9.9.9.9.9.9.9.9.9.9.9.8.9.{ { } 8.8.9.H * G 9XqXv.h.R.`.!.c.n n R e & h 9.9.9.5.9.9.9.9.9.9.9.9.9.9.9.9.9.9.9.9. . .A.",
"9.9.9.9.9.9.9.9.9.9.9.9.9.9.9.9.w.9.H z [ 8.w.9.9.H 6 F z.b.m.n.C.m.k.P t w : h 9.9.9.9.9.9.9.9.9.9.9.9.9.9.9.9.9.9.9.9.9. . .A.",
"9.9.9.9.9.9.9.9.9.9.9.9.9.9.7.9.} { H H H { } 9.7.9.H * @ N k.E E E L t - $ h 9.9.9.5.9.9.9.9.9.9.9.9.9.9.9.9.9.9.9.9.9.9. . .A.",
"9.9.9.9.9.9.9.9.9.9.9.9.9.9.8.} H z { 5.[ z H 9.8.9.9.H , - b P E L t 9 % h 9.9.9.9.9.9.9.9.9.9.9.9.9.9.9.9.9.9.9.9.9.9.9. . .A.",
"9.9.9.9.9.9.9.9.9.9.9.9.9.9.8.} [ H { } H H { 9.7.9.9.9.H > + 9 t u 1 % h 9.9.9.5.9.9.9.9.9.9.9.9.9.9.9.9.9.9.9.9.9.9.9.9. . .A.",
"9.9.9.9.9.9.9.9.9.9.9.9.9.9.9.9.9.} H x H } 9.9.9.9.9.9.9.H 2 - 9 9 < j 9.9.9.9.9.9.9.9.9.9.9.9.9.9.5.9.9.9.9.9.9.9.9.9.9. . .A.",
"9.9.9.9.9.9.9.9.9.9.9.9.9.9.9.9.w.7.[ H { 8.w.9.9.9.9.9.9.9.x , o % s 9.9.9.5.9.9.9.9.9.9.9.9.9.9.O.O.0.9.9.9.9.9.9.9.9.9. . .A.",
"9.9.9.9.9.9.9.9.9.9.9.9.9.9.9.9.7.9.} } } 9.7.9.9.9.9.9.9.9.} z k k [ 9.9.9.9.9.9.9.9.9.9.5.4.4.0.*.,.*.9.5.9.9.9.9.9.9.9. . .A.",
"9.9.9.9.9.9.9.9.9.9.9.9.9.9.9.9.9.9.8.8.8.9.9.9.9.9.9.9.9.9.9.9.9.9.9.9.5.9.9.9.9.9.9.9.9.O.O.9.0.-.p.=.9.4.9.9.9.9.9.9.9. . .A.",
"9.9.9.9.9.9.9.9.9.9.9.9.9.9.9.9.9.9.9.9.9.9.9.9.9.9.9.9.9.9.9.9.9.9.9.9.9.9.9.9.9.9.9.5.0.=.-.O.7.=.1.=.9.4.9.9.9.9.9.9.9. . .A.",
"9.9.9.9.9.9.9.9.9.9.9.9.9.9.9.9.9.9.9.9.9.9.9.9.9.9.9.9.9.9.9.9.9.9.9.9.9.9.9.9.9.9.9.4.o.:.1.#.9.=.1.=.9.4.9.9.9.9.9.9.9. . .A.",
"9.9.9.9.9.9.9.9.9.9.9.9.9.9.9.9.9.9.9.9.9.9.9.9.9.9.9.9.9.9.9.9.9.9.9.9.9.9.9.9.9.9.9.4.o.,.1.+.9.-.p.=.9.4.9.9.9.9.9.9.9. . .A.",
"9.9.9.9.9.9.9.9.9.9.9.9.9.9.9.9.9.9.9.9.9.9.9.9.9.9.9.9.9.9.9.9.9.9.9.9.9.9.9.9.9.9.9.4.o.,.>.#.9.#.-.*.9.5.9.9.9.9.9.9.9. . .A.",
"9.9.9.9.9.9.9.9.9.9.9.9.9.9.9.9.9.9.9.9.9.9.9.9.9.9.9.9.9.9.9.9.9.9.9.9.9.9.9.9.9.9.9.4.O.:.1.*.9.0.O.0.9.9.9.9.9.9.9.9.9. . .A.",
"9.9.9.9.9.9.9.9.9.9.9.9.9.9.9.9.9.9.9.9.9.9.9.9.9.9.9.9.9.9.9.9.9.9.9.9.9.9.9.9.9.9.9.4.0.=.,.#.9.4.5.9.9.9.9.9.9.9.9.9.9. . .A.",
"9.9.9.9.9.9.9.9.9.9.9.9.9.9.9.9.9.9.9.9.9.9.9.9.9.4.5.9.9.9.9.9.9.9.9.9.9.9.9.9.9.9.9.9.0.O.+.o.9.5.9.9.9.9.9.9.9.9.9.9.9. . .A.",
"9.9.9.9.9.9.9.9.9.9.9.9.9.9.9.9.9.9.9.9.9.9.9.9.0.0.0.9.9.9.9.9.9.9.9.9.9.9.9.9.9.9.9.9.9.9.5.9.9.9.9.9.9.9.9.9.9.9.9.9.9. . .A.",
"9.9.9.9.9.9.9.9.9.9.9.9.9.9.9.9.9.9.9.9.9.9.4.4.+.-.*.9.4.9.9.9.9.9.9.9.9.9.9.9.9.9.9.9.9.9.5.9.9.9.9.9.9.9.9.9.9.9.9.9.9. . .A.",
"9.9.9.9.9.9.9.9.9.9.9.9.9.9.9.9.9.9.9.9.9.9.9.0.=.>.-.0.9.9.9.9.9.9.9.9.9.9.9.9.9.9.9.9.9.9.9.9.9.9.9.9.9.9.9.9.9.9.9.9.9. . .A.",
"9.9.9.9.9.9.9.9.9.9.9.9.9.9.9.9.9.9.9.9.5.9.#.-.=.+.*.-.*.0.5.9.9.9.9.9.9.9.9.9.9.9.9.9.9.9.9.9.9.9.9.9.9.9.9.9.9.9.9.9.9. . .A.",
"9.9.9.9.9.9.9.9.9.9.9.9.9.9.9.9.9.9.9.9.4.9.=.:.*.9.+.:.-.0.4.9.9.9.9.9.9.9.9.9.9.9.9.9.9.9.9.9.9.9.9.9.9.9.9.9.9.9.9.9.9. . .S.",
"` ` ` 6.6.6.6.6.6.6.6.6.6.6.6.6.6.6.6.6.` ` ..&.&.&.&.&...6.` 6.6.` ` ` ` ` ` 6.6.6.` ` ` ` 6.6.6.6.6.` ` ` ` ` ` ` ` 6.6._ _ Z.",
"q.q.q.q.q.q.q.q.q.q.q.q.q.q.q.q.q.q.q.q.q.q.5.q.=.>.-.0.5.q.q.q.q.q.q.q.q.q.q.q.q.q.q.q.q.q.q.q.q.q.q.q.q.q.q.q.q.q.q.q.q.X.X.D."
};
