/* XPM */
static char *_eb1c8cb43ca4b8aeab4479a58f8e046vWfScmXdm96EdvyF[] = {
/* columns rows colors chars-per-pixel */
"64 64 90 1 ",
"  c #356C4E",
". c #3F754F",
"X c #377355",
"o c #3C7552",
"O c #3F7B56",
"+ c #4E7E4B",
"@ c #407651",
"# c #437C53",
"$ c #497F50",
"% c #3B914E",
"& c #3E9354",
"* c #3E9261",
"= c #53854C",
"- c #5B8C4D",
"; c #5D904F",
": c #5F9E4F",
"> c #458157",
", c #4C8250",
"< c #458D54",
"1 c #458459",
"2 c #48875B",
"3 c #478A5E",
"4 c #4A8C5E",
"5 c #4B9154",
"6 c #4B9A5D",
"7 c #509253",
"8 c #5D9554",
"9 c #569852",
"0 c #5A9B51",
"q c #54965F",
"w c #569A5E",
"e c #5B9C5E",
"r c #62944E",
"t c #649B54",
"y c #689C51",
"u c #609F5D",
"i c #56A25A",
"p c #59A458",
"a c #62A14A",
"s c #6AA549",
"d c #74AD45",
"f c #6FA857",
"g c #64A15C",
"h c #6AA55A",
"j c #6EA859",
"k c #70A553",
"l c #75AC56",
"z c #79AE54",
"x c #71A75A",
"c c #71AA58",
"v c #7CB255",
"b c #7AB258",
"n c #468D64",
"m c #498F63",
"M c #429463",
"N c #4C9162",
"B c #4D9262",
"V c #4F9462",
"C c #4C9365",
"Z c #4F9665",
"A c #529362",
"S c #529561",
"D c #559660",
"F c #509766",
"G c #569860",
"H c #509866",
"J c #5B9D60",
"K c #549F6B",
"L c #54A06B",
"P c #55A26D",
"I c #57A66F",
"U c #58A770",
"Y c #80B453",
"T c #81B655",
"R c #82B855",
"E c #85B954",
"W c #88B851",
"Q c #88BD55",
"! c #81BA58",
"~ c #8AC056",
"^ c #4F9297",
"/ c #45949A",
"( c #539595",
") c #549595",
"_ c #5A9593",
"` c #589894",
"' c #68A38F",
"] c #6EA78E",
"[ c #78AD8B",
"{ c #5CA3A3",
/* pixels */
"LLLLLLLLLLLLLLLLLLLLLLLLLLLLLLLLLLLLLLLKPUKm4HIIKKLLLLLLLLLLLww{",
"BBBBBBBBBBBBBBBBBBBBBBBBBBBBBBBBBBBBBBBBBV4#.1BBBBBBBBBBBBBBB55)",
"BBBBBBBBBBBBBBBBBBBBBBBBBBBBBBBBBBBBBBBZ41#11##4BVBBBBBBBBBBB55)",
"BBBBBBBBBBBBBBBBBBBBBBBBBBBBBBBBBBBBBBBZ4#@4m#.1VZBBBBBBBBBBB55)",
"BBBBBBBBBBBBBBBBBBBBBBBBBBBBBBBBBBBBBBBZ41#>>#14BZBBBBBBBBBBB55)",
"BBBBBBBBBBBBBBBBBBBBBBBBBBBBBBBBBBBBBBBBBZ4#.1ZZBBBBBBBBBBBBB55)",
"BBBBBBBBBBBBBBBBBBBBBBBBBBBBBBBBBBBBBBBBVHB1>4FZBBBBBBBBBBBBB55)",
"BBBBBBBBBBBBBBBBBBBBBBBBBBBBBBBBBBBBBBBBBBBBBBBBBBBBBBBBBBBBB55)",
"BBBBBBBBBBBBBBBBBBBBBBBBBBBBBBBBBmBBBBBBBBBZZVBBBBBBBBBBBBBBB55)",
"BBBBBBBBBBBBBBBBBBBBBBBBBBBBBBBBBBBBBBBBBBBBBBBBBBBBBBBBBBBBB55)",
"BBBBBBBBBBBBBBBBBBBBBBBBBBBBBBBBGuwBnBBBBBBBBBBBBBBBBBBBBBBBB55)",
"BBBBBBBBBBBBBBBBBBBBBBBBBBBBBBBBeljDnBBBBBBBBBBBBBBBBBBBBBBBB55)",
"BBBBBBBBBBBBBBBBBBBBBBBBBBBBBBmmgvvhwSBBBBBBBBBBBBBBBBBBBBBBB55)",
"BBBBBBBBBBBBBBBBBBBBBBBBBBBBBBmmelYvhwmBBBBBBBBBBBBBBBBBBBBBB55)",
"BBBBBBBBBSeeSBBBBBBBBBBBBBBBBBmmelWWlJnnBweDBBBBBBBBBBBBBBBBB55)",
"BBBBBBBBmwjcemBBBBBBBBBBBBBBBBmmelWYjJnnShceBBBBBBBBBBBBBBBBB55)",
"BBBBBBBBnezvunnBBBBBBBBBBBBBBBBBwgvRf414hTTgnmBBBBBBBBBBBBBBB55)",
"BBBBBBBBnwlzunnmBBBBBBBBBBBBBBBBBBh!k$o8vQbgmmBBBBBBBBBBBBBBB55)",
"BBBBBBBBnwlleBDwSBBBBBBBBBBBBBBBmnqtr=;zEl8qBBBBBBBBBBBBBBBBB55)",
"BBBBBBBBnwllwVgjeBBBBBBBBBBBBBBBCC1#=yT~z-#1ZZBBBBBBBBBBBBBBB55)",
"BBBBBBBBnwllwScvgBmBBBBBBBBBBBBBVZ1X$tzl8#X1ZZBBBBBBBBBBBBBBB55)",
"BBBBBBBBnezvwSjvgBmBBBBBBBBBBBBBBVm31,++$>3mBBBBBBBBBBBBBBBBB55)",
"BBBBBBBBmwhhDSczgBmBBBBBBBBBBBBBBBZHmO  OmHZBBBBBBBBBBBBBBBBB55)",
"BBBBBBBBBSwwBqlvgBmBBBBBBBBBBBBBBBVZB3113BZVBBBBBBBBBBBBBBBBB55)",
"BBBBBBBBBBmnnDhceBmBBBBBBBBBBBBBBBBBBVZZVBBBBBBBBBBBBBBBBBBBB55)",
"BBBBBBBBBBBBBSwwSBBBBBBBBBBBBBBBBBBBBVZZZBBBBBBBBBBBBBBBBBBBB55)",
"BBBBBBBBBBBBBBmmBBBBBBBBBBBBBBBBBBBBBBBBBBBBBBBBBBBBBBBBBBBBB55)",
"BBBBBBBBBBBBBBBBBBBBBBBBBBBBBBBBBBBBBBBBBBBBBBBBBBBBBBBBBBBBB55)",
"BBBBBBBBBBBBBBBBBBBBBBBBBBBBBBBBBBBBBBBBBBBBBBBBBBBBBBBBBBBBB55(",
"BnBBBBBBBBBBBBBBBBBBBBBBBBBBBBBBBBBBBBBBBBBBBBBBBBBBBBBBBBBBB5<^",
"wBBBBBBBBBBBBBBBBBBBBBBBBBBBBBBBBBBBBBBBBBBBBBBBBBBBBBBBBBBBB57`",
"jgSmBBBBBBBBBBBBBBBBBBBBBBBBBBBBBBBBBBBBBBBBBBBBBBBBBBBBBBBBB0s]",
"ljDnBBBBBBBBBBBBBBBBBBBBBBBBBBBBBBBBBBBBBBBBBBBBBBBBBBBBBBBmB:d[",
"heSmBBBBBBBBBBBBBBBBBBBBBBBBBBBBBBBBBBBBBBBBBBBBBBBBBBBBBBBBB9a'",
"SnBBBBBBBBBBBBBBBBBBBBBBBBBBBBBBBBBBBBBBBBBBBBBBBBBBBBBBBBBBB55)",
"BnBBBBBBBBBBBBBBBBBBBBBBBBBBBBBBBBBBBBBBBBBBBBBBBBBBBBBBBBBBB5<(",
"BBBBBBBBBBBBBBBBBBBBBBBBBBBBBBBBBBBBBBBBBBBBBBBBBBBBBBBBBBBBB55)",
"BBBBBBBBBBBBBBBBBBBBBBBBBBBBBBBBBBBBBBBBBBBBBBBBBBBBBBBBBBBBB55)",
"BBBBBBBBBBBBBBBBBBBBBBBBBBBBBBBBBBBBBBBBBBBBBBBBBBBBBBBBBBBBB55)",
"BBBBBBBBBBBBBBBBBBVZVBBBBBBBBBBBBBBBBBBBBBBBBBBBBBBBBBBBBBBBB55)",
"BBBBBBBBBBBBBBBBBBBBBBBBBBBBBBBBBBBBBBBBBBBBBBBBBBBBBBBBBBBBB55)",
"BBBBBBBBBBBBBBBBZB214ZZBBBBBBBBBBBBBBBBBBBBBBBBBBBBBBBBBBBBBB55)",
"BBBBBBBBBBBBBBBBHB#.1ZFBBBBBBBBBBBBBBBBBBBBBBBBBBBBBBBBBBBBBB55)",
"BBBBBBBBBBBBBBVB41###14BVBBBBBBBBBBBBBBBBBBBBBBBBBBBBBBBBBBBB55)",
"BBBBBBBBBBBBBBZ4#.1m>.>BZBBBBBBBBBBBBBBBBBBBBBBBBBBBBBBBBBBBB55)",
"BBBBBBBBBBBBBBZ4>#14##1BZBBBBBBBBBBBBBBBBBBBBBBBBBBBBBBBBBBBB55)",
"BBBBBBBBBBBBBBBBB4#o#4BBBBBBBBBBBBBBBBBBBBBBBBBBBBmBBBBBBBBBB55)",
"BBBBBBBBBBBBBBBBHV>#2ZHBBBBBBBBBBBBBBBBBBBBBBBBBBwwDBBBBBBBBB55)",
"BBBBBBBBBBBBBBBBVB444BVBBBBBBBBBBBBBBBBBBBBBBmnnSgcgBmBBBBBBB55)",
"BBBBBBBBBBBBBBBBBBZZZBBBBBBBBBBBBBBBBBBBBBBBBwwBSjYhBnBBBBBBB55)",
"BBBBBBBBBBBBBBBBBBBBBBBBBBBBBBBBBBBBBBBBBBBmShjwVhvhBnBBBBBBB55)",
"BBBBBBBBBBBBBBBBBBBBBBBBBBBBBBBBBBBBBBBBBBBnqlvuBhvhBnBBBBBBB55)",
"BBBBBBBBBBBBBBBBBBBBBBBBBBBBBBBBBBBBBBBBBBBnqcveBjYhBnBBBBBBB55)",
"BBBBBBBBBBBBBBBBBBBBBBBBBBBBBBBBBBBBBBBBBBBnqczuBujgBmBBBBBBB55)",
"BBBBBBBBBBBBBBBBBBBBBBBBBBBBBBBBBBBBBBBBBBBnwlvgBSwDBBBBBBBBB55)",
"BBBBBBBBBBBBBBBBBBBBBBBBBBBBBBBBBBBBBBBBBBBnDhcuBnmBBBBBBBBBB55)",
"BBBBBBBBBBBBBBBBBBBBBBBBBnmBBBBBBBBBBBBBBBBBSweqBmBBBBBBBBBBB55)",
"BBBBBBBBBBBBBBBBBBBBBBBBSDSBBBBBBBBBBBBBBBBBBBmBBBBBBBBBBBBBB55)",
"BBBBBBBBBBBBBBBBBBBBBBnnejgBnBBBBBBBBBBBBBBBBBmBBBBBBBBBBBBBB55)",
"BBBBBBBBBBBBBBBBBBBBBBBShzjGBBBBBBBBBBBBBBBBBBBBBBBBBBBBBBBBB55)",
"BBBBBBBBBBBBBBBBBBBBmBujhegjgSmBBBBBBBBBBBBBBBBBBBBBBBBBBBBBB55)",
"BBBBBBBBBBBBBBBBBBBBnBhlgBeljSnBBBBBBBBBBBBBBBBBBBBBBBBBBBBBB55(",
"***MMMMMMMMMMMMMMMMM**6ipppi6M*MM******MMM****MMMMM********MM&%/",
"AAAAAAAAAAAAAAAAAAAAAAmAhzxDmAAAAAAAAAAAAAAAAAAAAAAAAAAAAAAAA77_"
};
