/* XPM */
static char *_a5cd7b34edb4df7f76d606ac8623734PKiBT4BIW4ZShTpJ[] = {
/* columns rows colors chars-per-pixel */
"64 64 180 2 ",
"   c #020201",
".  c #0A0503",
"X  c #050906",
"o  c #0E0905",
"O  c #070C08",
"+  c #080F0A",
"@  c #140B06",
"#  c #1A0E06",
"$  c #160F09",
"%  c #190F08",
"&  c #0A130D",
"*  c #0F180D",
"=  c #1C1007",
"-  c #16100A",
";  c #1D120A",
":  c #131D0F",
">  c #0B1610",
",  c #0E1B12",
"<  c #111F14",
"1  c #271407",
"2  c #23160C",
"3  c #2C1A0D",
"4  c #341E0E",
"5  c #391F0E",
"6  c #211811",
"7  c #2A1D12",
"8  c #311E10",
"9  c #16200F",
"0  c #112116",
"q  c #192210",
"w  c #142519",
"e  c #162A1C",
"r  c #182D1E",
"t  c #3C220F",
"y  c #202C14",
"u  c #352315",
"i  c #3B2312",
"p  c #3C281A",
"a  c #2E3E1B",
"s  c #192F20",
"d  c #1B3423",
"f  c #1E3A28",
"g  c #213A27",
"h  c #223F2A",
"j  c #422511",
"k  c #452915",
"l  c #492A15",
"z  c #4E2F19",
"x  c #522E15",
"c  c #573115",
"v  c #5B3317",
"b  c #52331B",
"n  c #5C3318",
"m  c #613619",
"M  c #62391D",
"N  c #693C1D",
"B  c #563A25",
"V  c #623C20",
"C  c #683F21",
"Z  c #24432D",
"A  c #3E5728",
"S  c #254731",
"D  c #274831",
"F  c #294B33",
"G  c #2C5439",
"H  c #2E593B",
"J  c #315636",
"K  c #305D3F",
"L  c #3F6337",
"P  c #71411F",
"I  c #62422A",
"U  c #774826",
"Y  c #7C4A25",
"T  c #7C4E2B",
"R  c #744E31",
"E  c #765035",
"W  c #7C5435",
"Q  c #476833",
"!  c #49713E",
"~  c #567A39",
"^  c #336342",
"/  c #386541",
"(  c #376C4B",
")  c #396D49",
"_  c #3E744E",
"`  c #3E7751",
"'  c #407651",
"]  c #427C53",
"[  c #814D28",
"{  c #8A552E",
"}  c #94572C",
"|  c #93592E",
" . c #8D5A34",
".. c #8B5E3B",
"X. c #9C5E32",
"o. c #935F38",
"O. c #8E603D",
"+. c #9C663B",
"@. c #A46333",
"#. c #AD6937",
"$. c #A96838",
"%. c #B26C39",
"&. c #B86E38",
"*. c #BC723C",
"=. c #C3763D",
"-. c #C9793F",
";. c #AD7043",
":. c #B97746",
">. c #C37C47",
",. c #CD7E44",
"<. c #D07D41",
"1. c #3B914E",
"2. c #3E9354",
"3. c #3E9261",
"4. c #5B8C4D",
"5. c #5F9E4F",
"6. c #458157",
"7. c #458D54",
"8. c #468459",
"9. c #48875B",
"0. c #478A5F",
"q. c #4A8B5D",
"w. c #538B52",
"e. c #4B9154",
"r. c #4B9A5D",
"t. c #509253",
"y. c #5A9853",
"u. c #55965F",
"i. c #569A5E",
"p. c #5B9C5E",
"a. c #619149",
"s. c #6B9C4D",
"d. c #609F5D",
"f. c #56A25A",
"g. c #59A458",
"h. c #66A34A",
"j. c #74AD45",
"k. c #64A15C",
"l. c #6AA55A",
"z. c #6EA858",
"x. c #74AC56",
"c. c #7AAF55",
"v. c #71A75A",
"b. c #71A958",
"n. c #7CB154",
"m. c #7AB258",
"M. c #468D64",
"N. c #498F63",
"B. c #429463",
"V. c #4D9262",
"C. c #529362",
"Z. c #529865",
"A. c #549F6B",
"S. c #54A06B",
"D. c #58A770",
"F. c #81B554",
"G. c #88BD55",
"H. c #CE8046",
"J. c #D68244",
"K. c #DB8445",
"L. c #D88549",
"P. c #E08745",
"I. c #E18847",
"U. c #E38A48",
"Y. c #EA8E4A",
"T. c #EE914D",
"R. c #F4944D",
"E. c #F9974F",
"W. c #FC994F",
"Q. c #F39550",
"!. c #F89750",
"~. c #FE9C51",
"^. c #FFA455",
"/. c #FFA858",
"(. c #4A9399",
"). c #549595",
"_. c #599794",
"`. c #6BA58F",
"'. c #78AD8B",
"]. c #5CA3A3",
/* pixels */
"S.S.S.S.S.S.S.S.S.S.S.S.S.S.S.S.S.S.S.S.S.S.S.S.S.S.S.S.S.S.S.S.S.S.S.S.S.S.S.A.S.D.A.N.q.Z.S.S.A.A.S.S.S.S.S.S.S.S.S.S.S.i.i.].",
"V.V.V.V.V.V.V.V.V.V.V.V.V.V.V.V.V.V.V.V.V.V.V.V.V.V.V.V.V.V.V.V.V.V.V.V.V.V.V.V.V.V.q.] _ 8.V.V.V.V.V.V.V.V.V.V.V.V.V.V.V.e.e.).",
"V.V.V.V.V.V.V.V.V.V.V.V.V.V.V.V.V.V.V.V.V.V.V.V.V.V.V.V.V.V.V.V.V.V.V.V.V.V.V.V.q.8.] 8.9.] ] q.V.V.V.V.V.V.V.V.V.V.V.V.V.e.e.).",
"V.V.V.V.V.V.V.V.V.V.V.V.V.V.V.V.V.V.V.V.V.V.V.V.V.V.V.V.V.V.V.V.V.V.V.V.V.V.V.V.q.] ' q.N.] _ 8.V.V.V.V.V.V.V.V.V.V.V.V.V.e.e.).",
"V.V.V.V.V.V.V.V.V.V.V.V.V.V.V.V.V.V.V.V.V.V.V.V.V.V.V.V.V.V.V.V.V.V.V.V.V.V.V.V.q.9.] 6.6.] 8.q.V.V.V.V.V.V.V.V.V.V.V.V.V.e.e.).",
"V.V.V.V.V.V.V.V.V.V.V.V.V.V.V.V.V.V.V.V.V.V.V.V.V.V.V.V.V.V.V.V.V.V.V.V.V.V.V.V.V.V.q.] _ 9.V.V.V.V.V.V.V.V.V.V.V.V.V.V.V.e.e.).",
"V.V.V.V.V.V.V.V.V.V.V.V.V.V.V.V.V.V.V.V.V.V.V.V.V.V.V.V.V.V.V.V.V.V.V.V.V.V.V.V.V.Z.V.9.6.q.Z.V.V.V.V.V.V.V.V.V.V.V.V.V.V.e.e.).",
"V.V.V.V.V.V.V.V.V.V.V.V.V.V.V.V.V.V.V.V.V.V.V.V.V.V.V.V.V.V.V.V.V.V.V.V.V.V.V.V.V.V.V.V.V.V.V.V.V.V.V.V.V.V.V.V.V.V.V.V.V.e.e.).",
"V.V.V.V.V.V.V.V.V.V.V.V.V.V.V.V.V.V.V.V.V.V.V.V.V.V.V.V.V.V.V.V.V.N.V.V.V.V.V.V.V.V.V.V.V.V.V.V.V.V.V.V.V.V.V.V.V.V.V.V.V.e.e.).",
"V.V.V.V.V.V.V.V.V.V.V.V.V.V.V.V.V.V.V.V.V.V.V.V.V.V.V.V.V.V.V.V.V.V.V.V.V.V.V.V.V.V.V.V.V.V.V.V.V.V.V.V.V.V.V.V.V.V.V.V.V.e.e.).",
"V.V.V.V.V.V.V.V.V.V.V.V.V.V.V.V.V.V.V.V.V.V.V.V.V.V.V.V.V.V.V.V.Z.d.i.V.M.V.V.V.V.V.V.V.V.V.V.V.V.V.V.V.V.V.V.V.V.V.V.V.V.e.e.).",
"V.V.V.V.V.V.V.V.V.V.V.V.V.V.V.V.V.V.V.V.V.V.V.V.V.V.V.V.V.V.V.V.p.x.z.C.M.V.V.V.V.V.V.V.V.V.V.V.V.V.V.V.V.V.V.V.V.V.V.V.V.e.e.).",
"V.V.V.V.V.V.V.V.V.V.V.V.V.V.V.V.V.V.V.V.V.V.V.] Z & > < & f ( N.k.s.A * > < & f ) V.V.V.V.V.V.V.V.V.V.V.V.V.V.V.V.V.V.V.V.e.e.).",
"V.V.V.V.V.V.V.V.V.V.V.V.V.V.V.V.V.V.V.V.V.V.V._ 0 . ; 2 o O ^ N.p.a.y . ; 2 o O K V.V.V.V.V.V.V.V.V.V.V.V.V.V.V.V.V.V.V.V.e.e.).",
"V.V.V.V.V.V.V.V.V.C.p.p.C.V.V.V.V.V.V.V.V.V.V.` e $ B I 7 > ( M.p.s.a $ B I 7 & ^ i.p.C.V.V.V.V.V.V.V.V.V.V.V.V.V.V.V.V.V.e.e.).",
"V.V.V.V.V.V.V.V.N.i.z.b.p.N.V.V.V.V.V.V.V.V.V.` s ; W ..u & S ` w.Q y - E O.p > / l.b.p.V.V.V.V.V.V.V.V.V.V.V.V.V.V.V.V.V.e.e.).",
"V.V.V.V.V.V.V.V.M.p.c.n.d.M.M.V.V.V.V.V.V.V.V.` s ; R E 6 X > w e < O . I W u > ! F.F.k.M.N.V.V.V.V.V.V.V.V.V.V.V.V.V.V.V.e.e.).",
"V.V.V.V.V.V.V.V.M.i.x.c.d.M.M.N.V.V.V.V.V.V.V.` s ; T +.I 3 4 i i u 3 b o. .i : ~ G.m.k.N.N.V.V.V.V.V.V.V.V.V.V.V.V.V.V.V.e.e.).",
"V.V.V.V.V.V.V.V.M.i.x.x.p.V.C.i.C.V.V.V.V.V.V.` s 2 { J.*.@.@.@.@.@.@.%.J.$.k 9 ~ x.y.u.V.V.V.V.V.V.V.V.V.V.V.V.V.V.V.V.V.e.e.).",
"V.V.V.V.V.V.V.V.M.i.x.x.i.V.k.z.p.V.V.V.V.V.V.` s 3 | W.W.R.R.R.R.R.R.E.~.&.l q ~ 4.] 9.V.V.V.V.V.V.V.V.V.V.V.V.V.V.V.V.V.e.e.).",
"V.V.V.V.V.V.V.V.M.i.x.x.i.C.b.n.k.V.N.V.V.V.V.` s 2 | R.T.I.I.I.I.I.I.U.W.%.k : L ] ` 8.V.V.V.V.V.V.V.V.V.V.V.V.V.V.V.V.V.e.e.).",
"V.V.V.V.V.V.V.V.M.p.c.n.i.C.z.n.k.V.N.V.V.V.V.` s 2 | T.U.J.J.J.J.J.J.K.R.%.k * J 6.0.N.V.V.V.V.V.V.V.V.V.V.V.V.V.V.V.V.V.e.e.).",
"V.V.V.V.V.V.V.V.N.i.l.l.C.C.b.c.k.V.N.V.V.V.V.` s 2 | T.U.J.J.J.J.J.J.K.R.%.k & G N.Z.V.V.V.V.V.V.V.V.V.V.V.V.V.V.V.V.V.V.e.e.).",
"V.V.V.V.V.V.V.V.V.C.i.i.V.u.x.n.k.V.N.V.V.V.V.` s 3 X.!.R.U.U.U.U.U.U.Y.~.*.l > K V.V.V.V.V.V.V.V.V.V.V.V.V.V.V.V.V.V.V.V.e.e.).",
"V.V.V.V.V.V.V.V.V.V.N.M.M.C.l.b.p.V.N.V.V.V.V.` s 3 @.^.~.R.R.R.R.R.R.E./.-.z > / V.V.V.V.V.V.V.V.V.V.V.V.V.V.V.V.V.V.V.V.e.e.).",
"V.V.V.V.V.V.V.V.V.V.V.V.V.C.i.i.C.V.V.V.V.V.V.6.d % M @.X.| | | | | | | @.U 3 , ) V.V.V.V.V.V.V.V.V.V.V.V.V.V.V.V.V.V.V.V.e.e.).",
"V.V.V.V.V.V.V.V.V.V.V.V.V.V.N.N.V.V.V.V.V.V.V.9.f   o % $ $ $ $ $ $ $ $ % @ . < _ V.V.V.V.V.V.V.V.V.V.V.V.V.V.V.V.V.V.V.V.e.e.).",
"V.V.V.V.V.V.V.V.V.V.V.V.V.V.V.V.V.V.V.V.V.V.9.G <   o 2 = = = = = = = = 2 $   & Z ] V.V.V.V.V.V.V.V.V.V.V.V.V.V.V.V.V.V.V.e.e.).",
"V.V.V.V.V.V.V.V.V.V.V.V.V.V.V.V.V.V.V.V.V.V.F +   . M %.$.X.X.X.X.X.X.@.&.Y ;   X g V.V.V.V.V.V.V.V.V.V.V.V.V.V.V.V.V.V.V.e.e.).",
"V.M.V.V.V.V.V.V.V.V.V.V.V.V.V.V.V.V.V.V.V.V.<   o V *.^.~.R.R.R.R.R.R.E.^.J.T ;   X V.V.V.V.V.V.V.V.V.V.V.V.V.V.V.V.V.V.V.7.7.(.",
"i.V.V.V.V.V.V.V.V.V.V.V.V.V.V.V.V.V.V.V.V.V.e = C =.J.Y.U.I.I.I.I.I.I.U.Y.K.,.[ 4 & V.V.V.V.V.V.V.V.V.V.V.V.V.V.V.V.V.V.V.e.t._.",
"z.k.C.N.V.V.V.V.V.V.V.V.V.V.V.V.V.V.V.V.V.V.s 3 #.^.R.J.J.J.J.J.J.J.J.J.J.U.^.<.b > V.V.V.V.V.V.V.V.V.V.V.V.V.V.V.V.V.V.V.y.h.`.",
"x.z.C.M.V.V.V.V.V.V.V.V.V.V.V.V.V.V.V.V.V.V.s 3 @.~.Y.J.J.J.J.J.J.J.J.J.J.I.~.=.z > V.V.V.V.V.V.V.V.V.V.V.V.V.V.V.V.V.N.V.5.j.'.",
"l.p.C.N.V.V.V.V.V.V.V.V.V.V.V.V.V.V.V.V.V.V.s 2 T L.K.J.J.J.J.J.J.J.J.J.K.K.U.X.i > V.V.V.V.V.V.V.V.V.V.V.V.V.V.V.V.V.V.V.y.h.`.",
"C.M.V.V.V.V.V.V.V.V.V.V.V.V.V.V.V.V.V.V.V.V.s - B ;.,.K.K.J.J.J.J.J.J.J.P.,.:.R 7 > V.V.V.V.V.V.V.V.V.V.V.V.V.V.V.V.V.V.V.e.e.).",
"V.M.V.V.V.V.V.V.V.V.V.V.V.V.V.V.V.V.V.V.V.V.s ; I :.H.K.K.J.J.J.J.J.J.J.P.J.>.R 7 > V.V.V.V.V.V.V.V.V.V.V.V.V.V.V.V.V.V.V.e.7.).",
"V.V.V.V.V.V.V.V.V.V.V.V.V.V.V.V.V.V.V.V.V.V.s 2  .T.U.J.J.J.J.J.J.J.J.J.J.K.Q.%.k > V.V.V.V.V.V.V.V.V.V.V.V.V.V.V.V.V.V.V.e.e.).",
"V.V.V.V.V.V.V.V.V.V.V.V.V.V.V.V.V.V.V.V.V.V.s 2 Y J.P.U.U.U.U.U.U.U.U.U.U.K.I.| i > V.V.V.V.V.V.V.V.V.V.V.V.V.V.V.V.V.V.V.e.e.).",
"V.V.V.V.V.V.V.V.V.V.V.V.V.V.V.V.V.V.V.V.V.V.s @ i } -.!.E.R.R.R.R.R.R.R.~.J.@.x = > V.V.V.V.V.V.V.V.V.V.V.V.V.V.V.V.V.V.V.e.e.).",
"V.V.V.V.V.V.V.V.V.V.V.V.V.V.V.V.V.V.V.V.V.V.s . # v } *.#.X.X.X.X.X.X.@.*.@.N 1 . > V.V.V.V.V.V.V.V.V.V.V.V.V.V.V.V.V.V.V.e.e.).",
"V.V.V.V.V.V.V.V.V.V.V.V.V.V.V.V.V.V.V.V.V.V.s . 3 v P N l 3 3 8 8 8 3 i M P m 5 @ > V.V.V.V.V.V.V.V.V.V.V.V.V.V.V.V.V.V.V.e.e.).",
"V.V.V.V.V.V.V.V.V.V.V.V.V.V.V.V.V.V.9.8.q.V.d o i v c 1                 # l v j # > V.V.V.V.V.V.V.V.V.V.V.V.V.V.V.V.V.V.V.e.e.).",
"V.V.V.V.V.V.V.V.V.V.V.V.V.V.V.V.Z.V.] _ 8.V.d @ i m m 5 @             . 3 x n j # , V.V.V.V.V.V.V.V.V.V.V.V.V.V.V.V.V.V.V.e.e.).",
"V.V.V.V.V.V.V.V.V.V.V.V.V.V.V.V.q.8.] ] ] 9.w . 2 l v k =       , w & o 5 v m j # , V.V.V.V.V.V.V.V.V.V.V.V.V.V.V.V.V.V.V.e.e.).",
"V.V.V.V.V.V.V.V.V.V.V.V.V.V.V.q.] _ 9.N.6._ >     2 x x 2     X G ) r o 5 v m j # > V.V.V.V.V.V.V.V.V.V.V.V.V.V.V.V.V.V.V.e.e.).",
"V.V.V.V.V.V.V.V.V.V.V.V.V.V.V.q.6.] 8.q.] ] D &     3 5 #   X D V.V.h o 5 v m j # > V.V.V.V.V.V.V.V.V.V.V.V.V.V.V.V.V.V.V.e.e.).",
"V.V.V.V.V.V.V.V.V.V.V.V.V.V.V.V.V.q.] ` ] q.q.H 0   o @ . & S 9.V.6.d o 5 n N l = > V.V.V.V.V.V.V.V.N.V.V.V.V.V.V.V.V.V.V.e.e.).",
"V.V.V.V.V.V.V.V.V.V.V.V.V.V.V.V.Z.V.6.] 9.V.Z.9.d         > _ V.V._ r o t v x 3 @ & V.V.V.V.V.V.V.u.i.C.V.V.V.V.V.V.V.V.V.e.e.).",
"V.V.V.V.V.V.V.V.V.V.V.V.V.V.V.V.V.V.q.q.q.V.V.] w         O ^ V.V.` r @ k c 4 .   X V.V.V.N.M.M.C.k.b.k.V.N.V.V.V.V.V.V.V.e.e.).",
"V.V.V.V.V.V.V.V.V.V.V.V.V.V.V.V.V.V.V.V.V.V.V.] D > 0 w > f _ V.V.` e . 4 4 .   X Z V.V.V.u.i.V.C.z.F.l.V.M.V.V.V.V.V.V.V.e.e.).",
"V.V.V.V.V.V.V.V.V.V.V.V.V.V.V.V.V.V.V.V.V.V.V.q.] ) ) ) ) _ 9.V.V._ 0   o @   X Z 9.V.N.C.l.z.u.V.l.n.l.V.M.V.V.V.V.V.V.V.e.e.).",
"V.V.V.V.V.V.V.V.V.V.V.V.V.V.V.V.V.V.V.V.V.V.V.V.V.V.V.V.V.V.V.V.V.] F > 0 w & h 6.V.V.M.u.x.n.d.V.l.n.l.V.M.V.V.V.V.V.V.V.e.e.).",
"V.V.V.V.V.V.V.V.V.V.V.V.V.V.V.V.V.V.V.V.V.V.V.V.V.V.V.V.V.V.V.V.V.V.V.V.V.V.V.V.V.V.V.M.u.b.n.p.V.z.F.l.V.M.V.V.V.V.V.V.V.e.e.).",
"V.V.V.V.V.V.V.V.V.V.V.V.V.V.V.V.V.V.V.V.V.V.V.V.V.V.V.V.V.V.V.V.V.V.V.V.V.V.V.V.V.V.V.M.u.b.c.d.V.d.z.k.V.N.V.V.V.V.V.V.V.e.e.).",
"V.V.V.V.V.V.V.V.V.V.V.V.V.V.V.V.V.V.V.V.V.V.V.V.V.V.V.V.V.V.V.V.V.V.V.V.V.V.V.V.V.V.V.M.u.x.n.k.V.C.i.C.V.V.V.V.V.V.V.V.V.e.e.).",
"V.V.V.V.V.V.V.V.V.V.V.V.V.V.V.V.V.V.V.V.V.V.V.V.V.V.V.V.V.V.V.V.V.V.V.V.V.V.V.V.V.V.V.M.C.l.b.d.V.M.N.V.V.V.V.V.V.V.V.V.V.e.e.).",
"V.V.V.V.V.V.V.V.V.V.V.V.V.V.V.V.V.V.V.V.V.V.V.V.V.M.N.V.V.V.V.V.V.V.V.V.V.V.V.V.V.V.V.V.C.i.p.u.V.N.V.V.V.V.V.V.V.V.V.V.V.e.e.).",
"V.V.V.V.V.V.V.V.V.V.V.V.V.V.V.V.V.V.V.V.V.V.V.V.C.C.C.V.V.V.V.V.V.V.V.V.V.V.V.V.V.V.V.V.V.V.N.V.V.V.V.V.V.V.V.V.V.V.V.V.V.e.e.).",
"V.V.V.V.V.V.V.V.V.V.V.V.V.V.V.V.V.V.V.V.V.V.M.M.p.z.k.V.M.V.V.V.V.V.V.V.V.V.V.V.V.V.V.V.V.V.N.V.V.V.V.V.V.V.V.V.V.V.V.V.V.e.e.).",
"V.V.V.V.V.V.V.V.V.V.V.V.V.V.V.V.V.V.V.V.V.V.V.C.l.c.z.Z.V.V.V.V.V.V.V.V.V.V.V.V.V.V.V.V.V.V.V.V.V.V.V.V.V.V.V.V.V.V.V.V.V.e.e.).",
"V.V.V.V.V.V.V.V.V.V.V.V.V.V.V.V.V.V.V.V.N.V.d.z.l.p.k.z.k.C.N.V.V.V.V.V.V.V.V.V.V.V.V.V.V.V.V.V.V.V.V.V.V.V.V.V.V.V.V.V.V.e.e.).",
"V.V.V.V.V.V.V.V.V.V.V.V.V.V.V.V.V.V.V.V.M.V.l.x.k.V.p.x.z.C.M.V.V.V.V.V.V.V.V.V.V.V.V.V.V.V.V.V.V.V.V.V.V.V.V.V.V.V.V.V.V.e.e.).",
"3.3.3.B.B.B.B.B.B.B.B.B.B.B.B.B.B.B.B.B.3.3.r.f.g.g.g.f.r.B.3.B.B.3.3.3.3.3.3.B.B.B.3.3.3.3.B.B.B.B.B.3.3.3.3.3.3.3.3.B.B.2.1.(.",
"C.C.C.C.C.C.C.C.C.C.C.C.C.C.C.C.C.C.C.C.C.C.N.C.l.c.v.C.N.C.C.C.C.C.C.C.C.C.C.C.C.C.C.C.C.C.C.C.C.C.C.C.C.C.C.C.C.C.C.C.C.t.t._."
};
