/* XPM */
static char *ad2536d6770a4da7c90bf8db799bbbcfrZu7QPo5xTdoDk3C[] = {
/* columns rows colors chars-per-pixel */
"64 64 181 2 ",
"   c #020201",
".  c #0B0603",
"X  c #050A07",
"o  c #0E0804",
"O  c #060C08",
"+  c #080F0A",
"@  c #130B05",
"#  c #190D06",
"$  c #170F0A",
"%  c #190F08",
"&  c #0A140D",
"*  c #1C120A",
"=  c #0B1611",
"-  c #0D1911",
";  c #101F14",
":  c #241206",
">  c #24160C",
",  c #28180C",
"<  c #2C1A0C",
"1  c #321D0D",
"2  c #391F0D",
"3  c #251910",
"4  c #2D1D11",
"5  c #311E10",
"6  c #122216",
"7  c #1A2514",
"8  c #1E2A14",
"9  c #142519",
"0  c #162A1D",
"q  c #3B210F",
"w  c #222F15",
"e  c #362111",
"r  c #3B2312",
"t  c #213117",
"y  c #192F20",
"u  c #203E2D",
"i  c #40210D",
"p  c #432611",
"a  c #442814",
"s  c #4B2B14",
"d  c #462F1E",
"f  c #542E14",
"g  c #563116",
"h  c #5A3217",
"j  c #52321A",
"k  c #5E3518",
"l  c #603517",
"z  c #623719",
"x  c #65391A",
"c  c #6B3D1C",
"v  c #523824",
"b  c #663F22",
"n  c #683F21",
"m  c #25442E",
"M  c #2A4529",
"N  c #254730",
"B  c #274931",
"V  c #294C33",
"C  c #2B5237",
"Z  c #2F593B",
"A  c #315E3E",
"S  c #5F412B",
"D  c #6C4223",
"F  c #64442A",
"G  c #724423",
"H  c #7A4D2B",
"J  c #6A4A31",
"K  c #734E31",
"L  c #7D5433",
"P  c #7B5537",
"I  c #486731",
"U  c #356544",
"Y  c #376846",
"T  c #3E6F47",
"R  c #376B4A",
"E  c #396D49",
"W  c #3E754E",
"Q  c #3B7451",
"!  c #3F7951",
"~  c #416E43",
"^  c #497C4A",
"/  c #407651",
"(  c #427C53",
")  c #824E28",
"_  c #84512B",
"`  c #8B542C",
"'  c #93572C",
"]  c #9E5D2F",
"[  c #835432",
"{  c #845938",
"}  c #8B5D39",
"|  c #925A31",
" . c #9A5E31",
".. c #A15F30",
"X. c #8E603D",
"o. c #9F6033",
"O. c #94613D",
"+. c #9B663F",
"@. c #A26233",
"#. c #A96635",
"$. c #A3683D",
"%. c #AE6C3C",
"&. c #B46C36",
"*. c #B26D39",
"=. c #BB713B",
"-. c #C3773E",
";. c #C6793F",
":. c #C8793F",
">. c #906441",
",. c #9B6842",
"<. c #A46D44",
"1. c #AB6E41",
"2. c #AB7145",
"3. c #BA7441",
"4. c #BD7845",
"5. c #C57941",
"6. c #CA7C42",
"7. c #D27F43",
"8. c #3B914E",
"9. c #3E9354",
"0. c #3E9261",
"q. c #598D4C",
"w. c #5F9E4F",
"e. c #448056",
"r. c #468B56",
"t. c #468559",
"y. c #48875B",
"u. c #498B5D",
"i. c #4B9154",
"p. c #4C975D",
"a. c #509253",
"s. c #589A52",
"d. c #55975F",
"f. c #569A5E",
"g. c #5B9C5E",
"h. c #608D45",
"j. c #609F5D",
"k. c #56A25A",
"l. c #59A458",
"z. c #66A34A",
"x. c #75A747",
"c. c #64A15B",
"v. c #6AA55A",
"b. c #6EA858",
"n. c #74AC56",
"m. c #7AAF55",
"M. c #71A75A",
"N. c #71A958",
"B. c #7CB254",
"V. c #468D64",
"C. c #498F63",
"Z. c #429463",
"A. c #4D9262",
"S. c #529362",
"D. c #539863",
"F. c #549F6B",
"G. c #54A06B",
"H. c #58A770",
"J. c #81B554",
"K. c #C6814D",
"L. c #D68244",
"P. c #DB8545",
"I. c #DB8748",
"U. c #DC884A",
"Y. c #E08746",
"T. c #E38946",
"R. c #E88B47",
"E. c #E58A49",
"W. c #EB8D4A",
"Q. c #EF904B",
"!. c #F4944D",
"~. c #F9964E",
"^. c #FC9A4F",
"/. c #FE9C52",
"(. c #FFA355",
"). c #4A9399",
"_. c #549595",
"`. c #599794",
"'. c #6BA58F",
"]. c #78AD8B",
"[. c #5CA3A3",
/* pixels */
"G.G.G.G.G.G.G.G.G.G.G.G.G.G.G.G.G.G.G.G.G.G.G.G.G.G.G.G.G.G.G.G.G.G.G.G.G.G.G.F.G.H.F.C.y.D.G.G.F.F.G.G.G.G.G.G.G.G.G.G.G.f.f.[.",
"A.A.A.A.A.A.A.A.A.A.A.A.A.A.A.A.A.A.A.A.A.A.A.A.A.A.A.A.A.A.A.A.A.A.A.A.A.A.A.A.A.A.y./ W t.A.A.A.A.A.A.A.A.A.A.A.A.A.A.A.i.i._.",
"A.A.A.A.A.A.A.A.A.A.A.A.A.A.A.A.A.A.A.A.A.A.A.A.A.A.A.A.A.A.A.A.A.A.A.A.A.A.A.A.u.t.( t.y.( ( y.A.A.A.A.A.A.A.A.A.A.A.A.A.i.i._.",
"A.A.A.A.A.A.A.A.A.A.A.A.A.A.A.A.A.A.A.A.A.A.A.A.A.A.A.A.A.A.A.A.A.A.A.A.A.A.A.A.y./ / y.C.( W t.A.A.A.A.A.A.A.A.A.A.A.A.A.i.i._.",
"A.A.A.A.A.A.A.A.A.A.A.A.A.A.A.A.A.A.A.A.A.A.A.A.A.A.A.A.A.A.A.A.A.A.A.A.A.A.A.A.u.y.( e.e.( t.y.A.A.A.A.A.A.A.A.A.A.A.A.A.i.i._.",
"A.A.A.A.A.A.A.A.A.A.A.A.A.A.A.A.A.A.A.A.A.A.A.A.A.A.A.A.A.A.A.A.A.A.A.A.A.A.A.A.A.A.u./ W y.A.A.A.A.A.A.A.A.A.A.A.A.A.A.A.i.i._.",
"A.A.A.A.A.A.A.A.A.A.A.A.A.A.A.A.A.A.A.A.A.A.A.A.A.A.A.A.A.A.A.A.A.A.A.A.A.A.A.A.A.D.A.y.e.u.D.A.A.A.A.A.A.A.A.A.A.A.A.A.A.i.i._.",
"A.A.A.A.A.A.A.A.A.A.A.A.A.A.A.A.A.A.A.A.A.A.A.A.A.A.A.A.A.A.A.A.A.A.A.A.A.A.A.A.A.A.A.A.A.A.A.A.A.A.A.A.A.A.A.A.A.A.A.A.A.i.i._.",
"A.A.A.A.A.A.A.A.A.A.A.A.A.A.A.A.A.A.A.A.A.A.A.A.A.A.A.A.A.A.A.A.A.C.A.A.A.A.A.A.A.A.A.A.A.A.A.A.A.A.A.A.A.A.A.A.A.A.A.A.A.i.i._.",
"A.A.A.A.A.A.A.A.A.A.A.A.A.A.A.A.A.A.A.A.A.A.A.A.A.A.A.A.A.A.A.A.A.A.A.A.A.A.A.A.A.A.A.A.A.A.A.A.A.A.A.A.A.A.A.A.A.A.A.A.A.i.i._.",
"A.A.A.A.A.A.A.A.A.A.A.A.A.A.A.A.A.A.A.A.A.A.A.A.A.A.A.A.A.A.A.A.D.j.f.A.V.A.A.A.A.A.A.A.A.A.A.A.A.A.A.A.A.A.A.A.A.A.A.A.A.i.i._.",
"A.A.A.A.A.A.A.A.A.A.A.A.A.A.A.A.A.A.A.A.A.A.A.A.A.A.A.A.A.A.A.A.g.n.b.D.V.A.A.A.A.A.A.A.A.A.A.A.A.A.A.A.A.A.A.A.A.A.A.A.A.i.i._.",
"A.A.A.A.A.A.A.A.A.A.A.A.A.A.A.A.A.A.A.A.A.A.A.A.A.A.A.A.A.A.C.C.c.B.B.v.d.S.A.A.A.A.A.A.A.A.A.A.A.A.A.A.A.A.A.A.A.A.A.A.A.i.i._.",
"A.A.A.A.A.A.A.A.A.A.A.A.A.A.A.A.A.A.A.A.A.A.A.A.A.A.A.A.A.A.C.C.g.n.J.B.v.d.C.A.A.A.A.A.A.A.A.A.A.A.A.A.A.A.A.A.A.A.A.A.A.i.i._.",
"A.A.A.A.A.A.A.A.A.S.g.g.S.A.A.A.A.A.A.A.A.A.A.A.A.A.A.A.A.A.C.Q M - 8 w 8 6 & u W f.g.D.A.A.A.A.A.A.A.A.A.A.A.A.A.A.A.A.A.i.i._.",
"A.A.A.A.A.A.A.A.C.f.b.N.g.C.A.A.A.A.A.A.A.A.A.A.A.A.A.A.A.A.C.U &   . @ # o   = W v.N.g.A.A.A.A.A.A.A.A.A.A.A.A.A.A.A.A.A.i.i._.",
"A.A.A.A.A.A.A.A.V.g.m.B.j.V.V.A.A.A.A.A.A.A.A.A.A.A.A.A.A.A.A.R 6 . : i p < o 9 q.J.J.c.V.C.A.A.A.A.A.A.A.A.A.C.A.A.A.A.A.i.i._.",
"A.A.A.A.A.A.A.A.V.f.n.m.j.V.V.C.A.A.A.A.A.A.A.A.A.A.A.A.A.A.A.W 9 * j G c 2 . ; I x.h.^ R R E E E E E E Y ! C.A.A.A.A.A.A.i.i._.",
"A.A.A.A.A.A.A.A.V.f.n.n.g.A.D.f.S.A.A.A.A.A.A.A.A.A.A.A.C.A.A.( 0 > F [ x :   X 7 t 7 9 9 9 9 9 9 9 9 ; & N y.A.A.A.A.A.A.i.i._.",
"A.A.A.A.A.A.A.A.V.f.n.n.f.A.c.b.g.A.A.A.A.A.A.A.A.A.A.A.A.A.y.V - * J +._ k a 5 e a a r e e e 5 , > 3 *   O B y.A.A.A.A.A.i.i._.",
"A.A.A.A.A.A.A.A.V.f.n.n.f.S.N.B.c.A.C.A.A.A.A.A.A.A.C.A.A.y.V X   X v <.*.&.@.#.*.-.-.*.#.@.#.| H F K d .   O m A.A.A.A.A.i.i._.",
"A.A.A.A.A.A.A.A.V.g.m.B.f.S.b.B.c.A.C.A.A.A.A.A.A.A.A.A.y.N X   # v L 4.I.~./.E.-.#.#.-.E././.U.2.>.<.L d .   & A.A.A.A.A.i.i._.",
"A.A.A.A.A.A.A.A.C.f.v.v.D.S.N.m.c.A.C.A.A.A.A.A.C.A.A.y.V X   o D -.3.6.P.W.~.*.j . . j *./.!.6.+.P X.} L d * ; A.A.A.A.A.i.i._.",
"A.A.A.A.A.A.A.A.A.S.f.f.C.d.n.B.c.A.C.A.A.A.A.A.A.A.y.N X   o D 6.(.!.P.L.P.!.#.s     s #.!.W.6.%.} { X.2.K 3 9 A.A.A.A.A.i.i._.",
"A.A.A.A.A.A.A.A.A.A.C.V.V.D.v.N.g.A.C.A.A.A.A.A.A.y.V X   . n 6.P.W.Y.L.L.P.Y.;.#.` ` #.;.Y.P.L.7.%.} P ,.J 3 9 A.A.A.A.A.i.i._.",
"A.A.A.A.A.A.A.A.A.A.C.A.A.p.^ ~ T E E E E E E W e.V X   o D 6./.R.L.L.L.L.L.L.P.W.~.~.W.P.L.L.P.R.L.*.O.,.F > 9 A.A.A.A.A.i.i._.",
"A.A.A.A.A.A.A.A.A.A.C.A.A.y.N & ; 9 9 9 9 9 9 9 0 -   @ D 6.P.R.P.L.L.L.L.L.L.P.P.E.E.P.P.L.L.L.P.L.7.3.1.S * 9 A.A.A.A.A.i.i._.",
"A.A.A.A.A.A.A.A.A.A.A.A.y.B X   > r e e e e e e e < * D 5./.R.L.L.L.L.L.L.L.L.P.P.T.Y.Y.Y.Y.Y.Y.Y.R.!.I.4.S * 9 A.A.A.A.A.i.i._.",
"A.A.A.A.A.A.A.A.A.A.A./ m X   o G =.#.@.@.@.@.@.@. . .*.7.W.P.L.L.L.L.L.L.L.7.P.W.~.!.!.!.!.!.!.!.~.^.W.K.J 3 9 A.A.A.A.A.i.i._.",
"A.V.A.A.A.A.A.A.A.A.A.Y &   @ D 5.(.^.!.!.~.~.!.!.!.~.W.P.L.L.L.L.L.L.L.L.P.R.L.*. .o.@.@.@.@.@.@.@.#. .[ d $ ; A.A.A.A.A.i.r.).",
"f.A.A.A.A.A.A.A.A.A.A.E ; > G ;.L.W.T.E.W.W.W.W.E.Y.T.P.P.L.L.L.L.L.L.L.7.R./.;.b * < e e e e e e e e 5 4 $ X & A.A.A.A.A.i.a.`.",
"b.c.S.C.A.A.A.A.A.A.A.E 9 r =.(.W.L.L.7.5.3.3.5.7.L.L.L.L.L.L.L.L.L.L.P.P.L.:.D @   - 0 9 9 9 9 9 9 9 9 9 ; & m A.A.A.A.A.s.z.'.",
"n.b.D.V.A.A.A.A.A.A.A.E 9 e #./.E.L.P.5.$.{ { $.5.Y.P.L.L.L.L.L.L.L.L.P.W.*.b @   X V ( W E E E E E E E E E Y W A.A.A.C.A.w.x.].",
"v.g.S.C.A.A.A.A.A.A.A.E 9 e @.!.E.P.T.6.$.{ { $.6.T.P.L.L.L.L.L.L.L.L.T.~. .*   X V y.A.A.A.A.A.A.A.A.A.A.A.A.A.A.A.A.A.A.s.z.'.",
"S.V.A.A.A.A.A.A.A.A.A.E 9 e @.!.W.T.T.L.6.3.3.6.P.T.T.P.P.L.L.L.L.L.L.Y.!. .< - V y.A.A.A.A.A.A.A.A.A.A.A.A.A.A.A.A.A.A.A.i.i._.",
"A.V.A.A.A.A.A.A.A.A.A.W 9 e @.Q.6.3.3.6.L.R.T.L.6.3.3.5.7.L.L.L.L.L.L.E.^.#.e 0 ( A.A.A.A.A.A.A.A.A.A.A.A.A.A.A.A.A.A.A.A.i.r._.",
"A.A.A.A.A.A.A.A.C.A.A.( 0 e #.T.1.{ { $.6.R.R.6.$.{ { $.5.Y.P.L.L.L.7.W.(.=.r 9 W A.A.A.A.A.A.A.A.A.A.A.A.A.A.A.A.A.A.A.A.i.i._.",
"A.A.A.A.A.A.A.A.A.u.y.V - 1 #.E.1.{ { $.5.T.T.5.$.{ { $.5.Y.P.L.L.P.P.7.-.G > ; E A.A.A.A.A.A.A.A.A.A.A.A.A.A.A.A.A.A.A.A.i.i._.",
"A.A.A.A.A.A.A.A.A./ m O   *  .!.L.3.3.5.7.P.P.7.5.3.3.5.7.P.L.L.L.P.W.*.b @   & Y A.A.A.A.A.A.A.A.A.A.A.A.A.A.A.A.A.A.A.A.i.i._.",
"A.A.A.A.A.A.A.A.A.E & . % D *.Q.T.Y.T.P.L.L.P.E.W.W.W.W.E.P.L.L.L.E./.o.*   O m / A.A.A.A.A.A.A.A.A.A.A.A.A.A.A.A.A.A.A.A.i.i._.",
"A.A.A.A.A.A.A.A.A.( 9 < _ L.L.P.P.P.P.L.L.P.W.~.~.~.~.~.~.W.P.7.7.R./.%.5 - V y.u.A.A.A.A.A.A.A.A.A.A.A.A.A.A.A.A.A.A.A.A.i.i._.",
"A.A.A.A.A.A.A.A.y.V - 1  .!.E.P.L.L.P.E.W.7.*. .o.@.@.o. .*.7.W.R.P.L.) < 0 y.A.A.C.A.A.A.A.A.A.A.A.A.A.A.A.A.A.A.A.A.A.A.i.i._.",
"A.A.A.A.A.A.A.A.m O   @ s #.L.!.P.P.W./.(.-.b * < e e 4 * b ;.(./.6.] p # 0 y.A.A.u.A.A.A.A.A.A.A.A.A.A.A.A.A.A.A.A.A.A.A.i.i._.",
"A.A.A.A.A.A.A.A.&   . * : k ' L.E.L.*.@.*.G @   ; 6 O     @ D -.6.] x #   - V y.u.A.A.A.A.A.A.A.A.A.A.A.A.A.A.A.A.A.A.A.A.i.i._.",
"A.A.A.A.A.A.A.A.; o , p p s g ..Q.L.D > e > . + A U 6       * j c G z < .   O m / A.A.A.A.A.A.A.A.A.A.A.A.A.A.A.A.A.A.A.A.i.i._.",
"A.A.A.A.A.A.A.A.9 # s x h p 1 k @.H $       + Z A.y.y           : f h p >     & Y A.A.A.A.A.A.A.A.A.A.A.A.A.A.A.A.A.A.A.A.i.i._.",
"A.A.A.A.A.A.A.A.9 # s x h s s a a > .     ; A A.A.W 9         . q l g s a , . ; E A.A.A.A.A.A.A.A.A.C.A.A.A.A.A.A.A.A.A.A.i.i._.",
"A.A.A.A.A.A.A.A.; o , s s g k 1           6 U A.A.E 9         o , s s k x p # 9 E A.A.A.A.A.A.A.A.d.f.D.A.A.A.A.A.A.A.A.A.i.i._.",
"A.A.A.A.A.A.A.A.&   . > p h k q o         X & C u./ 0             < s x z q @ 9 E A.A.A.A.C.V.V.S.c.N.c.A.C.A.A.A.A.A.A.A.i.i._.",
"A.A.A.A.A.A.A.A.m O   . q z z r @ O 6 6 X     & / t.9     X 6 ;     : s h p # 9 E A.A.A.A.d.f.A.S.b.J.v.A.V.A.A.A.A.A.A.A.i.i._.",
"A.A.A.A.A.A.A.A.y.V - @ p c c p # 6 U A &     & ( e.;     & A A &     < g s # 9 E A.A.C.S.v.b.d.A.v.B.v.A.V.A.A.A.A.A.A.A.i.i._.",
"A.A.A.A.A.A.A.A.A.( 9 o < p a < o 0 y.A.V O & m y.y.m + + V A.A.C X   . 1 2 @ ; E A.A.V.d.n.B.j.A.v.B.v.A.V.A.A.A.A.A.A.A.i.i._.",
"A.A.A.A.A.A.A.A.A.E -   o # # o   - W A.e.U U ! C.u.! U U / A.A.y.N X   @ @   & Y A.A.V.d.N.B.g.A.b.J.v.A.V.A.A.A.A.A.A.A.i.i._.",
"A.A.A.A.A.A.A.A.A.W m & ; 9 9 ; & m W A.A.A.A.A.A.A.A.A.A.A.A.A.A.y.m & ; ; & m W A.A.V.d.N.m.j.A.j.b.c.A.C.A.A.A.A.A.A.A.i.i._.",
"A.A.A.A.A.A.A.A.A.A.A.A.A.A.A.A.A.A.A.A.A.A.A.A.A.A.A.A.A.A.A.A.A.A.A.A.A.A.A.A.A.A.A.V.d.n.B.c.A.S.f.D.A.A.A.A.A.A.A.A.A.i.i._.",
"A.A.A.A.A.A.A.A.A.A.A.A.A.A.A.A.A.A.A.A.A.A.A.A.A.A.A.A.A.A.A.A.A.A.A.A.A.A.A.A.A.A.A.V.D.v.N.j.A.V.C.A.A.A.A.A.A.A.A.A.A.i.i._.",
"A.A.A.A.A.A.A.A.A.A.A.A.A.A.A.A.A.A.A.A.A.A.A.A.A.V.C.A.A.A.A.A.A.A.A.A.A.A.A.A.A.A.A.A.S.f.g.d.A.C.A.A.A.A.A.A.A.A.A.A.A.i.i._.",
"A.A.A.A.A.A.A.A.A.A.A.A.A.A.A.A.A.A.A.A.A.A.A.A.S.D.S.A.A.A.A.A.A.A.A.A.A.A.A.A.A.A.A.A.A.A.C.A.A.A.A.A.A.A.A.A.A.A.A.A.A.i.i._.",
"A.A.A.A.A.A.A.A.A.A.A.A.A.A.A.A.A.A.A.A.A.A.V.V.g.b.c.A.V.A.A.A.A.A.A.A.A.A.A.A.A.A.A.A.A.A.C.A.A.A.A.A.A.A.A.A.A.A.A.A.A.i.i._.",
"A.A.A.A.A.A.A.A.A.A.A.A.A.A.A.A.A.A.A.A.A.A.A.S.v.m.b.D.A.A.A.A.A.A.A.A.A.A.A.A.A.A.A.A.A.A.A.A.A.A.A.A.A.A.A.A.A.A.A.A.A.i.i._.",
"A.A.A.A.A.A.A.A.A.A.A.A.A.A.A.A.A.A.A.A.C.A.j.b.v.g.c.b.c.S.C.A.A.A.A.A.A.A.A.A.A.A.A.A.A.A.A.A.A.A.A.A.A.A.A.A.A.A.A.A.A.i.i._.",
"A.A.A.A.A.A.A.A.A.A.A.A.A.A.A.A.A.A.A.A.V.A.v.n.c.A.g.n.b.S.V.A.A.A.A.A.A.A.A.A.A.A.A.A.A.A.A.A.A.A.A.A.A.A.A.A.A.A.A.A.A.i.i._.",
"0.0.0.Z.Z.Z.Z.Z.Z.Z.Z.Z.Z.Z.Z.Z.Z.Z.Z.Z.0.0.p.k.l.l.l.k.p.Z.0.Z.Z.0.0.0.0.0.0.Z.Z.Z.0.0.0.0.Z.Z.Z.Z.Z.0.0.0.0.0.0.0.0.Z.Z.9.8.).",
"S.S.S.S.S.S.S.S.S.S.S.S.S.S.S.S.S.S.S.S.S.S.C.S.v.m.M.D.C.S.S.S.S.S.S.S.S.S.S.S.S.S.S.S.S.S.S.S.S.S.S.S.S.S.S.S.S.S.S.S.S.a.a.`."
};
